{"glyphs":{"0":{"ha":919,"x_min":64,"x_max":856,"o":"m 460 -15 q 254 49 343 -15 q 115 226 165 113 q 64 486 64 339 q 115 747 64 633 q 254 924 165 860 q 460 988 343 988 q 665 924 576 988 q 805 747 754 860 q 856 486 856 633 q 805 226 856 339 q 665 49 754 113 q 460 -15 576 -15 m 460 75 q 616 126 550 75 q 718 269 682 176 q 754 486 754 363 q 718 703 754 611 q 616 847 682 796 q 460 897 550 897 q 304 847 371 897 q 201 703 238 796 q 165 486 165 611 q 201 269 165 363 q 304 126 238 176 q 460 75 371 75 z "},"1":{"ha":401,"x_min":39,"x_max":304,"o":"m 203 0 l 203 865 l 39 793 l 39 886 l 239 972 l 304 972 l 304 0 l 203 0 z "},"2":{"ha":833,"x_min":90,"x_max":729,"o":"m 103 0 l 103 74 l 492 499 q 563 587 538 549 q 599 658 589 625 q 610 729 610 692 q 552 851 610 803 q 406 899 494 899 q 279 872 338 899 q 149 781 221 846 l 90 850 q 244 953 167 919 q 407 988 322 988 q 563 955 494 988 q 669 865 631 922 q 708 735 708 808 q 696 645 708 686 q 651 558 683 604 q 560 446 619 511 l 228 86 l 729 88 l 729 0 l 103 0 z "},"3":{"ha":833,"x_min":57,"x_max":738,"o":"m 397 -15 q 210 19 297 -15 q 57 122 124 54 l 124 188 q 249 99 185 126 q 396 72 314 72 q 522 97 467 72 q 607 167 576 122 q 638 268 638 211 q 610 365 638 322 q 536 431 583 407 q 428 454 489 454 l 313 454 l 313 540 l 424 540 q 552 589 503 540 q 601 715 601 638 q 574 808 601 767 q 498 874 546 850 q 390 899 450 899 q 256 872 315 899 q 136 781 197 844 l 69 847 q 217 952 135 917 q 392 988 299 988 q 551 953 481 988 q 661 858 621 918 q 701 721 701 797 q 651 584 701 644 q 519 500 601 524 q 678 414 618 478 q 738 265 738 350 q 694 121 738 185 q 573 21 650 57 q 397 -15 496 -15 z "},"4":{"ha":860,"x_min":38,"x_max":808,"o":"m 590 0 l 590 260 l 38 260 l 38 340 l 583 972 l 692 972 l 692 347 l 808 347 l 808 260 l 692 260 l 692 0 l 590 0 m 163 347 l 590 347 l 590 843 l 163 347 z "},"5":{"ha":833,"x_min":69,"x_max":740,"o":"m 400 -15 q 69 117 208 -15 l 132 185 q 259 98 196 125 q 401 71 322 71 q 526 100 472 71 q 610 182 581 129 q 640 303 640 235 q 574 460 640 400 q 401 519 508 519 q 293 506 346 519 q 183 464 240 493 l 114 486 l 136 972 l 689 972 l 689 885 l 222 885 l 207 549 q 314 588 263 576 q 422 600 365 600 q 590 563 518 600 q 701 460 661 526 q 740 307 740 394 q 697 139 740 211 q 578 26 654 67 q 400 -15 501 -15 z "},"6":{"ha":833,"x_min":65,"x_max":775,"o":"m 446 -14 q 248 46 333 -14 q 114 210 163 106 q 65 453 65 315 q 119 734 65 614 q 272 921 174 854 q 501 988 371 988 q 622 971 563 988 q 729 922 682 954 l 679 844 q 589 883 636 869 q 493 897 542 897 q 320 845 393 897 q 208 696 247 793 q 165 463 168 599 q 294 571 219 532 q 450 610 369 610 q 618 571 544 610 q 733 463 692 532 q 775 307 775 394 q 732 142 775 215 q 615 28 689 69 q 446 -14 540 -14 m 436 528 q 290 490 360 528 q 168 385 219 451 q 216 222 179 292 q 312 113 253 151 q 444 74 371 74 q 563 103 511 74 q 645 186 615 133 q 675 304 675 239 q 644 420 675 369 q 560 499 614 471 q 436 528 507 528 z "},"7":{"ha":833,"x_min":71,"x_max":763,"o":"m 171 0 l 654 885 l 71 885 l 71 972 l 763 972 l 763 894 l 285 0 l 171 0 z "},"8":{"ha":833,"x_min":71,"x_max":763,"o":"m 417 -15 q 239 21 317 -15 q 116 120 161 57 q 71 263 71 183 q 100 373 71 322 q 181 460 129 424 q 300 513 233 497 q 162 597 215 536 q 108 735 108 658 q 149 864 108 807 q 259 954 189 921 q 417 988 329 988 q 575 954 506 988 q 685 864 644 921 q 725 735 725 807 q 672 597 725 658 q 533 513 619 536 q 699 420 635 489 q 763 263 763 351 q 718 120 763 183 q 595 21 674 57 q 417 -15 517 -15 m 417 554 q 524 578 476 554 q 600 641 572 601 q 628 731 628 681 q 600 821 628 781 q 524 884 572 861 q 417 907 476 907 q 309 884 357 907 q 233 821 261 861 q 206 731 206 781 q 233 641 206 681 q 309 578 261 601 q 417 554 357 554 m 417 65 q 543 92 488 65 q 631 164 599 118 q 664 267 664 210 q 631 369 664 324 q 543 442 599 415 q 417 468 488 468 q 290 442 346 468 q 202 369 235 415 q 169 267 169 324 q 202 164 169 210 q 290 92 235 118 q 417 65 346 65 z "},"9":{"ha":850,"x_min":61,"x_max":771,"o":"m 390 988 q 588 928 503 988 q 722 763 674 868 q 771 521 771 658 q 717 240 771 360 q 565 53 663 119 q 335 -14 467 -14 q 215 3 275 -14 q 107 51 154 21 l 157 129 q 248 90 200 104 q 343 76 296 76 q 516 128 443 76 q 629 278 589 181 q 671 511 669 376 q 542 403 617 442 q 386 364 467 364 q 218 403 292 364 q 103 511 144 443 q 61 667 61 579 q 104 832 61 760 q 222 946 147 904 q 390 988 296 988 m 400 446 q 547 484 476 446 q 668 589 617 522 q 621 753 658 683 q 525 861 583 822 q 392 900 467 900 q 274 870 326 900 q 191 788 221 840 q 161 669 161 736 q 192 553 161 604 q 276 474 222 503 q 400 446 331 446 z "},"A":{"ha":943,"x_min":6,"x_max":938,"o":"m 6 0 l 408 972 l 538 972 l 938 0 l 821 0 l 699 306 l 240 306 l 117 0 l 6 0 m 278 397 l 661 397 l 469 874 l 278 397 z "},"Á":{"ha":943,"x_min":6,"x_max":938,"o":"m 6 0 l 408 972 l 538 972 l 938 0 l 821 0 l 699 306 l 240 306 l 117 0 l 6 0 m 278 397 l 661 397 l 469 874 l 278 397 m 383 1110 l 514 1271 l 646 1271 l 474 1110 l 383 1110 z "},"Ă":{"ha":943,"x_min":6,"x_max":938,"o":"m 6 0 l 408 972 l 538 972 l 938 0 l 821 0 l 699 306 l 240 306 l 117 0 l 6 0 m 278 397 l 661 397 l 469 874 l 278 397 m 472 1099 q 333 1144 389 1099 q 258 1269 276 1189 l 331 1288 q 472 1167 360 1167 q 562 1197 525 1167 q 614 1288 599 1228 l 686 1269 q 611 1144 668 1189 q 472 1099 554 1099 z "},"Â":{"ha":943,"x_min":6,"x_max":938,"o":"m 6 0 l 408 972 l 538 972 l 938 0 l 821 0 l 699 306 l 240 306 l 117 0 l 6 0 m 278 397 l 661 397 l 469 874 l 278 397 m 588 1104 l 471 1215 l 356 1104 l 272 1104 l 417 1272 l 528 1272 l 672 1104 l 588 1104 z "},"Ä":{"ha":943,"x_min":6,"x_max":938,"o":"m 6 0 l 408 972 l 538 972 l 938 0 l 821 0 l 699 306 l 240 306 l 117 0 l 6 0 m 278 397 l 661 397 l 469 874 l 278 397 m 351 1125 q 302 1144 322 1125 q 282 1192 282 1164 q 302 1239 282 1219 q 351 1258 322 1258 q 401 1239 381 1258 q 421 1192 421 1219 q 401 1144 421 1164 q 351 1125 381 1125 m 593 1125 q 544 1144 564 1125 q 524 1192 524 1164 q 544 1239 524 1219 q 593 1258 564 1258 q 642 1239 622 1258 q 663 1192 663 1219 q 642 1144 663 1164 q 593 1125 622 1125 z "},"À":{"ha":943,"x_min":6,"x_max":938,"o":"m 6 0 l 408 972 l 538 972 l 938 0 l 821 0 l 699 306 l 240 306 l 117 0 l 6 0 m 278 397 l 661 397 l 469 874 l 278 397 m 458 1110 l 288 1271 l 421 1271 l 549 1110 l 458 1110 z "},"Ā":{"ha":943,"x_min":6,"x_max":938,"o":"m 6 0 l 408 972 l 538 972 l 938 0 l 821 0 l 699 306 l 240 306 l 117 0 l 6 0 m 278 397 l 661 397 l 469 874 l 278 397 m 275 1139 l 275 1213 l 669 1213 l 669 1139 l 275 1139 z "},"Ą":{"ha":943,"x_min":6,"x_max":960,"o":"m 857 -307 q 758 -274 796 -307 q 721 -187 721 -242 q 753 -94 721 -139 q 858 0 786 -50 l 821 0 l 699 306 l 240 306 l 117 0 l 6 0 l 410 972 l 539 972 l 939 0 q 827 -89 863 -47 q 792 -171 792 -131 q 813 -224 792 -206 q 872 -243 833 -243 q 908 -238 890 -243 q 939 -224 925 -233 l 960 -278 q 912 -299 938 -292 q 857 -307 886 -307 m 278 397 l 661 397 l 471 872 l 278 397 z "},"Å":{"ha":943,"x_min":6,"x_max":938,"o":"m 6 0 l 408 972 l 538 972 l 938 0 l 821 0 l 699 306 l 240 306 l 117 0 l 6 0 m 278 397 l 661 397 l 469 874 l 278 397 m 472 1086 q 394 1107 429 1086 q 338 1163 358 1128 q 317 1240 317 1199 q 338 1318 317 1283 q 394 1374 358 1353 q 472 1394 429 1394 q 551 1374 515 1394 q 607 1318 586 1353 q 628 1240 628 1283 q 607 1163 628 1199 q 551 1107 586 1128 q 472 1086 515 1086 m 472 1143 q 541 1172 513 1143 q 569 1240 569 1200 q 541 1309 569 1281 q 472 1338 513 1338 q 403 1309 432 1338 q 375 1240 375 1281 q 403 1172 375 1200 q 472 1143 432 1143 z "},"Ã":{"ha":943,"x_min":6,"x_max":938,"o":"m 6 0 l 408 972 l 538 972 l 938 0 l 821 0 l 699 306 l 240 306 l 117 0 l 6 0 m 278 397 l 661 397 l 469 874 l 278 397 m 311 1103 l 239 1117 q 369 1256 269 1256 q 442 1237 407 1256 q 510 1199 478 1218 q 571 1179 542 1179 q 609 1197 594 1179 q 633 1258 624 1215 l 704 1244 q 657 1140 690 1175 q 574 1106 624 1106 q 502 1125 538 1106 q 434 1163 467 1144 q 372 1182 401 1182 q 333 1164 347 1182 q 311 1103 319 1146 z "},"Æ":{"ha":1324,"x_min":6,"x_max":1276,"o":"m 6 0 l 410 972 l 1276 972 l 1276 878 l 581 878 l 718 538 l 1081 538 l 1081 444 l 756 444 l 896 94 l 1276 94 l 1276 0 l 821 0 l 699 306 l 240 306 l 117 0 l 6 0 m 278 397 l 661 397 l 471 872 l 278 397 z "},"B":{"ha":913,"x_min":107,"x_max":849,"o":"m 107 0 l 107 972 l 501 972 q 665 942 596 972 q 771 855 733 911 q 808 722 808 799 q 769 592 808 647 q 660 507 729 536 q 798 419 747 481 q 849 274 849 358 q 808 128 849 190 q 692 33 767 67 q 518 0 618 0 l 107 0 m 214 549 l 496 549 q 647 593 590 549 q 703 714 703 638 q 647 835 703 790 q 496 879 590 879 l 214 879 l 214 549 m 214 93 l 510 93 q 678 143 615 93 q 740 276 740 193 q 678 410 740 360 q 510 460 615 460 l 214 460 l 214 93 z "},"C":{"ha":1003,"x_min":61,"x_max":950,"o":"m 565 -15 q 368 23 460 -15 q 207 130 276 61 q 99 290 138 199 q 61 486 61 381 q 99 683 61 592 q 207 842 138 774 q 368 949 276 911 q 565 988 460 988 q 712 969 642 988 q 842 915 782 950 q 950 828 903 879 l 879 753 q 739 853 822 818 q 565 889 656 889 q 408 858 481 889 q 283 773 336 828 q 199 645 229 718 q 169 486 169 572 q 199 328 169 401 q 283 199 229 254 q 410 114 338 144 q 568 83 483 83 q 740 119 658 83 q 878 217 822 154 l 947 144 q 838 58 899 94 q 708 3 778 22 q 565 -15 639 -15 z "},"Ć":{"ha":1003,"x_min":61,"x_max":950,"o":"m 565 -15 q 368 23 460 -15 q 207 130 276 61 q 99 290 138 199 q 61 486 61 381 q 99 683 61 592 q 207 842 138 774 q 368 949 276 911 q 565 988 460 988 q 712 969 642 988 q 842 915 782 950 q 950 828 903 879 l 879 753 q 739 853 822 818 q 565 889 656 889 q 408 858 481 889 q 283 773 336 828 q 199 645 229 718 q 169 486 169 572 q 199 328 169 401 q 283 199 229 254 q 410 114 338 144 q 568 83 483 83 q 740 119 658 83 q 878 217 822 154 l 947 144 q 838 58 899 94 q 708 3 778 22 q 565 -15 639 -15 m 471 1110 l 601 1271 l 733 1271 l 561 1110 l 471 1110 z "},"Č":{"ha":1003,"x_min":61,"x_max":950,"o":"m 565 -15 q 368 23 460 -15 q 207 130 276 61 q 99 290 138 199 q 61 486 61 381 q 99 683 61 592 q 207 842 138 774 q 368 949 276 911 q 565 988 460 988 q 712 969 642 988 q 842 915 782 950 q 950 828 903 879 l 879 753 q 739 853 822 818 q 565 889 656 889 q 408 858 481 889 q 283 773 336 828 q 199 645 229 718 q 169 486 169 572 q 199 328 169 401 q 283 199 229 254 q 410 114 338 144 q 568 83 483 83 q 740 119 658 83 q 878 217 822 154 l 947 144 q 838 58 899 94 q 708 3 778 22 q 565 -15 639 -15 m 446 1274 l 560 1164 l 674 1274 l 760 1274 l 615 1107 l 504 1107 l 360 1274 l 446 1274 z "},"Ç":{"ha":1003,"x_min":61,"x_max":950,"o":"m 546 -317 q 389 -260 450 -317 l 431 -215 q 546 -260 483 -260 q 611 -241 588 -260 q 635 -192 635 -222 q 609 -144 635 -161 q 539 -126 583 -126 l 499 -126 l 531 -14 q 345 33 431 -7 q 196 141 260 74 q 97 297 132 208 q 61 486 61 385 q 99 683 61 592 q 207 842 138 774 q 368 949 276 911 q 565 988 460 988 q 712 969 642 988 q 842 915 782 950 q 950 828 903 879 l 879 753 q 739 853 822 818 q 565 889 656 889 q 408 858 481 889 q 283 773 336 828 q 199 645 229 718 q 169 486 169 572 q 199 328 169 401 q 283 199 229 254 q 410 114 338 144 q 568 83 483 83 q 740 119 658 83 q 878 217 822 154 l 947 144 q 786 31 879 72 q 590 -15 693 -10 l 574 -76 q 670 -110 635 -79 q 706 -190 706 -140 q 660 -281 706 -246 q 546 -317 615 -317 z "},"Ĉ":{"ha":1003,"x_min":61,"x_max":950,"o":"m 565 -15 q 368 23 460 -15 q 207 130 276 61 q 99 290 138 199 q 61 486 61 381 q 99 683 61 592 q 207 842 138 774 q 368 949 276 911 q 565 988 460 988 q 712 969 642 988 q 842 915 782 950 q 950 828 903 879 l 879 753 q 739 853 822 818 q 565 889 656 889 q 408 858 481 889 q 283 773 336 828 q 199 645 229 718 q 169 486 169 572 q 199 328 169 401 q 283 199 229 254 q 410 114 338 144 q 568 83 483 83 q 740 119 658 83 q 878 217 822 154 l 947 144 q 838 58 899 94 q 708 3 778 22 q 565 -15 639 -15 m 675 1104 l 558 1215 l 443 1104 l 360 1104 l 504 1272 l 615 1272 l 760 1104 l 675 1104 z "},"Ċ":{"ha":1003,"x_min":61,"x_max":950,"o":"m 565 -15 q 368 23 460 -15 q 207 130 276 61 q 99 290 138 199 q 61 486 61 381 q 99 683 61 592 q 207 842 138 774 q 368 949 276 911 q 565 988 460 988 q 712 969 642 988 q 842 915 782 950 q 950 828 903 879 l 879 753 q 739 853 822 818 q 565 889 656 889 q 408 858 481 889 q 283 773 336 828 q 199 645 229 718 q 169 486 169 572 q 199 328 169 401 q 283 199 229 254 q 410 114 338 144 q 568 83 483 83 q 740 119 658 83 q 878 217 822 154 l 947 144 q 838 58 899 94 q 708 3 778 22 q 565 -15 639 -15 m 560 1113 q 512 1133 532 1113 q 492 1181 492 1153 q 512 1228 492 1208 q 560 1249 532 1249 q 608 1228 588 1249 q 628 1181 628 1208 q 608 1133 628 1153 q 560 1113 588 1113 z "},"D":{"ha":1000,"x_min":107,"x_max":939,"o":"m 214 97 l 433 97 q 590 126 518 97 q 717 208 663 156 q 801 332 771 261 q 831 486 831 403 q 801 640 831 569 q 717 764 771 711 q 590 846 663 817 q 433 875 518 875 l 214 875 l 214 97 m 107 0 l 107 972 l 428 972 q 632 936 539 972 q 794 835 725 900 q 901 681 863 769 q 939 486 939 592 q 901 292 939 381 q 795 138 864 203 q 633 36 726 72 q 428 0 539 0 l 107 0 z "},"Ď":{"ha":1000,"x_min":107,"x_max":939,"o":"m 214 97 l 433 97 q 590 126 518 97 q 717 208 663 156 q 801 332 771 261 q 831 486 831 403 q 801 640 831 569 q 717 764 771 711 q 590 846 663 817 q 433 875 518 875 l 214 875 l 214 97 m 107 0 l 107 972 l 428 972 q 632 936 539 972 q 794 835 725 900 q 901 681 863 769 q 939 486 939 592 q 901 292 939 381 q 795 138 864 203 q 633 36 726 72 q 428 0 539 0 l 107 0 m 386 1274 l 500 1164 l 614 1274 l 700 1274 l 556 1107 l 444 1107 l 300 1274 l 386 1274 z "},"Đ":{"ha":1033,"x_min":18,"x_max":971,"o":"m 139 0 l 139 440 l 18 440 l 18 532 l 139 532 l 139 972 l 460 972 q 664 936 571 972 q 826 835 757 900 q 933 681 894 769 q 971 486 971 592 q 933 292 971 381 q 827 138 896 203 q 665 36 758 72 q 460 0 571 0 l 139 0 m 246 97 l 465 97 q 622 126 550 97 q 749 208 694 156 q 833 332 803 261 q 863 486 863 403 q 833 640 863 569 q 749 764 803 711 q 622 846 694 817 q 465 875 550 875 l 246 875 l 246 532 l 508 532 l 508 440 l 246 440 l 246 97 z "},"Ð":{"ha":1033,"x_min":18,"x_max":971,"o":"m 139 0 l 139 440 l 18 440 l 18 532 l 139 532 l 139 972 l 460 972 q 664 936 571 972 q 826 835 757 900 q 933 681 894 769 q 971 486 971 592 q 933 292 971 381 q 827 138 896 203 q 665 36 758 72 q 460 0 571 0 l 139 0 m 246 97 l 465 97 q 622 126 550 97 q 749 208 694 156 q 833 332 803 261 q 863 486 863 403 q 833 640 863 569 q 749 764 803 711 q 622 846 694 817 q 465 875 550 875 l 246 875 l 246 532 l 508 532 l 508 440 l 246 440 l 246 97 z "},"E":{"ha":856,"x_min":107,"x_max":808,"o":"m 107 0 l 107 972 l 803 972 l 803 878 l 214 878 l 214 538 l 599 538 l 599 444 l 214 444 l 214 94 l 808 94 l 808 0 l 107 0 z "},"É":{"ha":856,"x_min":107,"x_max":808,"o":"m 107 0 l 107 972 l 803 972 l 803 878 l 214 878 l 214 538 l 599 538 l 599 444 l 214 444 l 214 94 l 808 94 l 808 0 l 107 0 m 383 1110 l 514 1271 l 646 1271 l 474 1110 l 383 1110 z "},"Ĕ":{"ha":856,"x_min":107,"x_max":808,"o":"m 107 0 l 107 972 l 803 972 l 803 878 l 214 878 l 214 538 l 599 538 l 599 444 l 214 444 l 214 94 l 808 94 l 808 0 l 107 0 m 472 1099 q 333 1144 389 1099 q 258 1269 276 1189 l 331 1288 q 472 1167 360 1167 q 562 1197 525 1167 q 614 1288 599 1228 l 686 1269 q 611 1144 668 1189 q 472 1099 554 1099 z "},"Ě":{"ha":856,"x_min":107,"x_max":808,"o":"m 107 0 l 107 972 l 803 972 l 803 878 l 214 878 l 214 538 l 599 538 l 599 444 l 214 444 l 214 94 l 808 94 l 808 0 l 107 0 m 358 1274 l 472 1164 l 586 1274 l 672 1274 l 528 1107 l 417 1107 l 272 1274 l 358 1274 z "},"Ê":{"ha":856,"x_min":107,"x_max":808,"o":"m 107 0 l 107 972 l 803 972 l 803 878 l 214 878 l 214 538 l 599 538 l 599 444 l 214 444 l 214 94 l 808 94 l 808 0 l 107 0 m 588 1104 l 471 1215 l 356 1104 l 272 1104 l 417 1272 l 528 1272 l 672 1104 l 588 1104 z "},"Ë":{"ha":856,"x_min":107,"x_max":808,"o":"m 107 0 l 107 972 l 803 972 l 803 878 l 214 878 l 214 538 l 599 538 l 599 444 l 214 444 l 214 94 l 808 94 l 808 0 l 107 0 m 351 1125 q 302 1144 322 1125 q 282 1192 282 1164 q 302 1239 282 1219 q 351 1258 322 1258 q 401 1239 381 1258 q 421 1192 421 1219 q 401 1144 421 1164 q 351 1125 381 1125 m 593 1125 q 544 1144 564 1125 q 524 1192 524 1164 q 544 1239 524 1219 q 593 1258 564 1258 q 642 1239 622 1258 q 663 1192 663 1219 q 642 1144 663 1164 q 593 1125 622 1125 z "},"Ė":{"ha":856,"x_min":107,"x_max":808,"o":"m 107 0 l 107 972 l 803 972 l 803 878 l 214 878 l 214 538 l 599 538 l 599 444 l 214 444 l 214 94 l 808 94 l 808 0 l 107 0 m 472 1113 q 424 1133 444 1113 q 404 1181 404 1153 q 424 1228 404 1208 q 472 1249 444 1249 q 520 1228 500 1249 q 540 1181 540 1208 q 520 1133 540 1153 q 472 1113 500 1113 z "},"È":{"ha":856,"x_min":107,"x_max":808,"o":"m 107 0 l 107 972 l 803 972 l 803 878 l 214 878 l 214 538 l 599 538 l 599 444 l 214 444 l 214 94 l 808 94 l 808 0 l 107 0 m 458 1110 l 288 1271 l 421 1271 l 549 1110 l 458 1110 z "},"Ē":{"ha":856,"x_min":107,"x_max":808,"o":"m 107 0 l 107 972 l 803 972 l 803 878 l 214 878 l 214 538 l 599 538 l 599 444 l 214 444 l 214 94 l 808 94 l 808 0 l 107 0 m 275 1139 l 275 1213 l 669 1213 l 669 1139 l 275 1139 z "},"Ę":{"ha":856,"x_min":107,"x_max":829,"o":"m 829 -278 q 781 -299 807 -292 q 726 -307 756 -307 q 628 -274 665 -307 q 590 -187 590 -242 q 623 -94 590 -139 q 728 0 656 -50 l 107 0 l 107 972 l 803 972 l 803 878 l 214 878 l 214 538 l 599 538 l 599 444 l 214 444 l 214 94 l 808 94 l 808 0 q 697 -89 732 -47 q 661 -171 661 -131 q 682 -224 661 -206 q 742 -243 703 -243 q 777 -238 760 -243 q 808 -224 794 -233 l 829 -278 z "},"F":{"ha":843,"x_min":107,"x_max":803,"o":"m 107 0 l 107 972 l 803 972 l 803 878 l 214 878 l 214 531 l 600 531 l 600 438 l 214 438 l 214 0 l 107 0 z "},"G":{"ha":1094,"x_min":61,"x_max":1036,"o":"m 564 -15 q 367 24 458 -15 q 208 131 276 63 q 100 291 139 200 q 61 486 61 382 q 99 681 61 590 q 206 841 138 772 q 366 949 275 910 q 563 988 457 988 q 775 946 675 988 q 946 828 875 904 l 874 754 q 735 853 818 818 q 563 889 653 889 q 408 858 479 889 q 283 773 336 828 q 199 645 229 718 q 169 486 169 572 q 199 328 169 401 q 283 199 229 254 q 408 114 336 144 q 563 83 479 83 q 741 126 661 83 q 870 244 821 169 q 928 414 919 319 l 579 414 l 579 508 l 1036 508 l 1036 465 q 1000 276 1036 364 q 900 124 964 189 q 750 22 836 58 q 564 -15 664 -15 z "},"Ğ":{"ha":1094,"x_min":61,"x_max":1036,"o":"m 564 -15 q 367 24 458 -15 q 208 131 276 63 q 100 291 139 200 q 61 486 61 382 q 99 681 61 590 q 206 841 138 772 q 366 949 275 910 q 563 988 457 988 q 775 946 675 988 q 946 828 875 904 l 874 754 q 735 853 818 818 q 563 889 653 889 q 408 858 479 889 q 283 773 336 828 q 199 645 229 718 q 169 486 169 572 q 199 328 169 401 q 283 199 229 254 q 408 114 336 144 q 563 83 479 83 q 741 126 661 83 q 870 244 821 169 q 928 414 919 319 l 579 414 l 579 508 l 1036 508 l 1036 465 q 1000 276 1036 364 q 900 124 964 189 q 750 22 836 58 q 564 -15 664 -15 m 561 1099 q 422 1144 478 1099 q 347 1269 365 1189 l 419 1288 q 561 1167 449 1167 q 651 1197 614 1167 q 703 1288 688 1228 l 775 1269 q 700 1144 757 1189 q 561 1099 643 1099 z "},"Ĝ":{"ha":1094,"x_min":61,"x_max":1036,"o":"m 564 -15 q 367 24 458 -15 q 208 131 276 63 q 100 291 139 200 q 61 486 61 382 q 99 681 61 590 q 206 841 138 772 q 366 949 275 910 q 563 988 457 988 q 775 946 675 988 q 946 828 875 904 l 874 754 q 735 853 818 818 q 563 889 653 889 q 408 858 479 889 q 283 773 336 828 q 199 645 229 718 q 169 486 169 572 q 199 328 169 401 q 283 199 229 254 q 408 114 336 144 q 563 83 479 83 q 741 126 661 83 q 870 244 821 169 q 928 414 919 319 l 579 414 l 579 508 l 1036 508 l 1036 465 q 1000 276 1036 364 q 900 124 964 189 q 750 22 836 58 q 564 -15 664 -15 m 676 1104 l 560 1215 l 444 1104 l 361 1104 l 506 1272 l 617 1272 l 761 1104 l 676 1104 z "},"Ģ":{"ha":1094,"x_min":61,"x_max":1036,"o":"m 564 -15 q 367 24 458 -15 q 208 131 276 63 q 100 291 139 200 q 61 486 61 382 q 99 681 61 590 q 206 841 138 772 q 366 949 275 910 q 563 988 457 988 q 775 946 675 988 q 946 828 875 904 l 874 754 q 735 853 818 818 q 563 889 653 889 q 408 858 479 889 q 283 773 336 828 q 199 645 229 718 q 169 486 169 572 q 199 328 169 401 q 283 199 229 254 q 408 114 336 144 q 563 83 479 83 q 741 126 661 83 q 870 244 821 169 q 928 414 919 319 l 579 414 l 579 508 l 1036 508 l 1036 465 q 1000 276 1036 364 q 900 124 964 189 q 750 22 836 58 q 564 -15 664 -15 m 460 -367 l 517 -118 l 619 -118 l 536 -367 l 460 -367 z "},"Ġ":{"ha":1094,"x_min":61,"x_max":1036,"o":"m 564 -15 q 367 24 458 -15 q 208 131 276 63 q 100 291 139 200 q 61 486 61 382 q 99 681 61 590 q 206 841 138 772 q 366 949 275 910 q 563 988 457 988 q 775 946 675 988 q 946 828 875 904 l 874 754 q 735 853 818 818 q 563 889 653 889 q 408 858 479 889 q 283 773 336 828 q 199 645 229 718 q 169 486 169 572 q 199 328 169 401 q 283 199 229 254 q 408 114 336 144 q 563 83 479 83 q 741 126 661 83 q 870 244 821 169 q 928 414 919 319 l 579 414 l 579 508 l 1036 508 l 1036 465 q 1000 276 1036 364 q 900 124 964 189 q 750 22 836 58 q 564 -15 664 -15 m 561 1113 q 513 1133 533 1113 q 493 1181 493 1153 q 513 1228 493 1208 q 561 1249 533 1249 q 609 1228 589 1249 q 629 1181 629 1208 q 609 1133 629 1153 q 561 1113 589 1113 z "},"H":{"ha":993,"x_min":107,"x_max":886,"o":"m 107 0 l 107 972 l 214 972 l 214 538 l 779 538 l 779 972 l 886 972 l 886 0 l 779 0 l 779 442 l 214 442 l 214 0 l 107 0 z "},"Ħ":{"ha":1010,"x_min":21,"x_max":989,"o":"m 115 0 l 115 724 l 21 724 l 21 808 l 115 808 l 115 972 l 222 972 l 222 808 l 788 808 l 788 972 l 894 972 l 894 808 l 989 808 l 989 724 l 894 724 l 894 0 l 788 0 l 788 442 l 222 442 l 222 0 l 115 0 m 222 536 l 788 536 l 788 724 l 222 724 l 222 536 z "},"Ĥ":{"ha":993,"x_min":107,"x_max":886,"o":"m 107 0 l 107 972 l 214 972 l 214 538 l 779 538 l 779 972 l 886 972 l 886 0 l 779 0 l 779 442 l 214 442 l 214 0 l 107 0 m 611 1104 l 494 1215 l 379 1104 l 296 1104 l 440 1272 l 551 1272 l 696 1104 l 611 1104 z "},"I":{"ha":321,"x_min":107,"x_max":214,"o":"m 107 0 l 107 972 l 214 972 l 214 0 l 107 0 z "},"Ĳ":{"ha":1154,"x_min":107,"x_max":1067,"o":"m 107 0 l 107 972 l 214 972 l 214 0 l 107 0 m 697 -15 q 480 50 572 -15 q 344 233 388 115 l 442 274 q 544 131 479 178 q 699 83 608 83 q 889 160 818 83 q 960 368 960 238 l 960 972 l 1067 972 l 1067 367 q 1022 164 1067 250 q 894 31 976 78 q 697 -15 811 -15 z "},"Í":{"ha":321,"x_min":72,"x_max":335,"o":"m 107 0 l 107 972 l 214 972 l 214 0 l 107 0 m 72 1110 l 203 1271 l 335 1271 l 163 1110 l 72 1110 z "},"Ĭ":{"ha":321,"x_min":-53,"x_max":375,"o":"m 107 0 l 107 972 l 214 972 l 214 0 l 107 0 m 161 1099 q 22 1144 78 1099 q -53 1269 -35 1189 l 19 1288 q 161 1167 49 1167 q 251 1197 214 1167 q 303 1288 288 1228 l 375 1269 q 300 1144 357 1189 q 161 1099 243 1099 z "},"Î":{"ha":321,"x_min":-39,"x_max":361,"o":"m 107 0 l 107 972 l 214 972 l 214 0 l 107 0 m 276 1104 l 160 1215 l 44 1104 l -39 1104 l 106 1272 l 217 1272 l 361 1104 l 276 1104 z "},"Ï":{"ha":321,"x_min":-29,"x_max":351,"o":"m 107 0 l 107 972 l 214 972 l 214 0 l 107 0 m 40 1125 q -9 1144 11 1125 q -29 1192 -29 1164 q -9 1239 -29 1219 q 40 1258 11 1258 q 90 1239 69 1258 q 110 1192 110 1219 q 90 1144 110 1164 q 40 1125 69 1125 m 282 1125 q 233 1144 253 1125 q 213 1192 213 1164 q 233 1239 213 1219 q 282 1258 253 1258 q 331 1239 311 1258 q 351 1192 351 1219 q 331 1144 351 1164 q 282 1125 311 1125 z "},"İ":{"ha":321,"x_min":93,"x_max":229,"o":"m 107 0 l 107 972 l 214 972 l 214 0 l 107 0 m 161 1113 q 113 1133 133 1113 q 93 1181 93 1153 q 113 1228 93 1208 q 161 1249 133 1249 q 209 1228 189 1249 q 229 1181 229 1208 q 209 1133 229 1153 q 161 1113 189 1113 z "},"Ì":{"ha":321,"x_min":-24,"x_max":238,"o":"m 107 0 l 107 972 l 214 972 l 214 0 l 107 0 m 147 1110 l -24 1271 l 110 1271 l 238 1110 l 147 1110 z "},"Ī":{"ha":321,"x_min":-36,"x_max":358,"o":"m 107 0 l 107 972 l 214 972 l 214 0 l 107 0 m -36 1139 l -36 1213 l 358 1213 l 358 1139 l -36 1139 z "},"Į":{"ha":321,"x_min":-4,"x_max":235,"o":"m 132 -307 q 33 -274 71 -307 q -4 -187 -4 -242 q 28 -94 -4 -139 q 133 0 61 -50 l 107 0 l 107 972 l 214 972 l 214 0 q 102 -89 138 -47 q 67 -171 67 -131 q 88 -224 67 -206 q 147 -243 108 -243 q 183 -238 165 -243 q 214 -224 200 -233 l 235 -278 q 187 -299 213 -292 q 132 -307 161 -307 z "},"Ĩ":{"ha":321,"x_min":-72,"x_max":393,"o":"m 107 0 l 107 972 l 214 972 l 214 0 l 107 0 m 0 1103 l -72 1117 q 58 1256 -42 1256 q 131 1237 96 1256 q 199 1199 167 1218 q 260 1179 231 1179 q 298 1197 283 1179 q 322 1258 313 1215 l 393 1244 q 346 1140 379 1175 q 263 1106 313 1106 q 191 1125 226 1106 q 123 1163 156 1144 q 61 1182 90 1182 q 22 1164 36 1182 q 0 1103 8 1146 z "},"J":{"ha":833,"x_min":24,"x_max":746,"o":"m 376 -15 q 159 50 251 -15 q 24 233 67 115 l 121 274 q 223 131 158 178 q 378 83 288 83 q 568 160 497 83 q 639 368 639 238 l 639 972 l 746 972 l 746 367 q 701 164 746 250 q 573 31 656 78 q 376 -15 490 -15 z "},"Ĵ":{"ha":833,"x_min":24,"x_max":893,"o":"m 376 -15 q 159 50 251 -15 q 24 233 67 115 l 121 274 q 223 131 158 178 q 378 83 288 83 q 568 160 497 83 q 639 368 639 238 l 639 972 l 746 972 l 746 367 q 701 164 746 250 q 573 31 656 78 q 376 -15 490 -15 m 808 1104 l 692 1215 l 576 1104 l 493 1104 l 638 1272 l 749 1272 l 893 1104 l 808 1104 z "},"K":{"ha":857,"x_min":107,"x_max":868,"o":"m 107 0 l 107 972 l 214 972 l 214 511 l 717 972 l 857 972 l 329 496 l 868 0 l 718 0 l 214 467 l 214 0 l 107 0 z "},"Ķ":{"ha":857,"x_min":107,"x_max":868,"o":"m 107 0 l 107 972 l 214 972 l 214 511 l 717 972 l 857 972 l 329 496 l 868 0 l 718 0 l 214 467 l 214 0 l 107 0 m 350 -367 l 407 -118 l 510 -118 l 426 -367 l 350 -367 z "},"L":{"ha":839,"x_min":107,"x_max":793,"o":"m 107 0 l 107 972 l 214 972 l 214 96 l 793 96 l 793 0 l 107 0 z "},"Ĺ":{"ha":839,"x_min":71,"x_max":793,"o":"m 107 0 l 107 972 l 214 972 l 214 96 l 793 96 l 793 0 l 107 0 m 71 1110 l 201 1271 l 333 1271 l 161 1110 l 71 1110 z "},"Ľ":{"ha":832,"x_min":107,"x_max":793,"o":"m 107 0 l 107 972 l 214 972 l 214 96 l 793 96 l 793 0 l 107 0 m 554 706 l 561 972 l 667 988 l 632 706 l 554 706 z "},"Ļ":{"ha":839,"x_min":107,"x_max":793,"o":"m 107 0 l 107 972 l 214 972 l 214 96 l 793 96 l 793 0 l 107 0 m 368 -367 l 425 -118 l 528 -118 l 444 -367 l 368 -367 z "},"Ł":{"ha":851,"x_min":15,"x_max":813,"o":"m 126 0 l 126 322 l 15 238 l 15 340 l 126 425 l 126 972 l 233 972 l 233 506 l 511 715 l 511 613 l 233 403 l 233 96 l 813 96 l 813 0 l 126 0 z "},"M":{"ha":1176,"x_min":107,"x_max":1069,"o":"m 107 0 l 107 972 l 257 972 l 589 282 l 919 972 l 1069 972 l 1069 0 l 968 0 l 968 850 l 588 69 l 207 849 l 207 0 l 107 0 z "},"N":{"ha":1007,"x_min":107,"x_max":900,"o":"m 107 0 l 107 972 l 214 972 l 799 183 l 799 972 l 900 972 l 900 0 l 806 0 l 208 810 l 208 0 l 107 0 z "},"Ń":{"ha":1007,"x_min":107,"x_max":900,"o":"m 107 0 l 107 972 l 214 972 l 799 183 l 799 972 l 900 972 l 900 0 l 806 0 l 208 810 l 208 0 l 107 0 m 414 1110 l 544 1271 l 676 1271 l 504 1110 l 414 1110 z "},"Ň":{"ha":1007,"x_min":107,"x_max":900,"o":"m 107 0 l 107 972 l 214 972 l 799 183 l 799 972 l 900 972 l 900 0 l 806 0 l 208 810 l 208 0 l 107 0 m 389 1274 l 503 1164 l 617 1274 l 703 1274 l 558 1107 l 447 1107 l 303 1274 l 389 1274 z "},"Ņ":{"ha":1007,"x_min":107,"x_max":900,"o":"m 107 0 l 107 972 l 214 972 l 799 183 l 799 972 l 900 972 l 900 0 l 806 0 l 208 810 l 208 0 l 107 0 m 394 -367 l 451 -118 l 554 -118 l 471 -367 l 394 -367 z "},"Ñ":{"ha":1007,"x_min":107,"x_max":900,"o":"m 107 0 l 107 972 l 214 972 l 799 183 l 799 972 l 900 972 l 900 0 l 806 0 l 208 810 l 208 0 l 107 0 m 342 1103 l 269 1117 q 400 1256 300 1256 q 473 1237 438 1256 q 540 1199 508 1218 q 601 1179 572 1179 q 640 1197 625 1179 q 664 1258 654 1215 l 735 1244 q 688 1140 721 1175 q 604 1106 654 1106 q 533 1125 568 1106 q 465 1163 497 1144 q 403 1182 432 1182 q 364 1164 378 1182 q 342 1103 350 1146 z "},"Ŋ":{"ha":1007,"x_min":107,"x_max":900,"o":"m 722 -289 q 688 -286 708 -289 q 657 -281 668 -283 l 657 -194 q 710 -200 681 -200 q 778 -178 757 -200 q 799 -106 799 -156 l 799 0 l 208 801 l 208 0 l 107 0 l 107 972 l 207 972 l 799 172 l 799 972 l 900 972 l 900 -115 q 854 -244 900 -199 q 722 -289 808 -289 z "},"O":{"ha":1124,"x_min":61,"x_max":1063,"o":"m 563 -15 q 366 23 457 -15 q 206 130 275 61 q 99 290 138 199 q 61 486 61 381 q 99 683 61 592 q 206 842 138 774 q 366 949 275 911 q 563 988 457 988 q 758 949 667 988 q 917 842 849 911 q 1024 683 986 774 q 1063 486 1063 592 q 1024 290 1063 381 q 917 130 986 199 q 758 23 849 61 q 563 -15 667 -15 m 563 83 q 717 114 646 83 q 841 199 788 144 q 924 328 894 254 q 954 486 954 401 q 924 645 954 572 q 841 773 894 718 q 717 858 788 828 q 563 889 646 889 q 408 858 479 889 q 283 773 336 828 q 199 645 229 718 q 169 486 169 572 q 199 328 169 401 q 283 199 229 254 q 408 114 336 144 q 563 83 479 83 z "},"Ó":{"ha":1124,"x_min":61,"x_max":1063,"o":"m 563 -15 q 366 23 457 -15 q 206 130 275 61 q 99 290 138 199 q 61 486 61 381 q 99 683 61 592 q 206 842 138 774 q 366 949 275 911 q 563 988 457 988 q 758 949 667 988 q 917 842 849 911 q 1024 683 986 774 q 1063 486 1063 592 q 1024 290 1063 381 q 917 130 986 199 q 758 23 849 61 q 563 -15 667 -15 m 563 83 q 717 114 646 83 q 841 199 788 144 q 924 328 894 254 q 954 486 954 401 q 924 645 954 572 q 841 773 894 718 q 717 858 788 828 q 563 889 646 889 q 408 858 479 889 q 283 773 336 828 q 199 645 229 718 q 169 486 169 572 q 199 328 169 401 q 283 199 229 254 q 408 114 336 144 q 563 83 479 83 m 474 1110 l 604 1271 l 736 1271 l 564 1110 l 474 1110 z "},"Ŏ":{"ha":1124,"x_min":61,"x_max":1063,"o":"m 563 -15 q 366 23 457 -15 q 206 130 275 61 q 99 290 138 199 q 61 486 61 381 q 99 683 61 592 q 206 842 138 774 q 366 949 275 911 q 563 988 457 988 q 758 949 667 988 q 917 842 849 911 q 1024 683 986 774 q 1063 486 1063 592 q 1024 290 1063 381 q 917 130 986 199 q 758 23 849 61 q 563 -15 667 -15 m 563 83 q 717 114 646 83 q 841 199 788 144 q 924 328 894 254 q 954 486 954 401 q 924 645 954 572 q 841 773 894 718 q 717 858 788 828 q 563 889 646 889 q 408 858 479 889 q 283 773 336 828 q 199 645 229 718 q 169 486 169 572 q 199 328 169 401 q 283 199 229 254 q 408 114 336 144 q 563 83 479 83 m 563 1099 q 423 1144 479 1099 q 349 1269 367 1189 l 421 1288 q 563 1167 450 1167 q 652 1197 615 1167 q 704 1288 689 1228 l 776 1269 q 701 1144 758 1189 q 563 1099 644 1099 z "},"Ô":{"ha":1124,"x_min":61,"x_max":1063,"o":"m 563 -15 q 366 23 457 -15 q 206 130 275 61 q 99 290 138 199 q 61 486 61 381 q 99 683 61 592 q 206 842 138 774 q 366 949 275 911 q 563 988 457 988 q 758 949 667 988 q 917 842 849 911 q 1024 683 986 774 q 1063 486 1063 592 q 1024 290 1063 381 q 917 130 986 199 q 758 23 849 61 q 563 -15 667 -15 m 563 83 q 717 114 646 83 q 841 199 788 144 q 924 328 894 254 q 954 486 954 401 q 924 645 954 572 q 841 773 894 718 q 717 858 788 828 q 563 889 646 889 q 408 858 479 889 q 283 773 336 828 q 199 645 229 718 q 169 486 169 572 q 199 328 169 401 q 283 199 229 254 q 408 114 336 144 q 563 83 479 83 m 678 1104 l 561 1215 l 446 1104 l 363 1104 l 507 1272 l 618 1272 l 763 1104 l 678 1104 z "},"Ö":{"ha":1124,"x_min":61,"x_max":1063,"o":"m 563 -15 q 366 23 457 -15 q 206 130 275 61 q 99 290 138 199 q 61 486 61 381 q 99 683 61 592 q 206 842 138 774 q 366 949 275 911 q 563 988 457 988 q 758 949 667 988 q 917 842 849 911 q 1024 683 986 774 q 1063 486 1063 592 q 1024 290 1063 381 q 917 130 986 199 q 758 23 849 61 q 563 -15 667 -15 m 563 83 q 717 114 646 83 q 841 199 788 144 q 924 328 894 254 q 954 486 954 401 q 924 645 954 572 q 841 773 894 718 q 717 858 788 828 q 563 889 646 889 q 408 858 479 889 q 283 773 336 828 q 199 645 229 718 q 169 486 169 572 q 199 328 169 401 q 283 199 229 254 q 408 114 336 144 q 563 83 479 83 m 442 1125 q 392 1144 413 1125 q 372 1192 372 1164 q 392 1239 372 1219 q 442 1258 413 1258 q 491 1239 471 1258 q 511 1192 511 1219 q 491 1144 511 1164 q 442 1125 471 1125 m 683 1125 q 634 1144 654 1125 q 614 1192 614 1164 q 634 1239 614 1219 q 683 1258 654 1258 q 733 1239 713 1258 q 753 1192 753 1219 q 733 1144 753 1164 q 683 1125 713 1125 z "},"Ò":{"ha":1124,"x_min":61,"x_max":1063,"o":"m 563 -15 q 366 23 457 -15 q 206 130 275 61 q 99 290 138 199 q 61 486 61 381 q 99 683 61 592 q 206 842 138 774 q 366 949 275 911 q 563 988 457 988 q 758 949 667 988 q 917 842 849 911 q 1024 683 986 774 q 1063 486 1063 592 q 1024 290 1063 381 q 917 130 986 199 q 758 23 849 61 q 563 -15 667 -15 m 563 83 q 717 114 646 83 q 841 199 788 144 q 924 328 894 254 q 954 486 954 401 q 924 645 954 572 q 841 773 894 718 q 717 858 788 828 q 563 889 646 889 q 408 858 479 889 q 283 773 336 828 q 199 645 229 718 q 169 486 169 572 q 199 328 169 401 q 283 199 229 254 q 408 114 336 144 q 563 83 479 83 m 549 1110 l 378 1271 l 511 1271 l 639 1110 l 549 1110 z "},"Ő":{"ha":1124,"x_min":61,"x_max":1063,"o":"m 563 -15 q 366 23 457 -15 q 206 130 275 61 q 99 290 138 199 q 61 486 61 381 q 99 683 61 592 q 206 842 138 774 q 366 949 275 911 q 563 988 457 988 q 758 949 667 988 q 917 842 849 911 q 1024 683 986 774 q 1063 486 1063 592 q 1024 290 1063 381 q 917 130 986 199 q 758 23 849 61 q 563 -15 667 -15 m 563 83 q 717 114 646 83 q 841 199 788 144 q 924 328 894 254 q 954 486 954 401 q 924 645 954 572 q 841 773 894 718 q 717 858 788 828 q 563 889 646 889 q 408 858 479 889 q 283 773 336 828 q 199 645 229 718 q 169 486 169 572 q 199 328 169 401 q 283 199 229 254 q 408 114 336 144 q 563 83 479 83 m 400 1114 l 544 1271 l 664 1271 l 488 1114 l 400 1114 m 629 1114 l 774 1271 l 894 1271 l 714 1114 l 629 1114 z "},"Ō":{"ha":1124,"x_min":61,"x_max":1063,"o":"m 563 -15 q 366 23 457 -15 q 206 130 275 61 q 99 290 138 199 q 61 486 61 381 q 99 683 61 592 q 206 842 138 774 q 366 949 275 911 q 563 988 457 988 q 758 949 667 988 q 917 842 849 911 q 1024 683 986 774 q 1063 486 1063 592 q 1024 290 1063 381 q 917 130 986 199 q 758 23 849 61 q 563 -15 667 -15 m 563 83 q 717 114 646 83 q 841 199 788 144 q 924 328 894 254 q 954 486 954 401 q 924 645 954 572 q 841 773 894 718 q 717 858 788 828 q 563 889 646 889 q 408 858 479 889 q 283 773 336 828 q 199 645 229 718 q 169 486 169 572 q 199 328 169 401 q 283 199 229 254 q 408 114 336 144 q 563 83 479 83 m 365 1139 l 365 1213 l 760 1213 l 760 1139 l 365 1139 z "},"Ø":{"ha":1124,"x_min":61,"x_max":1063,"o":"m 563 -15 q 408 8 482 -15 q 272 75 333 32 l 210 0 l 100 0 l 207 129 q 100 289 139 197 q 61 486 61 381 q 99 683 61 592 q 206 842 138 774 q 366 949 275 911 q 563 988 457 988 q 714 965 642 988 q 846 901 786 942 l 904 972 l 1017 972 l 913 847 q 1022 686 982 779 q 1063 486 1063 593 q 1024 290 1063 381 q 917 130 986 199 q 758 23 849 61 q 563 -15 667 -15 m 274 210 l 781 824 q 679 872 735 856 q 563 889 624 889 q 408 858 479 889 q 283 773 336 828 q 199 645 229 718 q 169 486 169 572 q 197 334 169 406 q 274 210 225 263 m 563 83 q 717 114 646 83 q 841 199 788 144 q 924 328 894 254 q 954 486 954 401 q 926 642 954 569 q 847 767 897 714 l 338 153 q 442 102 385 121 q 563 83 499 83 z "},"Õ":{"ha":1124,"x_min":61,"x_max":1063,"o":"m 563 -15 q 366 23 457 -15 q 206 130 275 61 q 99 290 138 199 q 61 486 61 381 q 99 683 61 592 q 206 842 138 774 q 366 949 275 911 q 563 988 457 988 q 758 949 667 988 q 917 842 849 911 q 1024 683 986 774 q 1063 486 1063 592 q 1024 290 1063 381 q 917 130 986 199 q 758 23 849 61 q 563 -15 667 -15 m 563 83 q 717 114 646 83 q 841 199 788 144 q 924 328 894 254 q 954 486 954 401 q 924 645 954 572 q 841 773 894 718 q 717 858 788 828 q 563 889 646 889 q 408 858 479 889 q 283 773 336 828 q 199 645 229 718 q 169 486 169 572 q 199 328 169 401 q 283 199 229 254 q 408 114 336 144 q 563 83 479 83 m 401 1103 l 329 1117 q 460 1256 360 1256 q 533 1237 497 1256 q 600 1199 568 1218 q 661 1179 632 1179 q 699 1197 685 1179 q 724 1258 714 1215 l 794 1244 q 747 1140 781 1175 q 664 1106 714 1106 q 592 1125 628 1106 q 524 1163 557 1144 q 463 1182 492 1182 q 424 1164 438 1182 q 401 1103 410 1146 z "},"Œ":{"ha":1507,"x_min":63,"x_max":1458,"o":"m 547 0 q 358 38 446 0 q 203 142 269 75 q 100 297 138 208 q 63 486 63 385 q 100 676 63 588 q 203 831 138 764 q 358 935 269 897 q 547 972 446 972 l 1458 972 l 1458 878 l 826 878 q 965 733 911 822 q 1029 538 1018 643 l 1281 538 l 1281 444 l 1031 444 q 967 244 1021 336 q 828 94 914 153 l 1458 94 l 1458 0 l 547 0 m 547 97 q 695 127 626 97 q 815 210 764 157 q 895 333 867 263 q 924 486 924 404 q 895 639 924 568 q 815 763 867 710 q 695 845 764 815 q 547 875 626 875 q 400 845 468 875 q 280 763 332 815 q 199 639 228 710 q 171 486 171 568 q 199 333 171 404 q 280 210 228 263 q 400 127 332 157 q 547 97 468 97 z "},"P":{"ha":899,"x_min":107,"x_max":843,"o":"m 107 0 l 107 972 l 529 972 q 695 938 625 972 q 804 840 765 903 q 843 692 843 776 q 804 544 843 607 q 694 445 765 481 q 529 410 624 410 l 214 410 l 214 0 l 107 0 m 214 503 l 521 503 q 678 553 619 503 q 736 690 736 604 q 678 826 736 776 q 521 876 619 876 l 214 876 l 214 503 z "},"Þ":{"ha":885,"x_min":107,"x_max":831,"o":"m 107 0 l 107 972 l 214 972 l 214 776 l 532 776 q 685 738 618 776 q 792 635 753 700 q 831 485 831 569 q 792 338 831 403 q 685 235 753 272 q 532 197 618 197 l 214 197 l 214 0 l 107 0 m 214 290 l 521 290 q 624 316 578 290 q 696 385 669 342 q 722 485 722 429 q 696 586 722 542 q 624 656 669 631 q 521 681 578 682 l 214 681 l 214 290 z "},"Q":{"ha":1124,"x_min":61,"x_max":1063,"o":"m 896 -22 l 828 60 q 703 5 771 25 q 563 -15 636 -15 q 366 23 457 -15 q 206 130 275 61 q 99 290 138 199 q 61 486 61 381 q 99 683 61 592 q 206 842 138 774 q 366 949 275 911 q 563 988 457 988 q 758 949 667 988 q 917 842 849 911 q 1024 683 986 774 q 1063 486 1063 592 q 1019 281 1063 376 q 903 117 976 185 l 1006 -7 l 896 -22 m 563 83 q 668 97 618 83 q 761 138 718 111 l 622 303 l 732 319 l 836 194 q 923 325 892 250 q 954 486 954 400 q 924 645 954 572 q 841 773 894 718 q 717 858 788 828 q 563 889 646 889 q 408 858 479 889 q 283 773 336 828 q 199 645 229 718 q 169 486 169 572 q 199 328 169 401 q 283 199 229 254 q 408 114 336 144 q 563 83 479 83 z "},"R":{"ha":896,"x_min":107,"x_max":851,"o":"m 107 0 l 107 972 l 524 972 q 690 938 619 972 q 801 840 761 903 q 840 693 840 778 q 784 528 840 597 q 633 432 728 460 l 851 0 l 733 0 l 525 418 l 214 418 l 214 0 l 107 0 m 214 508 l 517 508 q 674 558 615 508 q 733 693 733 608 q 674 826 733 776 q 517 876 615 876 l 214 876 l 214 508 z "},"Ŕ":{"ha":896,"x_min":107,"x_max":851,"o":"m 107 0 l 107 972 l 524 972 q 690 938 619 972 q 801 840 761 903 q 840 693 840 778 q 784 528 840 597 q 633 432 728 460 l 851 0 l 733 0 l 525 418 l 214 418 l 214 0 l 107 0 m 214 508 l 517 508 q 674 558 615 508 q 733 693 733 608 q 674 826 733 776 q 517 876 615 876 l 214 876 l 214 508 m 351 1110 l 482 1271 l 614 1271 l 442 1110 l 351 1110 z "},"Ř":{"ha":896,"x_min":107,"x_max":851,"o":"m 107 0 l 107 972 l 524 972 q 690 938 619 972 q 801 840 761 903 q 840 693 840 778 q 784 528 840 597 q 633 432 728 460 l 851 0 l 733 0 l 525 418 l 214 418 l 214 0 l 107 0 m 214 508 l 517 508 q 674 558 615 508 q 733 693 733 608 q 674 826 733 776 q 517 876 615 876 l 214 876 l 214 508 m 326 1274 l 440 1164 l 554 1274 l 640 1274 l 496 1107 l 385 1107 l 240 1274 l 326 1274 z "},"Ŗ":{"ha":896,"x_min":107,"x_max":851,"o":"m 107 0 l 107 972 l 524 972 q 690 938 619 972 q 801 840 761 903 q 840 693 840 778 q 784 528 840 597 q 633 432 728 460 l 851 0 l 733 0 l 525 418 l 214 418 l 214 0 l 107 0 m 214 508 l 517 508 q 674 558 615 508 q 733 693 733 608 q 674 826 733 776 q 517 876 615 876 l 214 876 l 214 508 m 335 -367 l 392 -118 l 494 -118 l 411 -367 l 335 -367 z "},"S":{"ha":833,"x_min":15,"x_max":794,"o":"m 422 -14 q 201 33 307 -14 q 15 167 96 79 l 86 240 q 247 119 161 160 q 426 79 332 79 q 562 103 503 79 q 654 172 621 128 q 688 271 688 215 q 635 386 688 346 q 464 446 583 426 l 324 468 q 117 551 183 492 q 50 714 50 611 q 93 856 50 794 q 213 951 136 917 q 392 985 290 985 q 594 951 494 985 q 775 856 693 918 l 714 772 q 388 893 554 893 q 265 872 318 893 q 183 812 213 850 q 154 722 154 774 q 200 618 154 654 q 351 565 246 582 l 490 543 q 722 453 650 517 q 794 276 794 390 q 747 126 794 192 q 616 23 700 60 q 422 -14 532 -14 z "},"Ś":{"ha":833,"x_min":15,"x_max":794,"o":"m 422 -14 q 201 33 307 -14 q 15 167 96 79 l 86 240 q 247 119 161 160 q 426 79 332 79 q 562 103 503 79 q 654 172 621 128 q 688 271 688 215 q 635 386 688 346 q 464 446 583 426 l 324 468 q 117 551 183 492 q 50 714 50 611 q 93 856 50 794 q 213 951 136 917 q 392 985 290 985 q 594 951 494 985 q 775 856 693 918 l 714 772 q 388 893 554 893 q 265 872 318 893 q 183 812 213 850 q 154 722 154 774 q 200 618 154 654 q 351 565 246 582 l 490 543 q 722 453 650 517 q 794 276 794 390 q 747 126 794 192 q 616 23 700 60 q 422 -14 532 -14 m 301 1113 l 432 1274 l 564 1274 l 392 1113 l 301 1113 z "},"Š":{"ha":833,"x_min":15,"x_max":794,"o":"m 422 -14 q 201 33 307 -14 q 15 167 96 79 l 86 240 q 247 119 161 160 q 426 79 332 79 q 562 103 503 79 q 654 172 621 128 q 688 271 688 215 q 635 386 688 346 q 464 446 583 426 l 324 468 q 117 551 183 492 q 50 714 50 611 q 93 856 50 794 q 213 951 136 917 q 392 985 290 985 q 594 951 494 985 q 775 856 693 918 l 714 772 q 388 893 554 893 q 265 872 318 893 q 183 812 213 850 q 154 722 154 774 q 200 618 154 654 q 351 565 246 582 l 490 543 q 722 453 650 517 q 794 276 794 390 q 747 126 794 192 q 616 23 700 60 q 422 -14 532 -14 m 276 1276 l 390 1167 l 504 1276 l 590 1276 l 446 1110 l 335 1110 l 190 1276 l 276 1276 z "},"Ş":{"ha":833,"x_min":15,"x_max":794,"o":"m 381 -314 q 224 -257 285 -314 l 265 -212 q 381 -257 318 -257 q 446 -238 422 -257 q 469 -189 469 -219 q 444 -141 469 -158 q 374 -124 418 -124 l 333 -124 l 365 -11 q 175 45 265 0 q 15 167 85 90 l 86 240 q 247 119 161 160 q 426 79 332 79 q 562 103 503 79 q 654 172 621 128 q 688 271 688 215 q 635 386 688 346 q 464 446 583 426 l 324 468 q 117 551 183 492 q 50 714 50 611 q 93 856 50 794 q 213 951 136 917 q 392 985 290 985 q 594 951 494 985 q 775 856 693 918 l 714 772 q 388 893 554 893 q 265 872 318 893 q 183 812 213 850 q 154 722 154 774 q 200 618 154 654 q 351 565 246 582 l 490 543 q 722 453 650 517 q 794 276 794 390 q 747 126 794 192 q 617 23 700 60 q 425 -14 533 -14 l 408 -74 q 505 -107 469 -76 q 540 -187 540 -137 q 495 -278 540 -243 q 381 -314 450 -314 z "},"Ŝ":{"ha":833,"x_min":15,"x_max":794,"o":"m 422 -14 q 201 33 307 -14 q 15 167 96 79 l 86 240 q 247 119 161 160 q 426 79 332 79 q 562 103 503 79 q 654 172 621 128 q 688 271 688 215 q 635 386 688 346 q 464 446 583 426 l 324 468 q 117 551 183 492 q 50 714 50 611 q 93 856 50 794 q 213 951 136 917 q 392 985 290 985 q 594 951 494 985 q 775 856 693 918 l 714 772 q 388 893 554 893 q 265 872 318 893 q 183 812 213 850 q 154 722 154 774 q 200 618 154 654 q 351 565 246 582 l 490 543 q 722 453 650 517 q 794 276 794 390 q 747 126 794 192 q 616 23 700 60 q 422 -14 532 -14 m 506 1107 l 389 1218 l 274 1107 l 190 1107 l 335 1275 l 446 1275 l 590 1107 l 506 1107 z "},"Ș":{"ha":833,"x_min":15,"x_max":794,"o":"m 422 -14 q 201 33 307 -14 q 15 167 96 79 l 86 240 q 247 119 161 160 q 426 79 332 79 q 562 103 503 79 q 654 172 621 128 q 688 271 688 215 q 635 386 688 346 q 464 446 583 426 l 324 468 q 117 551 183 492 q 50 714 50 611 q 93 856 50 794 q 213 951 136 917 q 392 985 290 985 q 594 951 494 985 q 775 856 693 918 l 714 772 q 388 893 554 893 q 265 872 318 893 q 183 812 213 850 q 154 722 154 774 q 200 618 154 654 q 351 565 246 582 l 490 543 q 722 453 650 517 q 794 276 794 390 q 747 126 794 192 q 616 23 700 60 q 422 -14 532 -14 m 292 -364 l 349 -115 l 451 -115 l 368 -364 l 292 -364 z "},"ẞ":{"ha":875,"x_min":107,"x_max":814,"o":"m 549 -15 q 418 8 483 -15 q 303 71 353 31 l 361 164 q 453 104 406 125 q 547 83 501 83 q 628 101 592 83 q 685 148 664 118 q 706 214 706 178 q 694 284 706 256 q 656 336 683 313 q 576 386 628 360 q 481 443 515 419 q 433 490 447 467 q 419 542 419 514 q 432 597 419 571 q 483 674 444 622 l 638 876 l 214 876 l 214 0 l 107 0 l 107 972 l 747 972 l 747 849 l 579 636 q 549 597 561 614 q 533 568 538 581 q 528 546 528 556 q 536 524 528 533 q 572 499 544 514 q 656 454 599 483 q 774 358 735 415 q 814 222 814 300 q 778 103 814 157 q 681 17 742 49 q 549 -15 621 -15 z "},"T":{"ha":857,"x_min":24,"x_max":833,"o":"m 375 0 l 375 876 l 24 876 l 24 972 l 833 972 l 833 876 l 482 876 l 482 0 l 375 0 z "},"Ŧ":{"ha":857,"x_min":24,"x_max":833,"o":"m 375 0 l 375 425 l 168 425 l 168 517 l 375 517 l 375 876 l 24 876 l 24 972 l 833 972 l 833 876 l 482 876 l 482 517 l 689 517 l 689 425 l 482 425 l 482 0 l 375 0 z "},"Ť":{"ha":857,"x_min":24,"x_max":833,"o":"m 375 0 l 375 876 l 24 876 l 24 972 l 833 972 l 833 876 l 482 876 l 482 0 l 375 0 m 314 1274 l 428 1164 l 542 1274 l 628 1274 l 483 1107 l 372 1107 l 228 1274 l 314 1274 z "},"Ţ":{"ha":857,"x_min":24,"x_max":833,"o":"m 410 -317 q 253 -260 314 -317 l 294 -215 q 410 -260 347 -260 q 475 -241 451 -260 q 499 -192 499 -222 q 473 -144 499 -161 q 403 -126 447 -126 l 363 -126 l 399 0 l 375 0 l 375 876 l 24 876 l 24 972 l 833 972 l 833 876 l 482 876 l 482 0 l 458 0 l 438 -76 q 534 -110 499 -79 q 569 -190 569 -140 q 524 -281 569 -246 q 410 -317 479 -317 z "},"Ț":{"ha":857,"x_min":24,"x_max":833,"o":"m 375 0 l 375 876 l 24 876 l 24 972 l 833 972 l 833 876 l 482 876 l 482 0 l 375 0 m 319 -367 l 376 -118 l 479 -118 l 396 -367 l 319 -367 z "},"U":{"ha":978,"x_min":88,"x_max":890,"o":"m 489 -15 q 275 37 365 -15 q 136 185 185 89 q 88 411 88 281 l 88 972 l 194 972 l 194 411 q 231 238 194 311 q 333 124 267 164 q 489 83 400 83 q 645 124 579 83 q 747 238 711 164 q 783 411 783 311 l 783 972 l 890 972 l 890 411 q 841 185 890 281 q 702 37 792 89 q 489 -15 613 -15 z "},"Ú":{"ha":978,"x_min":88,"x_max":890,"o":"m 489 -15 q 275 37 365 -15 q 136 185 185 89 q 88 411 88 281 l 88 972 l 194 972 l 194 411 q 231 238 194 311 q 333 124 267 164 q 489 83 400 83 q 645 124 579 83 q 747 238 711 164 q 783 411 783 311 l 783 972 l 890 972 l 890 411 q 841 185 890 281 q 702 37 792 89 q 489 -15 613 -15 m 400 1110 l 531 1271 l 663 1271 l 490 1110 l 400 1110 z "},"Ŭ":{"ha":978,"x_min":88,"x_max":890,"o":"m 489 -15 q 275 37 365 -15 q 136 185 185 89 q 88 411 88 281 l 88 972 l 194 972 l 194 411 q 231 238 194 311 q 333 124 267 164 q 489 83 400 83 q 645 124 579 83 q 747 238 711 164 q 783 411 783 311 l 783 972 l 890 972 l 890 411 q 841 185 890 281 q 702 37 792 89 q 489 -15 613 -15 m 489 1099 q 349 1144 406 1099 q 275 1269 293 1189 l 347 1288 q 489 1167 376 1167 q 578 1197 542 1167 q 631 1288 615 1228 l 703 1269 q 628 1144 685 1189 q 489 1099 571 1099 z "},"Û":{"ha":978,"x_min":88,"x_max":890,"o":"m 489 -15 q 275 37 365 -15 q 136 185 185 89 q 88 411 88 281 l 88 972 l 194 972 l 194 411 q 231 238 194 311 q 333 124 267 164 q 489 83 400 83 q 645 124 579 83 q 747 238 711 164 q 783 411 783 311 l 783 972 l 890 972 l 890 411 q 841 185 890 281 q 702 37 792 89 q 489 -15 613 -15 m 604 1104 l 488 1215 l 372 1104 l 289 1104 l 433 1272 l 544 1272 l 689 1104 l 604 1104 z "},"Ü":{"ha":978,"x_min":88,"x_max":890,"o":"m 489 -15 q 275 37 365 -15 q 136 185 185 89 q 88 411 88 281 l 88 972 l 194 972 l 194 411 q 231 238 194 311 q 333 124 267 164 q 489 83 400 83 q 645 124 579 83 q 747 238 711 164 q 783 411 783 311 l 783 972 l 890 972 l 890 411 q 841 185 890 281 q 702 37 792 89 q 489 -15 613 -15 m 368 1125 q 319 1144 339 1125 q 299 1192 299 1164 q 319 1239 299 1219 q 368 1258 339 1258 q 417 1239 397 1258 q 438 1192 438 1219 q 417 1144 438 1164 q 368 1125 397 1125 m 610 1125 q 560 1144 581 1125 q 540 1192 540 1164 q 560 1239 540 1219 q 610 1258 581 1258 q 659 1239 639 1258 q 679 1192 679 1219 q 659 1144 679 1164 q 610 1125 639 1125 z "},"Ù":{"ha":978,"x_min":88,"x_max":890,"o":"m 489 -15 q 275 37 365 -15 q 136 185 185 89 q 88 411 88 281 l 88 972 l 194 972 l 194 411 q 231 238 194 311 q 333 124 267 164 q 489 83 400 83 q 645 124 579 83 q 747 238 711 164 q 783 411 783 311 l 783 972 l 890 972 l 890 411 q 841 185 890 281 q 702 37 792 89 q 489 -15 613 -15 m 475 1110 l 304 1271 l 438 1271 l 565 1110 l 475 1110 z "},"Ű":{"ha":978,"x_min":88,"x_max":890,"o":"m 489 -15 q 275 37 365 -15 q 136 185 185 89 q 88 411 88 281 l 88 972 l 194 972 l 194 411 q 231 238 194 311 q 333 124 267 164 q 489 83 400 83 q 645 124 579 83 q 747 238 711 164 q 783 411 783 311 l 783 972 l 890 972 l 890 411 q 841 185 890 281 q 702 37 792 89 q 489 -15 613 -15 m 326 1114 l 471 1271 l 590 1271 l 414 1114 l 326 1114 m 556 1114 l 700 1271 l 821 1271 l 640 1114 l 556 1114 z "},"Ū":{"ha":978,"x_min":88,"x_max":890,"o":"m 489 -15 q 275 37 365 -15 q 136 185 185 89 q 88 411 88 281 l 88 972 l 194 972 l 194 411 q 231 238 194 311 q 333 124 267 164 q 489 83 400 83 q 645 124 579 83 q 747 238 711 164 q 783 411 783 311 l 783 972 l 890 972 l 890 411 q 841 185 890 281 q 702 37 792 89 q 489 -15 613 -15 m 292 1139 l 292 1213 l 686 1213 l 686 1139 l 292 1139 z "},"Ų":{"ha":978,"x_min":88,"x_max":890,"o":"m 519 -307 q 421 -274 458 -307 q 383 -187 383 -242 q 411 -102 383 -143 q 501 -15 439 -61 q 283 34 376 -17 q 139 181 190 85 q 88 411 88 276 l 88 972 l 194 972 l 194 411 q 231 238 194 311 q 333 124 267 164 q 489 83 400 83 q 645 124 579 83 q 747 238 711 164 q 783 411 783 311 l 783 972 l 890 972 l 890 411 q 812 137 890 246 q 596 -4 733 28 q 489 -91 524 -51 q 454 -171 454 -131 q 475 -224 454 -206 q 535 -243 496 -243 q 570 -238 553 -243 q 601 -224 588 -233 l 622 -278 q 574 -299 600 -292 q 519 -307 549 -307 z "},"Ů":{"ha":978,"x_min":88,"x_max":890,"o":"m 489 -15 q 275 37 365 -15 q 136 185 185 89 q 88 411 88 281 l 88 972 l 194 972 l 194 411 q 231 238 194 311 q 333 124 267 164 q 489 83 400 83 q 645 124 579 83 q 747 238 711 164 q 783 411 783 311 l 783 972 l 890 972 l 890 411 q 841 185 890 281 q 702 37 792 89 q 489 -15 613 -15 m 489 1086 q 410 1107 446 1086 q 354 1163 375 1128 q 333 1240 333 1199 q 354 1318 333 1283 q 410 1374 375 1353 q 489 1394 446 1394 q 567 1374 532 1394 q 624 1318 603 1353 q 644 1240 644 1283 q 624 1163 644 1199 q 567 1107 603 1128 q 489 1086 532 1086 m 489 1143 q 558 1172 529 1143 q 586 1240 586 1200 q 558 1309 586 1281 q 489 1338 529 1338 q 420 1309 449 1338 q 392 1240 392 1281 q 420 1172 392 1200 q 489 1143 449 1143 z "},"Ũ":{"ha":978,"x_min":88,"x_max":890,"o":"m 489 -15 q 275 37 365 -15 q 136 185 185 89 q 88 411 88 281 l 88 972 l 194 972 l 194 411 q 231 238 194 311 q 333 124 267 164 q 489 83 400 83 q 645 124 579 83 q 747 238 711 164 q 783 411 783 311 l 783 972 l 890 972 l 890 411 q 841 185 890 281 q 702 37 792 89 q 489 -15 613 -15 m 328 1103 l 256 1117 q 386 1256 286 1256 q 459 1237 424 1256 q 526 1199 494 1218 q 588 1179 558 1179 q 626 1197 611 1179 q 650 1258 640 1215 l 721 1244 q 674 1140 707 1175 q 590 1106 640 1106 q 519 1125 554 1106 q 451 1163 483 1144 q 389 1182 418 1182 q 350 1164 364 1182 q 328 1103 336 1146 z "},"V":{"ha":943,"x_min":6,"x_max":938,"o":"m 404 0 l 6 972 l 121 972 l 472 100 l 829 972 l 938 972 l 533 0 l 404 0 z "},"W":{"ha":1225,"x_min":49,"x_max":1178,"o":"m 258 0 l 49 972 l 157 972 l 322 169 l 563 972 l 667 972 l 907 172 l 1074 972 l 1178 972 l 968 0 l 860 0 l 614 824 l 367 0 l 258 0 z "},"Ẃ":{"ha":1225,"x_min":49,"x_max":1178,"o":"m 258 0 l 49 972 l 157 972 l 322 169 l 563 972 l 667 972 l 907 172 l 1074 972 l 1178 972 l 968 0 l 860 0 l 614 824 l 367 0 l 258 0 m 521 1110 l 651 1271 l 783 1271 l 611 1110 l 521 1110 z "},"Ŵ":{"ha":1225,"x_min":49,"x_max":1178,"o":"m 258 0 l 49 972 l 157 972 l 322 169 l 563 972 l 667 972 l 907 172 l 1074 972 l 1178 972 l 968 0 l 860 0 l 614 824 l 367 0 l 258 0 m 725 1104 l 608 1215 l 493 1104 l 410 1104 l 554 1272 l 665 1272 l 810 1104 l 725 1104 z "},"Ẅ":{"ha":1225,"x_min":49,"x_max":1178,"o":"m 258 0 l 49 972 l 157 972 l 322 169 l 563 972 l 667 972 l 907 172 l 1074 972 l 1178 972 l 968 0 l 860 0 l 614 824 l 367 0 l 258 0 m 489 1125 q 440 1144 460 1125 q 419 1192 419 1164 q 440 1239 419 1219 q 489 1258 460 1258 q 538 1239 518 1258 q 558 1192 558 1219 q 538 1144 558 1164 q 489 1125 518 1125 m 731 1125 q 681 1144 701 1125 q 661 1192 661 1164 q 681 1239 661 1219 q 731 1258 701 1258 q 780 1239 760 1258 q 800 1192 800 1219 q 780 1144 800 1164 q 731 1125 760 1125 z "},"Ẁ":{"ha":1225,"x_min":49,"x_max":1178,"o":"m 258 0 l 49 972 l 157 972 l 322 169 l 563 972 l 667 972 l 907 172 l 1074 972 l 1178 972 l 968 0 l 860 0 l 614 824 l 367 0 l 258 0 m 596 1110 l 425 1271 l 558 1271 l 686 1110 l 596 1110 z "},"X":{"ha":886,"x_min":4,"x_max":882,"o":"m 4 0 l 379 504 l 28 972 l 158 972 l 443 586 l 728 972 l 853 972 l 506 506 l 882 0 l 753 0 l 442 424 l 129 0 l 4 0 z "},"Y":{"ha":888,"x_min":4,"x_max":885,"o":"m 390 0 l 390 396 l 4 972 l 129 972 l 447 490 l 764 972 l 885 972 l 497 392 l 497 0 l 390 0 z "},"Ý":{"ha":888,"x_min":4,"x_max":885,"o":"m 390 0 l 390 396 l 4 972 l 129 972 l 447 490 l 764 972 l 885 972 l 497 392 l 497 0 l 390 0 m 356 1110 l 486 1271 l 618 1271 l 446 1110 l 356 1110 z "},"Ŷ":{"ha":888,"x_min":4,"x_max":885,"o":"m 390 0 l 390 396 l 4 972 l 129 972 l 447 490 l 764 972 l 885 972 l 497 392 l 497 0 l 390 0 m 560 1104 l 443 1215 l 328 1104 l 244 1104 l 389 1272 l 500 1272 l 644 1104 l 560 1104 z "},"Ÿ":{"ha":888,"x_min":4,"x_max":885,"o":"m 390 0 l 390 396 l 4 972 l 129 972 l 447 490 l 764 972 l 885 972 l 497 392 l 497 0 l 390 0 m 324 1125 q 274 1144 294 1125 q 254 1192 254 1164 q 274 1239 254 1219 q 324 1258 294 1258 q 373 1239 353 1258 q 393 1192 393 1219 q 373 1144 393 1164 q 324 1125 353 1125 m 565 1125 q 516 1144 536 1125 q 496 1192 496 1164 q 516 1239 496 1219 q 565 1258 536 1258 q 615 1239 594 1258 q 635 1192 635 1219 q 615 1144 635 1164 q 565 1125 594 1125 z "},"Ỳ":{"ha":888,"x_min":4,"x_max":885,"o":"m 390 0 l 390 396 l 4 972 l 129 972 l 447 490 l 764 972 l 885 972 l 497 392 l 497 0 l 390 0 m 431 1110 l 260 1271 l 393 1271 l 521 1110 l 431 1110 z "},"Z":{"ha":839,"x_min":33,"x_max":803,"o":"m 33 0 l 33 76 l 651 878 l 39 878 l 39 972 l 792 972 l 792 896 l 171 94 l 803 94 l 803 0 l 33 0 z "},"Ź":{"ha":839,"x_min":33,"x_max":803,"o":"m 33 0 l 33 76 l 651 878 l 39 878 l 39 972 l 792 972 l 792 896 l 171 94 l 803 94 l 803 0 l 33 0 m 339 1110 l 469 1271 l 601 1271 l 429 1110 l 339 1110 z "},"Ž":{"ha":839,"x_min":33,"x_max":803,"o":"m 33 0 l 33 76 l 651 878 l 39 878 l 39 972 l 792 972 l 792 896 l 171 94 l 803 94 l 803 0 l 33 0 m 314 1274 l 428 1164 l 542 1274 l 628 1274 l 483 1107 l 372 1107 l 228 1274 l 314 1274 z "},"Ż":{"ha":839,"x_min":33,"x_max":803,"o":"m 33 0 l 33 76 l 651 878 l 39 878 l 39 972 l 792 972 l 792 896 l 171 94 l 803 94 l 803 0 l 33 0 m 428 1113 q 380 1133 400 1113 q 360 1181 360 1153 q 380 1228 360 1208 q 428 1249 400 1249 q 476 1228 456 1249 q 496 1181 496 1208 q 476 1133 496 1153 q 428 1113 456 1113 z "},"a":{"ha":717,"x_min":50,"x_max":632,"o":"m 307 -12 q 173 14 231 -12 q 83 88 115 40 q 50 197 50 135 q 125 353 50 296 q 328 410 200 410 q 532 363 440 410 l 532 454 q 485 580 532 538 q 347 622 438 622 q 244 608 296 622 q 129 561 192 593 l 90 640 q 229 693 165 676 q 357 710 293 710 q 560 647 489 710 q 632 468 632 585 l 632 0 l 532 0 l 532 68 q 428 8 485 28 q 307 -12 372 -12 m 149 200 q 198 105 149 142 q 325 68 247 68 q 439 88 388 68 q 532 149 490 107 l 532 279 q 440 322 489 308 q 331 335 392 335 q 198 298 247 335 q 149 200 149 261 z "},"á":{"ha":717,"x_min":50,"x_max":632,"o":"m 307 -12 q 173 14 231 -12 q 83 88 115 40 q 50 197 50 135 q 125 353 50 296 q 328 410 200 410 q 532 363 440 410 l 532 454 q 485 580 532 538 q 347 622 438 622 q 244 608 296 622 q 129 561 192 593 l 90 640 q 229 693 165 676 q 357 710 293 710 q 560 647 489 710 q 632 468 632 585 l 632 0 l 532 0 l 532 68 q 428 8 485 28 q 307 -12 372 -12 m 149 200 q 198 105 149 142 q 325 68 247 68 q 439 88 388 68 q 532 149 490 107 l 532 279 q 440 322 489 308 q 331 335 392 335 q 198 298 247 335 q 149 200 149 261 m 257 833 l 388 994 l 519 994 l 347 833 l 257 833 z "},"ă":{"ha":717,"x_min":50,"x_max":632,"o":"m 307 -12 q 173 14 231 -12 q 83 88 115 40 q 50 197 50 135 q 125 353 50 296 q 328 410 200 410 q 532 363 440 410 l 532 454 q 485 580 532 538 q 347 622 438 622 q 244 608 296 622 q 129 561 192 593 l 90 640 q 229 693 165 676 q 357 710 293 710 q 560 647 489 710 q 632 468 632 585 l 632 0 l 532 0 l 532 68 q 428 8 485 28 q 307 -12 372 -12 m 149 200 q 198 105 149 142 q 325 68 247 68 q 439 88 388 68 q 532 149 490 107 l 532 279 q 440 322 489 308 q 331 335 392 335 q 198 298 247 335 q 149 200 149 261 m 346 822 q 206 867 263 822 q 132 993 150 913 l 204 1011 q 346 890 233 890 q 435 921 399 890 q 488 1011 472 951 l 560 993 q 485 867 542 913 q 346 822 428 822 z "},"â":{"ha":717,"x_min":50,"x_max":632,"o":"m 307 -12 q 173 14 231 -12 q 83 88 115 40 q 50 197 50 135 q 125 353 50 296 q 328 410 200 410 q 532 363 440 410 l 532 454 q 485 580 532 538 q 347 622 438 622 q 244 608 296 622 q 129 561 192 593 l 90 640 q 229 693 165 676 q 357 710 293 710 q 560 647 489 710 q 632 468 632 585 l 632 0 l 532 0 l 532 68 q 428 8 485 28 q 307 -12 372 -12 m 149 200 q 198 105 149 142 q 325 68 247 68 q 439 88 388 68 q 532 149 490 107 l 532 279 q 440 322 489 308 q 331 335 392 335 q 198 298 247 335 q 149 200 149 261 m 461 828 l 344 939 l 229 828 l 146 828 l 290 996 l 401 996 l 546 828 l 461 828 z "},"ä":{"ha":717,"x_min":50,"x_max":632,"o":"m 307 -12 q 173 14 231 -12 q 83 88 115 40 q 50 197 50 135 q 125 353 50 296 q 328 410 200 410 q 532 363 440 410 l 532 454 q 485 580 532 538 q 347 622 438 622 q 244 608 296 622 q 129 561 192 593 l 90 640 q 229 693 165 676 q 357 710 293 710 q 560 647 489 710 q 632 468 632 585 l 632 0 l 532 0 l 532 68 q 428 8 485 28 q 307 -12 372 -12 m 149 200 q 198 105 149 142 q 325 68 247 68 q 439 88 388 68 q 532 149 490 107 l 532 279 q 440 322 489 308 q 331 335 392 335 q 198 298 247 335 q 149 200 149 261 m 225 849 q 176 868 196 849 q 156 915 156 888 q 176 963 156 943 q 225 982 196 982 q 274 963 254 982 q 294 915 294 943 q 274 868 294 888 q 225 849 254 849 m 467 849 q 417 868 438 849 q 397 915 397 888 q 417 963 397 943 q 467 982 438 982 q 516 963 496 982 q 536 915 536 943 q 516 868 536 888 q 467 849 496 849 z "},"à":{"ha":717,"x_min":50,"x_max":632,"o":"m 307 -12 q 173 14 231 -12 q 83 88 115 40 q 50 197 50 135 q 125 353 50 296 q 328 410 200 410 q 532 363 440 410 l 532 454 q 485 580 532 538 q 347 622 438 622 q 244 608 296 622 q 129 561 192 593 l 90 640 q 229 693 165 676 q 357 710 293 710 q 560 647 489 710 q 632 468 632 585 l 632 0 l 532 0 l 532 68 q 428 8 485 28 q 307 -12 372 -12 m 149 200 q 198 105 149 142 q 325 68 247 68 q 439 88 388 68 q 532 149 490 107 l 532 279 q 440 322 489 308 q 331 335 392 335 q 198 298 247 335 q 149 200 149 261 m 332 833 l 161 994 l 294 994 l 422 833 l 332 833 z "},"ā":{"ha":717,"x_min":50,"x_max":632,"o":"m 307 -12 q 173 14 231 -12 q 83 88 115 40 q 50 197 50 135 q 125 353 50 296 q 328 410 200 410 q 532 363 440 410 l 532 454 q 485 580 532 538 q 347 622 438 622 q 244 608 296 622 q 129 561 192 593 l 90 640 q 229 693 165 676 q 357 710 293 710 q 560 647 489 710 q 632 468 632 585 l 632 0 l 532 0 l 532 68 q 428 8 485 28 q 307 -12 372 -12 m 149 200 q 198 105 149 142 q 325 68 247 68 q 439 88 388 68 q 532 149 490 107 l 532 279 q 440 322 489 308 q 331 335 392 335 q 198 298 247 335 q 149 200 149 261 m 149 863 l 149 936 l 543 936 l 543 863 l 149 863 z "},"ą":{"ha":717,"x_min":50,"x_max":654,"o":"m 551 -307 q 453 -274 490 -307 q 415 -187 415 -242 q 448 -94 415 -139 q 553 0 481 -50 l 532 0 l 532 68 q 428 8 485 28 q 307 -12 372 -12 q 173 14 231 -12 q 83 88 115 40 q 50 197 50 135 q 125 353 50 296 q 328 410 200 410 q 532 363 440 410 l 532 454 q 485 580 532 538 q 347 622 438 622 q 244 608 296 622 q 129 561 192 593 l 90 640 q 229 693 165 676 q 357 710 293 710 q 560 647 489 710 q 632 468 632 585 l 632 0 q 521 -89 556 -47 q 486 -171 486 -131 q 507 -224 486 -206 q 567 -243 528 -243 q 602 -238 585 -243 q 633 -224 619 -233 l 654 -278 q 606 -299 632 -292 q 551 -307 581 -307 m 325 68 q 439 88 388 68 q 532 149 490 107 l 532 279 q 440 322 489 308 q 331 335 392 335 q 198 298 247 335 q 149 200 149 261 q 198 105 149 142 q 325 68 247 68 z "},"å":{"ha":717,"x_min":50,"x_max":632,"o":"m 307 -12 q 173 14 231 -12 q 83 88 115 40 q 50 197 50 135 q 125 353 50 296 q 328 410 200 410 q 532 363 440 410 l 532 454 q 485 580 532 538 q 347 622 438 622 q 244 608 296 622 q 129 561 192 593 l 90 640 q 229 693 165 676 q 357 710 293 710 q 560 647 489 710 q 632 468 632 585 l 632 0 l 532 0 l 532 68 q 428 8 485 28 q 307 -12 372 -12 m 149 200 q 198 105 149 142 q 325 68 247 68 q 439 88 388 68 q 532 149 490 107 l 532 279 q 440 322 489 308 q 331 335 392 335 q 198 298 247 335 q 149 200 149 261 m 346 810 q 267 831 303 810 q 211 887 232 851 q 190 964 190 922 q 211 1042 190 1007 q 267 1097 232 1076 q 346 1118 303 1118 q 424 1097 389 1118 q 481 1042 460 1076 q 501 964 501 1007 q 481 887 501 922 q 424 831 460 851 q 346 810 389 810 m 346 867 q 415 895 386 867 q 443 964 443 924 q 415 1033 443 1004 q 346 1061 386 1061 q 277 1033 306 1061 q 249 964 249 1004 q 277 895 249 924 q 346 867 306 867 z "},"ã":{"ha":717,"x_min":50,"x_max":632,"o":"m 307 -12 q 173 14 231 -12 q 83 88 115 40 q 50 197 50 135 q 125 353 50 296 q 328 410 200 410 q 532 363 440 410 l 532 454 q 485 580 532 538 q 347 622 438 622 q 244 608 296 622 q 129 561 192 593 l 90 640 q 229 693 165 676 q 357 710 293 710 q 560 647 489 710 q 632 468 632 585 l 632 0 l 532 0 l 532 68 q 428 8 485 28 q 307 -12 372 -12 m 149 200 q 198 105 149 142 q 325 68 247 68 q 439 88 388 68 q 532 149 490 107 l 532 279 q 440 322 489 308 q 331 335 392 335 q 198 298 247 335 q 149 200 149 261 m 185 826 l 113 840 q 243 979 143 979 q 316 960 281 979 q 383 922 351 942 q 444 903 415 903 q 483 921 468 903 q 507 982 497 939 l 578 968 q 531 864 564 899 q 447 829 497 829 q 376 849 411 829 q 308 887 340 868 q 246 906 275 906 q 207 888 221 906 q 185 826 193 869 z "},"æ":{"ha":1260,"x_min":51,"x_max":1204,"o":"m 307 -12 q 173 14 231 -12 q 83 88 115 40 q 51 197 51 135 q 128 352 51 294 q 332 410 204 410 q 532 365 443 410 l 532 454 q 485 580 532 538 q 347 622 438 622 q 244 608 296 622 q 129 561 192 593 l 90 640 q 229 693 165 676 q 357 710 293 710 q 520 675 456 710 q 611 574 585 640 q 726 672 657 636 q 875 707 794 707 q 1042 659 968 707 q 1160 530 1117 611 q 1204 349 1204 449 l 1204 317 l 633 317 q 677 194 642 249 q 769 109 713 140 q 894 78 826 78 q 1000 94 949 78 q 1086 142 1051 111 l 1150 74 q 1028 9 1092 31 q 890 -12 965 -12 q 727 26 801 -12 q 604 128 653 64 q 472 24 547 60 q 307 -12 397 -12 m 636 399 l 1101 399 q 1060 510 1093 461 q 979 588 1028 560 q 872 617 931 617 q 763 589 813 617 q 679 512 713 561 q 636 399 646 463 m 325 68 q 457 99 397 68 q 567 190 517 129 q 550 233 557 211 q 538 279 543 256 q 445 322 494 308 q 335 335 396 335 q 201 298 251 335 q 150 200 150 261 q 199 105 150 142 q 325 68 249 68 z "},"b":{"ha":819,"x_min":88,"x_max":764,"o":"m 88 0 l 88 972 l 190 996 l 190 622 q 414 707 279 707 q 592 659 513 707 q 717 531 671 611 q 764 349 764 450 q 717 166 764 247 q 592 37 671 85 q 413 -11 513 -11 q 294 10 351 -11 q 189 69 236 31 l 189 0 l 88 0 m 404 79 q 536 115 478 79 q 628 210 594 150 q 663 347 663 271 q 628 485 663 424 q 536 581 594 546 q 404 617 478 617 q 283 591 339 617 q 190 519 226 565 l 190 175 q 283 105 226 131 q 404 79 340 79 z "},"c":{"ha":713,"x_min":56,"x_max":682,"o":"m 410 -12 q 231 35 311 -12 q 103 165 150 83 q 56 349 56 247 q 103 531 56 450 q 231 661 150 613 q 410 710 311 710 q 557 681 486 710 q 682 600 628 653 l 617 525 q 522 592 575 569 q 411 615 468 615 q 283 580 340 615 q 191 484 225 544 q 157 349 157 424 q 191 213 157 274 q 283 116 225 151 q 413 81 342 81 q 520 103 469 81 q 615 168 571 125 l 679 99 q 554 17 624 46 q 410 -12 485 -12 z "},"ć":{"ha":713,"x_min":56,"x_max":682,"o":"m 410 -12 q 231 35 311 -12 q 103 165 150 83 q 56 349 56 247 q 103 531 56 450 q 231 661 150 613 q 410 710 311 710 q 557 681 486 710 q 682 600 628 653 l 617 525 q 522 592 575 569 q 411 615 468 615 q 283 580 340 615 q 191 484 225 544 q 157 349 157 424 q 191 213 157 274 q 283 116 225 151 q 413 81 342 81 q 520 103 469 81 q 615 168 571 125 l 679 99 q 554 17 624 46 q 410 -12 485 -12 m 319 833 l 450 994 l 582 994 l 410 833 l 319 833 z "},"č":{"ha":713,"x_min":56,"x_max":682,"o":"m 410 -12 q 231 35 311 -12 q 103 165 150 83 q 56 349 56 247 q 103 531 56 450 q 231 661 150 613 q 410 710 311 710 q 557 681 486 710 q 682 600 628 653 l 617 525 q 522 592 575 569 q 411 615 468 615 q 283 580 340 615 q 191 484 225 544 q 157 349 157 424 q 191 213 157 274 q 283 116 225 151 q 413 81 342 81 q 520 103 469 81 q 615 168 571 125 l 679 99 q 554 17 624 46 q 410 -12 485 -12 m 294 997 l 408 888 l 522 997 l 608 997 l 464 831 l 353 831 l 208 997 l 294 997 z "},"ç":{"ha":713,"x_min":56,"x_max":682,"o":"m 392 -317 q 235 -260 296 -317 l 276 -215 q 392 -260 329 -260 q 457 -241 433 -260 q 481 -192 481 -222 q 455 -144 481 -161 q 385 -126 429 -126 l 344 -126 l 378 -11 q 213 47 286 -3 q 98 174 140 96 q 56 349 56 253 q 103 531 56 450 q 231 661 150 613 q 410 710 311 710 q 557 681 486 710 q 682 600 628 653 l 617 525 q 522 592 575 569 q 411 615 468 615 q 283 580 340 615 q 191 484 225 544 q 157 349 157 424 q 191 213 157 274 q 283 116 225 151 q 413 81 342 81 q 520 103 469 81 q 615 168 571 125 l 679 99 q 567 23 629 51 q 438 -11 506 -6 l 419 -76 q 516 -110 481 -79 q 551 -190 551 -140 q 506 -281 551 -246 q 392 -317 461 -317 z "},"ĉ":{"ha":713,"x_min":56,"x_max":682,"o":"m 410 -12 q 231 35 311 -12 q 103 165 150 83 q 56 349 56 247 q 103 531 56 450 q 231 661 150 613 q 410 710 311 710 q 557 681 486 710 q 682 600 628 653 l 617 525 q 522 592 575 569 q 411 615 468 615 q 283 580 340 615 q 191 484 225 544 q 157 349 157 424 q 191 213 157 274 q 283 116 225 151 q 413 81 342 81 q 520 103 469 81 q 615 168 571 125 l 679 99 q 554 17 624 46 q 410 -12 485 -12 m 524 828 l 407 939 l 292 828 l 208 828 l 353 996 l 464 996 l 608 828 l 524 828 z "},"ċ":{"ha":713,"x_min":56,"x_max":682,"o":"m 410 -12 q 231 35 311 -12 q 103 165 150 83 q 56 349 56 247 q 103 531 56 450 q 231 661 150 613 q 410 710 311 710 q 557 681 486 710 q 682 600 628 653 l 617 525 q 522 592 575 569 q 411 615 468 615 q 283 580 340 615 q 191 484 225 544 q 157 349 157 424 q 191 213 157 274 q 283 116 225 151 q 413 81 342 81 q 520 103 469 81 q 615 168 571 125 l 679 99 q 554 17 624 46 q 410 -12 485 -12 m 408 836 q 360 856 381 836 q 340 904 340 876 q 360 952 340 932 q 408 972 381 972 q 456 952 436 972 q 476 904 476 932 q 456 856 476 876 q 408 836 436 836 z "},"d":{"ha":819,"x_min":56,"x_max":732,"o":"m 406 -11 q 228 37 308 -11 q 102 166 149 85 q 56 349 56 247 q 102 531 56 450 q 228 659 149 611 q 407 707 308 707 q 525 687 468 707 q 629 628 582 667 l 629 972 l 732 996 l 732 0 l 631 0 l 631 74 q 406 -11 539 -11 m 415 79 q 537 105 481 79 q 629 176 593 131 l 629 521 q 537 591 593 565 q 415 617 481 617 q 284 582 343 617 q 191 487 225 547 q 157 350 157 426 q 191 213 157 274 q 284 115 225 151 q 415 79 343 79 z "},"ď":{"ha":819,"x_min":56,"x_max":976,"o":"m 406 -11 q 228 37 308 -11 q 102 166 149 85 q 56 349 56 247 q 102 531 56 450 q 228 659 149 611 q 407 707 308 707 q 525 687 468 707 q 629 628 582 667 l 629 972 l 732 996 l 732 0 l 631 0 l 631 74 q 406 -11 539 -11 m 415 79 q 537 105 481 79 q 629 176 593 131 l 629 521 q 537 591 593 565 q 415 617 481 617 q 284 582 343 617 q 191 487 225 547 q 157 350 157 426 q 191 213 157 274 q 284 115 225 151 q 415 79 343 79 m 864 729 l 871 996 l 976 1011 l 942 729 l 864 729 z "},"đ":{"ha":818,"x_min":56,"x_max":818,"o":"m 406 -11 q 228 37 308 -11 q 102 166 149 85 q 56 349 56 247 q 102 531 56 450 q 228 659 149 611 q 407 707 308 707 q 525 687 468 707 q 629 628 582 667 l 629 814 l 401 814 l 401 894 l 629 894 l 629 972 l 732 996 l 732 894 l 818 894 l 818 814 l 732 814 l 732 0 l 631 0 l 631 74 q 406 -11 539 -11 m 415 79 q 537 105 481 79 q 629 176 593 131 l 629 521 q 537 591 593 565 q 415 617 481 617 q 284 582 343 617 q 191 487 225 547 q 157 350 157 426 q 191 213 157 274 q 284 115 225 151 q 415 79 343 79 z "},"ð":{"ha":835,"x_min":57,"x_max":761,"o":"m 403 -14 q 227 33 306 -14 q 103 161 149 81 q 57 342 57 242 q 83 474 57 413 q 155 583 108 536 q 263 655 201 629 q 396 681 325 681 q 549 641 482 681 q 656 533 617 601 q 603 693 642 619 q 507 822 565 767 l 365 733 l 322 797 l 443 872 q 374 913 411 896 q 294 940 336 929 l 336 1015 q 437 976 389 999 q 525 922 485 953 l 678 1018 l 721 954 l 586 871 q 717 670 672 788 q 761 406 761 553 q 717 185 761 279 q 592 38 672 90 q 403 -14 511 -14 m 406 79 q 531 113 475 79 q 620 206 588 147 q 653 336 653 264 q 620 466 653 408 q 531 558 588 524 q 406 592 475 592 q 278 558 335 592 q 190 466 222 524 q 157 336 157 408 q 190 206 157 264 q 278 113 222 147 q 406 79 335 79 z "},"e":{"ha":783,"x_min":56,"x_max":728,"o":"m 414 -12 q 233 35 314 -12 q 103 165 151 83 q 56 349 56 247 q 101 530 56 449 q 225 659 147 611 q 399 707 303 707 q 566 659 492 707 q 684 530 640 611 q 728 349 728 449 l 728 317 l 157 317 q 201 194 165 249 q 293 109 236 140 q 418 78 350 78 q 524 94 472 78 q 610 142 575 111 l 674 74 q 552 9 615 31 q 414 -12 489 -12 m 160 399 l 625 399 q 584 510 617 461 q 503 588 551 560 q 396 617 454 617 q 286 589 336 617 q 203 512 236 561 q 160 399 169 463 z "},"é":{"ha":783,"x_min":56,"x_max":728,"o":"m 414 -12 q 233 35 314 -12 q 103 165 151 83 q 56 349 56 247 q 101 530 56 449 q 225 659 147 611 q 399 707 303 707 q 566 659 492 707 q 684 530 640 611 q 728 349 728 449 l 728 317 l 157 317 q 201 194 165 249 q 293 109 236 140 q 418 78 350 78 q 524 94 472 78 q 610 142 575 111 l 674 74 q 552 9 615 31 q 414 -12 489 -12 m 160 399 l 625 399 q 584 510 617 461 q 503 588 551 560 q 396 617 454 617 q 286 589 336 617 q 203 512 236 561 q 160 399 169 463 m 308 833 l 439 994 l 571 994 l 399 833 l 308 833 z "},"ĕ":{"ha":783,"x_min":56,"x_max":728,"o":"m 414 -12 q 233 35 314 -12 q 103 165 151 83 q 56 349 56 247 q 101 530 56 449 q 225 659 147 611 q 399 707 303 707 q 566 659 492 707 q 684 530 640 611 q 728 349 728 449 l 728 317 l 157 317 q 201 194 165 249 q 293 109 236 140 q 418 78 350 78 q 524 94 472 78 q 610 142 575 111 l 674 74 q 552 9 615 31 q 414 -12 489 -12 m 160 399 l 625 399 q 584 510 617 461 q 503 588 551 560 q 396 617 454 617 q 286 589 336 617 q 203 512 236 561 q 160 399 169 463 m 397 822 q 258 867 314 822 q 183 993 201 913 l 256 1011 q 397 890 285 890 q 487 921 450 890 q 539 1011 524 951 l 611 993 q 536 867 593 913 q 397 822 479 822 z "},"ě":{"ha":783,"x_min":56,"x_max":728,"o":"m 414 -12 q 233 35 314 -12 q 103 165 151 83 q 56 349 56 247 q 101 530 56 449 q 225 659 147 611 q 399 707 303 707 q 566 659 492 707 q 684 530 640 611 q 728 349 728 449 l 728 317 l 157 317 q 201 194 165 249 q 293 109 236 140 q 418 78 350 78 q 524 94 472 78 q 610 142 575 111 l 674 74 q 552 9 615 31 q 414 -12 489 -12 m 160 399 l 625 399 q 584 510 617 461 q 503 588 551 560 q 396 617 454 617 q 286 589 336 617 q 203 512 236 561 q 160 399 169 463 m 283 997 l 397 888 l 511 997 l 597 997 l 453 831 l 342 831 l 197 997 l 283 997 z "},"ê":{"ha":783,"x_min":56,"x_max":728,"o":"m 414 -12 q 233 35 314 -12 q 103 165 151 83 q 56 349 56 247 q 101 530 56 449 q 225 659 147 611 q 399 707 303 707 q 566 659 492 707 q 684 530 640 611 q 728 349 728 449 l 728 317 l 157 317 q 201 194 165 249 q 293 109 236 140 q 418 78 350 78 q 524 94 472 78 q 610 142 575 111 l 674 74 q 552 9 615 31 q 414 -12 489 -12 m 160 399 l 625 399 q 584 510 617 461 q 503 588 551 560 q 396 617 454 617 q 286 589 336 617 q 203 512 236 561 q 160 399 169 463 m 513 828 l 396 939 l 281 828 l 197 828 l 342 996 l 453 996 l 597 828 l 513 828 z "},"ë":{"ha":783,"x_min":56,"x_max":728,"o":"m 414 -12 q 233 35 314 -12 q 103 165 151 83 q 56 349 56 247 q 101 530 56 449 q 225 659 147 611 q 399 707 303 707 q 566 659 492 707 q 684 530 640 611 q 728 349 728 449 l 728 317 l 157 317 q 201 194 165 249 q 293 109 236 140 q 418 78 350 78 q 524 94 472 78 q 610 142 575 111 l 674 74 q 552 9 615 31 q 414 -12 489 -12 m 160 399 l 625 399 q 584 510 617 461 q 503 588 551 560 q 396 617 454 617 q 286 589 336 617 q 203 512 236 561 q 160 399 169 463 m 276 849 q 227 868 247 849 q 207 915 207 888 q 227 963 207 943 q 276 982 247 982 q 326 963 306 982 q 346 915 346 943 q 326 868 346 888 q 276 849 306 849 m 518 849 q 469 868 489 849 q 449 915 449 888 q 469 963 449 943 q 518 982 489 982 q 567 963 547 982 q 588 915 588 943 q 567 868 588 888 q 518 849 547 849 z "},"ė":{"ha":783,"x_min":56,"x_max":728,"o":"m 414 -12 q 233 35 314 -12 q 103 165 151 83 q 56 349 56 247 q 101 530 56 449 q 225 659 147 611 q 399 707 303 707 q 566 659 492 707 q 684 530 640 611 q 728 349 728 449 l 728 317 l 157 317 q 201 194 165 249 q 293 109 236 140 q 418 78 350 78 q 524 94 472 78 q 610 142 575 111 l 674 74 q 552 9 615 31 q 414 -12 489 -12 m 160 399 l 625 399 q 584 510 617 461 q 503 588 551 560 q 396 617 454 617 q 286 589 336 617 q 203 512 236 561 q 160 399 169 463 m 397 836 q 349 856 369 836 q 329 904 329 876 q 349 952 329 932 q 397 972 369 972 q 445 952 425 972 q 465 904 465 932 q 445 856 465 876 q 397 836 425 836 z "},"è":{"ha":783,"x_min":56,"x_max":728,"o":"m 414 -12 q 233 35 314 -12 q 103 165 151 83 q 56 349 56 247 q 101 530 56 449 q 225 659 147 611 q 399 707 303 707 q 566 659 492 707 q 684 530 640 611 q 728 349 728 449 l 728 317 l 157 317 q 201 194 165 249 q 293 109 236 140 q 418 78 350 78 q 524 94 472 78 q 610 142 575 111 l 674 74 q 552 9 615 31 q 414 -12 489 -12 m 160 399 l 625 399 q 584 510 617 461 q 503 588 551 560 q 396 617 454 617 q 286 589 336 617 q 203 512 236 561 q 160 399 169 463 m 383 833 l 213 994 l 346 994 l 474 833 l 383 833 z "},"ē":{"ha":783,"x_min":56,"x_max":728,"o":"m 414 -12 q 233 35 314 -12 q 103 165 151 83 q 56 349 56 247 q 101 530 56 449 q 225 659 147 611 q 399 707 303 707 q 566 659 492 707 q 684 530 640 611 q 728 349 728 449 l 728 317 l 157 317 q 201 194 165 249 q 293 109 236 140 q 418 78 350 78 q 524 94 472 78 q 610 142 575 111 l 674 74 q 552 9 615 31 q 414 -12 489 -12 m 160 399 l 625 399 q 584 510 617 461 q 503 588 551 560 q 396 617 454 617 q 286 589 336 617 q 203 512 236 561 q 160 399 169 463 m 200 863 l 200 936 l 594 936 l 594 863 l 200 863 z "},"ę":{"ha":783,"x_min":56,"x_max":728,"o":"m 438 -307 q 339 -274 376 -307 q 301 -187 301 -242 q 330 -100 301 -142 q 421 -12 358 -58 q 234 35 317 -12 q 103 165 151 83 q 56 349 56 247 q 101 530 56 449 q 225 659 147 611 q 399 707 303 707 q 566 659 492 707 q 684 530 640 611 q 728 349 728 449 l 728 317 l 157 317 q 201 194 165 249 q 293 109 236 140 q 418 78 350 78 q 524 94 472 78 q 610 142 575 111 l 674 74 q 599 28 638 46 q 518 -1 560 10 q 408 -90 443 -49 q 372 -171 372 -131 q 393 -224 372 -206 q 453 -243 414 -243 q 488 -238 471 -243 q 519 -224 506 -233 l 540 -278 q 492 -299 518 -292 q 438 -307 467 -307 m 160 399 l 625 399 q 584 510 617 461 q 503 588 551 560 q 396 617 454 617 q 286 589 336 617 q 203 512 236 561 q 160 399 169 463 z "},"f":{"ha":519,"x_min":24,"x_max":496,"o":"m 188 0 l 188 608 l 24 608 l 24 696 l 188 696 l 188 828 q 243 985 188 931 q 403 1039 299 1039 q 453 1036 431 1039 q 496 1026 475 1033 l 496 935 q 453 945 472 942 q 410 949 433 949 q 319 919 349 949 q 289 825 289 889 l 289 696 l 496 696 l 496 608 l 289 608 l 289 0 l 188 0 z "},"g":{"ha":814,"x_min":56,"x_max":726,"o":"m 426 -297 q 283 -278 354 -297 q 154 -225 213 -260 l 199 -144 q 315 -193 261 -178 q 422 -208 368 -208 q 572 -161 521 -208 q 624 -22 624 -114 l 624 75 q 403 -6 528 -6 q 228 42 307 -6 q 102 170 149 89 q 56 351 56 251 q 102 533 56 451 q 228 661 149 614 q 406 708 307 708 q 522 688 465 708 q 625 626 578 667 l 625 696 l 726 696 l 726 -21 q 649 -226 726 -154 q 426 -297 571 -297 m 411 85 q 533 110 478 85 q 624 181 589 135 l 624 522 q 533 592 589 567 q 411 617 476 617 q 281 582 339 617 q 190 487 224 547 q 157 351 157 426 q 191 216 157 276 q 283 120 225 156 q 411 85 340 85 z "},"ğ":{"ha":814,"x_min":56,"x_max":726,"o":"m 426 -297 q 283 -278 354 -297 q 154 -225 213 -260 l 199 -144 q 315 -193 261 -178 q 422 -208 368 -208 q 572 -161 521 -208 q 624 -22 624 -114 l 624 75 q 403 -6 528 -6 q 228 42 307 -6 q 102 170 149 89 q 56 351 56 251 q 102 533 56 451 q 228 661 149 614 q 406 708 307 708 q 522 688 465 708 q 625 626 578 667 l 625 696 l 726 696 l 726 -21 q 649 -226 726 -154 q 426 -297 571 -297 m 411 85 q 533 110 478 85 q 624 181 589 135 l 624 522 q 533 592 589 567 q 411 617 476 617 q 281 582 339 617 q 190 487 224 547 q 157 351 157 426 q 191 216 157 276 q 283 120 225 156 q 411 85 340 85 m 406 822 q 266 867 322 822 q 192 993 210 913 l 264 1011 q 406 890 293 890 q 495 921 458 890 q 547 1011 532 951 l 619 993 q 544 867 601 913 q 406 822 488 822 z "},"ĝ":{"ha":814,"x_min":56,"x_max":726,"o":"m 426 -297 q 283 -278 354 -297 q 154 -225 213 -260 l 199 -144 q 315 -193 261 -178 q 422 -208 368 -208 q 572 -161 521 -208 q 624 -22 624 -114 l 624 75 q 403 -6 528 -6 q 228 42 307 -6 q 102 170 149 89 q 56 351 56 251 q 102 533 56 451 q 228 661 149 614 q 406 708 307 708 q 522 688 465 708 q 625 626 578 667 l 625 696 l 726 696 l 726 -21 q 649 -226 726 -154 q 426 -297 571 -297 m 411 85 q 533 110 478 85 q 624 181 589 135 l 624 522 q 533 592 589 567 q 411 617 476 617 q 281 582 339 617 q 190 487 224 547 q 157 351 157 426 q 191 216 157 276 q 283 120 225 156 q 411 85 340 85 m 521 828 l 404 939 l 289 828 l 206 828 l 350 996 l 461 996 l 606 828 l 521 828 z "},"ģ":{"ha":813,"x_min":56,"x_max":726,"o":"m 511 1090 l 454 842 l 351 842 l 435 1090 l 511 1090 m 426 -297 q 283 -278 354 -297 q 154 -225 213 -260 l 199 -144 q 315 -193 261 -178 q 422 -208 368 -208 q 572 -161 521 -208 q 624 -22 624 -114 l 624 75 q 403 -6 528 -6 q 228 42 307 -6 q 102 170 149 89 q 56 351 56 251 q 102 533 56 451 q 228 661 149 614 q 406 708 307 708 q 522 688 465 708 q 625 626 578 667 l 625 696 l 726 696 l 726 -21 q 649 -226 726 -154 q 426 -297 571 -297 m 411 85 q 533 110 478 85 q 624 181 589 135 l 624 522 q 533 592 589 567 q 411 617 476 617 q 281 582 339 617 q 190 487 224 547 q 157 351 157 426 q 191 216 157 276 q 283 120 225 156 q 411 85 340 85 z "},"ġ":{"ha":814,"x_min":56,"x_max":726,"o":"m 426 -297 q 283 -278 354 -297 q 154 -225 213 -260 l 199 -144 q 315 -193 261 -178 q 422 -208 368 -208 q 572 -161 521 -208 q 624 -22 624 -114 l 624 75 q 403 -6 528 -6 q 228 42 307 -6 q 102 170 149 89 q 56 351 56 251 q 102 533 56 451 q 228 661 149 614 q 406 708 307 708 q 522 688 465 708 q 625 626 578 667 l 625 696 l 726 696 l 726 -21 q 649 -226 726 -154 q 426 -297 571 -297 m 411 85 q 533 110 478 85 q 624 181 589 135 l 624 522 q 533 592 589 567 q 411 617 476 617 q 281 582 339 617 q 190 487 224 547 q 157 351 157 426 q 191 216 157 276 q 283 120 225 156 q 411 85 340 85 m 406 836 q 358 856 378 836 q 338 904 338 876 q 358 952 338 932 q 406 972 378 972 q 453 952 433 972 q 474 904 474 932 q 453 856 474 876 q 406 836 433 836 z "},"h":{"ha":763,"x_min":88,"x_max":678,"o":"m 88 0 l 88 972 l 190 996 l 190 614 q 410 710 272 710 q 549 676 489 710 q 644 581 610 642 q 678 440 678 521 l 678 0 l 576 0 l 576 419 q 524 566 576 513 q 382 619 472 619 q 271 592 319 619 q 190 513 222 564 l 190 0 l 88 0 z "},"ħ":{"ha":763,"x_min":0,"x_max":678,"o":"m 88 0 l 88 814 l 0 814 l 0 894 l 88 894 l 88 972 l 190 996 l 190 894 l 417 894 l 417 814 l 190 814 l 190 614 q 410 710 272 710 q 549 676 489 710 q 644 581 610 642 q 678 440 678 521 l 678 0 l 576 0 l 576 419 q 524 566 576 513 q 382 619 472 619 q 271 592 319 619 q 190 513 222 564 l 190 0 l 88 0 z "},"ĥ":{"ha":763,"x_min":-62,"x_max":678,"o":"m 88 0 l 88 972 l 190 996 l 190 614 q 410 710 272 710 q 549 676 489 710 q 644 581 610 642 q 678 440 678 521 l 678 0 l 576 0 l 576 419 q 524 566 576 513 q 382 619 472 619 q 271 592 319 619 q 190 513 222 564 l 190 0 l 88 0 m 253 1104 l 136 1215 l 21 1104 l -62 1104 l 82 1272 l 193 1272 l 338 1104 l 253 1104 z "},"i":{"ha":278,"x_min":69,"x_max":208,"o":"m 88 0 l 88 696 l 190 696 l 190 0 l 88 0 m 139 829 q 90 850 111 829 q 69 899 69 871 q 90 948 69 928 q 139 968 111 968 q 188 948 168 968 q 208 899 208 928 q 188 850 208 871 q 139 829 168 829 z "},"ı":{"ha":278,"x_min":88,"x_max":190,"o":"m 88 0 l 88 696 l 190 696 l 190 0 l 88 0 z "},"í":{"ha":278,"x_min":50,"x_max":313,"o":"m 88 0 l 88 696 l 190 696 l 190 0 l 88 0 m 50 833 l 181 994 l 313 994 l 140 833 l 50 833 z "},"ĭ":{"ha":278,"x_min":-75,"x_max":353,"o":"m 88 0 l 88 696 l 190 696 l 190 0 l 88 0 m 139 822 q -1 867 56 822 q -75 993 -57 913 l -3 1011 q 139 890 26 890 q 228 921 192 890 q 281 1011 265 951 l 353 993 q 278 867 335 913 q 139 822 221 822 z "},"î":{"ha":278,"x_min":-61,"x_max":339,"o":"m 88 0 l 88 696 l 190 696 l 190 0 l 88 0 m 254 828 l 138 939 l 22 828 l -61 828 l 83 996 l 194 996 l 339 828 l 254 828 z "},"ï":{"ha":278,"x_min":-51,"x_max":329,"o":"m 88 0 l 88 696 l 190 696 l 190 0 l 88 0 m 18 849 q -31 868 -11 849 q -51 915 -51 888 q -31 963 -51 943 q 18 982 -11 982 q 67 963 47 982 q 88 915 88 943 q 67 868 88 888 q 18 849 47 849 m 260 849 q 210 868 231 849 q 190 915 190 888 q 210 963 190 943 q 260 982 231 982 q 309 963 289 982 q 329 915 329 943 q 309 868 329 888 q 260 849 289 849 z "},"ì":{"ha":278,"x_min":-46,"x_max":215,"o":"m 88 0 l 88 696 l 190 696 l 190 0 l 88 0 m 125 833 l -46 994 l 88 994 l 215 833 l 125 833 z "},"ī":{"ha":278,"x_min":-58,"x_max":336,"o":"m 88 0 l 88 696 l 190 696 l 190 0 l 88 0 m -58 863 l -58 936 l 336 936 l 336 863 l -58 863 z "},"į":{"ha":278,"x_min":-28,"x_max":211,"o":"m 139 829 q 90 850 111 829 q 69 899 69 871 q 90 948 69 928 q 139 968 111 968 q 188 948 168 968 q 208 899 208 928 q 188 850 208 871 q 139 829 168 829 m 108 -307 q 10 -274 47 -307 q -28 -187 -28 -242 q 5 -94 -28 -139 q 110 0 38 -50 l 88 0 l 88 696 l 190 696 l 190 0 q 78 -89 114 -47 q 43 -171 43 -131 q 64 -224 43 -206 q 124 -243 85 -243 q 159 -238 142 -243 q 190 -224 176 -233 l 211 -278 q 163 -299 189 -292 q 108 -307 138 -307 z "},"ĩ":{"ha":278,"x_min":-94,"x_max":371,"o":"m 88 0 l 88 696 l 190 696 l 190 0 l 88 0 m -22 826 l -94 840 q 36 979 -64 979 q 109 960 74 979 q 176 922 144 942 q 238 903 208 903 q 276 921 261 903 q 300 982 290 939 l 371 968 q 324 864 357 899 q 240 829 290 829 q 169 849 204 829 q 101 887 133 868 q 39 906 68 906 q 0 888 14 906 q -22 826 -14 869 z "},"ĳ":{"ha":556,"x_min":69,"x_max":486,"o":"m 88 0 l 88 696 l 190 696 l 190 0 l 88 0 m 139 829 q 90 850 111 829 q 69 899 69 871 q 90 948 69 928 q 139 968 111 968 q 188 948 168 968 q 208 899 208 928 q 188 850 208 871 q 139 829 168 829 m 417 829 q 368 850 389 829 q 347 899 347 871 q 368 948 347 928 q 417 968 389 968 q 466 948 446 968 q 486 899 486 928 q 466 850 486 871 q 417 829 446 829 m 289 -297 q 253 -294 269 -297 q 225 -289 236 -292 l 225 -203 q 276 -208 247 -208 q 345 -186 325 -208 q 365 -114 365 -164 l 365 696 l 468 696 l 468 -122 q 422 -252 468 -207 q 289 -297 375 -297 z "},"j":{"ha":278,"x_min":-53,"x_max":208,"o":"m 139 829 q 90 850 111 829 q 69 899 69 871 q 90 948 69 928 q 139 968 111 968 q 188 948 168 968 q 208 899 208 928 q 188 850 208 871 q 139 829 168 829 m 11 -297 q -25 -294 -8 -297 q -53 -289 -42 -292 l -53 -203 q -1 -208 -31 -208 q 67 -186 47 -208 q 88 -114 88 -164 l 88 696 l 190 696 l 190 -122 q 144 -252 190 -207 q 11 -297 97 -297 z "},"ȷ":{"ha":278,"x_min":-53,"x_max":190,"o":"m 13 -297 q -22 -294 -6 -297 q -53 -289 -37 -292 l -53 -203 q 0 -208 -29 -208 q 67 -186 47 -208 q 88 -114 88 -164 l 88 696 l 190 696 l 190 -124 q 144 -251 190 -206 q 13 -297 99 -297 z "},"ĵ":{"ha":278,"x_min":-61,"x_max":339,"o":"m 13 -297 q -22 -294 -6 -297 q -53 -289 -37 -292 l -53 -203 q 0 -208 -29 -208 q 67 -186 47 -208 q 88 -114 88 -164 l 88 696 l 190 696 l 190 -124 q 144 -251 190 -206 q 13 -297 99 -297 m 254 828 l 138 939 l 22 828 l -61 828 l 83 996 l 194 996 l 339 828 l 254 828 z "},"k":{"ha":686,"x_min":88,"x_max":697,"o":"m 88 0 l 88 972 l 190 996 l 190 382 l 554 696 l 679 696 l 297 365 l 697 0 l 557 0 l 190 333 l 190 0 l 88 0 z "},"ķ":{"ha":686,"x_min":88,"x_max":697,"o":"m 88 0 l 88 972 l 190 996 l 190 382 l 554 696 l 679 696 l 297 365 l 697 0 l 557 0 l 190 333 l 190 0 l 88 0 m 236 -367 l 293 -118 l 396 -118 l 313 -367 l 236 -367 z "},"ĸ":{"ha":686,"x_min":88,"x_max":697,"o":"m 88 0 l 88 696 l 190 696 l 190 382 l 554 696 l 679 696 l 297 365 l 697 0 l 557 0 l 190 333 l 190 0 l 88 0 z "},"l":{"ha":278,"x_min":88,"x_max":190,"o":"m 88 0 l 88 972 l 190 996 l 190 0 l 88 0 z "},"ĺ":{"ha":278,"x_min":50,"x_max":313,"o":"m 88 0 l 88 972 l 190 996 l 190 0 l 88 0 m 50 1111 l 181 1272 l 313 1272 l 140 1111 l 50 1111 z "},"ľ":{"ha":278,"x_min":88,"x_max":435,"o":"m 88 0 l 88 972 l 190 996 l 190 0 l 88 0 m 322 729 l 329 996 l 435 1011 l 400 729 l 322 729 z "},"ļ":{"ha":278,"x_min":31,"x_max":190,"o":"m 88 0 l 88 972 l 190 996 l 190 0 l 88 0 m 31 -367 l 88 -118 l 190 -118 l 107 -367 l 31 -367 z "},"ł":{"ha":333,"x_min":13,"x_max":324,"o":"m 117 0 l 117 438 l 13 353 l 13 456 l 117 540 l 117 972 l 219 996 l 219 624 l 324 708 l 324 604 l 219 519 l 219 0 l 117 0 z "},"m":{"ha":1193,"x_min":88,"x_max":1108,"o":"m 88 0 l 88 696 l 190 696 l 190 619 q 394 710 269 710 q 525 676 468 710 q 614 583 582 642 q 717 678 657 647 q 853 710 776 710 q 986 676 929 710 q 1076 581 1043 642 q 1108 440 1108 521 l 1108 0 l 1007 0 l 1007 419 q 958 566 1007 513 q 826 619 910 619 q 722 591 769 619 q 642 506 675 563 q 647 474 644 490 q 649 440 649 458 l 649 0 l 547 0 l 547 419 q 499 566 547 513 q 368 619 450 619 q 267 594 313 619 q 190 518 222 568 l 190 0 l 88 0 z "},"n":{"ha":763,"x_min":88,"x_max":678,"o":"m 88 0 l 88 696 l 190 696 l 190 614 q 410 710 272 710 q 549 676 489 710 q 644 581 610 642 q 678 440 678 521 l 678 0 l 576 0 l 576 419 q 524 566 576 513 q 382 619 472 619 q 271 592 319 619 q 190 513 222 564 l 190 0 l 88 0 z "},"ń":{"ha":763,"x_min":88,"x_max":678,"o":"m 88 0 l 88 696 l 190 696 l 190 614 q 410 710 272 710 q 549 676 489 710 q 644 581 610 642 q 678 440 678 521 l 678 0 l 576 0 l 576 419 q 524 566 576 513 q 382 619 472 619 q 271 592 319 619 q 190 513 222 564 l 190 0 l 88 0 m 294 833 l 425 994 l 557 994 l 385 833 l 294 833 z "},"ň":{"ha":763,"x_min":88,"x_max":678,"o":"m 88 0 l 88 696 l 190 696 l 190 614 q 410 710 272 710 q 549 676 489 710 q 644 581 610 642 q 678 440 678 521 l 678 0 l 576 0 l 576 419 q 524 566 576 513 q 382 619 472 619 q 271 592 319 619 q 190 513 222 564 l 190 0 l 88 0 m 269 997 l 383 888 l 497 997 l 583 997 l 439 831 l 328 831 l 183 997 l 269 997 z "},"ņ":{"ha":763,"x_min":88,"x_max":678,"o":"m 88 0 l 88 696 l 190 696 l 190 614 q 410 710 272 710 q 549 676 489 710 q 644 581 610 642 q 678 440 678 521 l 678 0 l 576 0 l 576 419 q 524 566 576 513 q 382 619 472 619 q 271 592 319 619 q 190 513 222 564 l 190 0 l 88 0 m 275 -367 l 332 -118 l 435 -118 l 351 -367 l 275 -367 z "},"ñ":{"ha":763,"x_min":88,"x_max":678,"o":"m 88 0 l 88 696 l 190 696 l 190 614 q 410 710 272 710 q 549 676 489 710 q 644 581 610 642 q 678 440 678 521 l 678 0 l 576 0 l 576 419 q 524 566 576 513 q 382 619 472 619 q 271 592 319 619 q 190 513 222 564 l 190 0 l 88 0 m 222 826 l 150 840 q 281 979 181 979 q 353 960 318 979 q 421 922 389 942 q 482 903 453 903 q 520 921 506 903 q 544 982 535 939 l 615 968 q 568 864 601 899 q 485 829 535 829 q 413 849 449 829 q 345 887 378 868 q 283 906 313 906 q 244 888 258 906 q 222 826 231 869 z "},"ŋ":{"ha":763,"x_min":88,"x_max":678,"o":"m 500 -289 q 467 -286 483 -289 q 435 -281 450 -283 l 435 -194 q 489 -200 458 -200 q 556 -178 535 -200 q 576 -106 576 -156 l 576 419 q 524 566 576 513 q 382 619 472 619 q 271 592 319 619 q 190 513 222 564 l 190 0 l 88 0 l 88 696 l 190 696 l 190 614 q 410 710 272 710 q 549 676 489 710 q 644 581 610 642 q 678 440 678 521 l 678 -115 q 632 -243 678 -197 q 500 -289 586 -289 z "},"o":{"ha":822,"x_min":56,"x_max":767,"o":"m 411 -14 q 231 34 313 -14 q 103 164 150 82 q 56 347 56 246 q 103 531 56 449 q 231 660 150 613 q 411 708 313 708 q 592 660 511 708 q 719 531 672 613 q 767 347 767 449 q 719 164 767 246 q 592 34 672 82 q 411 -14 511 -14 m 411 78 q 540 114 482 78 q 631 211 597 150 q 665 347 665 272 q 631 484 665 424 q 540 581 597 544 q 411 617 482 617 q 283 581 340 617 q 191 484 225 544 q 157 347 157 424 q 191 211 157 272 q 283 114 225 150 q 411 78 340 78 z "},"ó":{"ha":822,"x_min":56,"x_max":767,"o":"m 411 -14 q 231 34 313 -14 q 103 164 150 82 q 56 347 56 246 q 103 531 56 449 q 231 660 150 613 q 411 708 313 708 q 592 660 511 708 q 719 531 672 613 q 767 347 767 449 q 719 164 767 246 q 592 34 672 82 q 411 -14 511 -14 m 411 78 q 540 114 482 78 q 631 211 597 150 q 665 347 665 272 q 631 484 665 424 q 540 581 597 544 q 411 617 482 617 q 283 581 340 617 q 191 484 225 544 q 157 347 157 424 q 191 211 157 272 q 283 114 225 150 q 411 78 340 78 m 322 833 l 453 994 l 585 994 l 413 833 l 322 833 z "},"ŏ":{"ha":822,"x_min":56,"x_max":767,"o":"m 411 -14 q 231 34 313 -14 q 103 164 150 82 q 56 347 56 246 q 103 531 56 449 q 231 660 150 613 q 411 708 313 708 q 592 660 511 708 q 719 531 672 613 q 767 347 767 449 q 719 164 767 246 q 592 34 672 82 q 411 -14 511 -14 m 411 78 q 540 114 482 78 q 631 211 597 150 q 665 347 665 272 q 631 484 665 424 q 540 581 597 544 q 411 617 482 617 q 283 581 340 617 q 191 484 225 544 q 157 347 157 424 q 191 211 157 272 q 283 114 225 150 q 411 78 340 78 m 411 822 q 272 867 328 822 q 197 993 215 913 l 269 1011 q 411 890 299 890 q 501 921 464 890 q 553 1011 538 951 l 625 993 q 550 867 607 913 q 411 822 493 822 z "},"ô":{"ha":822,"x_min":56,"x_max":767,"o":"m 411 -14 q 231 34 313 -14 q 103 164 150 82 q 56 347 56 246 q 103 531 56 449 q 231 660 150 613 q 411 708 313 708 q 592 660 511 708 q 719 531 672 613 q 767 347 767 449 q 719 164 767 246 q 592 34 672 82 q 411 -14 511 -14 m 411 78 q 540 114 482 78 q 631 211 597 150 q 665 347 665 272 q 631 484 665 424 q 540 581 597 544 q 411 617 482 617 q 283 581 340 617 q 191 484 225 544 q 157 347 157 424 q 191 211 157 272 q 283 114 225 150 q 411 78 340 78 m 526 828 l 410 939 l 294 828 l 211 828 l 356 996 l 467 996 l 611 828 l 526 828 z "},"ö":{"ha":822,"x_min":56,"x_max":767,"o":"m 411 -14 q 231 34 313 -14 q 103 164 150 82 q 56 347 56 246 q 103 531 56 449 q 231 660 150 613 q 411 708 313 708 q 592 660 511 708 q 719 531 672 613 q 767 347 767 449 q 719 164 767 246 q 592 34 672 82 q 411 -14 511 -14 m 411 78 q 540 114 482 78 q 631 211 597 150 q 665 347 665 272 q 631 484 665 424 q 540 581 597 544 q 411 617 482 617 q 283 581 340 617 q 191 484 225 544 q 157 347 157 424 q 191 211 157 272 q 283 114 225 150 q 411 78 340 78 m 290 849 q 241 868 261 849 q 221 915 221 888 q 241 963 221 943 q 290 982 261 982 q 340 963 319 982 q 360 915 360 943 q 340 868 360 888 q 290 849 319 849 m 532 849 q 483 868 503 849 q 463 915 463 888 q 483 963 463 943 q 532 982 503 982 q 581 963 561 982 q 601 915 601 943 q 581 868 601 888 q 532 849 561 849 z "},"ò":{"ha":822,"x_min":56,"x_max":767,"o":"m 411 -14 q 231 34 313 -14 q 103 164 150 82 q 56 347 56 246 q 103 531 56 449 q 231 660 150 613 q 411 708 313 708 q 592 660 511 708 q 719 531 672 613 q 767 347 767 449 q 719 164 767 246 q 592 34 672 82 q 411 -14 511 -14 m 411 78 q 540 114 482 78 q 631 211 597 150 q 665 347 665 272 q 631 484 665 424 q 540 581 597 544 q 411 617 482 617 q 283 581 340 617 q 191 484 225 544 q 157 347 157 424 q 191 211 157 272 q 283 114 225 150 q 411 78 340 78 m 397 833 l 226 994 l 360 994 l 488 833 l 397 833 z "},"ő":{"ha":822,"x_min":56,"x_max":767,"o":"m 411 -14 q 231 34 313 -14 q 103 164 150 82 q 56 347 56 246 q 103 531 56 449 q 231 660 150 613 q 411 708 313 708 q 592 660 511 708 q 719 531 672 613 q 767 347 767 449 q 719 164 767 246 q 592 34 672 82 q 411 -14 511 -14 m 411 78 q 540 114 482 78 q 631 211 597 150 q 665 347 665 272 q 631 484 665 424 q 540 581 597 544 q 411 617 482 617 q 283 581 340 617 q 191 484 225 544 q 157 347 157 424 q 191 211 157 272 q 283 114 225 150 q 411 78 340 78 m 249 838 l 393 994 l 513 994 l 336 838 l 249 838 m 478 838 l 622 994 l 743 994 l 563 838 l 478 838 z "},"ō":{"ha":822,"x_min":56,"x_max":767,"o":"m 411 -14 q 231 34 313 -14 q 103 164 150 82 q 56 347 56 246 q 103 531 56 449 q 231 660 150 613 q 411 708 313 708 q 592 660 511 708 q 719 531 672 613 q 767 347 767 449 q 719 164 767 246 q 592 34 672 82 q 411 -14 511 -14 m 411 78 q 540 114 482 78 q 631 211 597 150 q 665 347 665 272 q 631 484 665 424 q 540 581 597 544 q 411 617 482 617 q 283 581 340 617 q 191 484 225 544 q 157 347 157 424 q 191 211 157 272 q 283 114 225 150 q 411 78 340 78 m 214 863 l 214 936 l 608 936 l 608 863 l 214 863 z "},"ø":{"ha":822,"x_min":56,"x_max":765,"o":"m 411 -14 q 302 3 354 -14 q 207 50 250 19 l 165 0 l 74 0 l 154 96 q 82 209 108 144 q 56 349 56 274 q 103 532 56 450 q 231 662 150 614 q 411 710 313 710 q 519 693 468 710 q 613 647 569 676 l 654 696 l 746 696 l 667 601 q 739 488 713 553 q 765 349 765 422 q 718 165 765 247 q 590 34 671 82 q 411 -14 510 -14 m 217 172 l 553 574 q 487 606 522 594 q 411 618 451 618 q 283 582 340 618 q 191 485 225 546 q 157 349 157 425 q 173 253 157 297 q 217 172 189 208 m 411 78 q 540 114 482 78 q 631 212 597 150 q 664 349 664 274 q 648 445 664 400 q 604 525 632 490 l 268 124 q 335 90 299 101 q 411 78 371 78 z "},"õ":{"ha":822,"x_min":56,"x_max":767,"o":"m 411 -14 q 231 34 313 -14 q 103 164 150 82 q 56 347 56 246 q 103 531 56 449 q 231 660 150 613 q 411 708 313 708 q 592 660 511 708 q 719 531 672 613 q 767 347 767 449 q 719 164 767 246 q 592 34 672 82 q 411 -14 511 -14 m 411 78 q 540 114 482 78 q 631 211 597 150 q 665 347 665 272 q 631 484 665 424 q 540 581 597 544 q 411 617 482 617 q 283 581 340 617 q 191 484 225 544 q 157 347 157 424 q 191 211 157 272 q 283 114 225 150 q 411 78 340 78 m 250 826 l 178 840 q 308 979 208 979 q 381 960 346 979 q 449 922 417 942 q 510 903 481 903 q 548 921 533 903 q 572 982 563 939 l 643 968 q 596 864 629 899 q 513 829 563 829 q 441 849 476 829 q 373 887 406 868 q 311 906 340 906 q 272 888 286 906 q 250 826 258 869 z "},"œ":{"ha":1393,"x_min":56,"x_max":1336,"o":"m 411 -14 q 231 34 313 -14 q 103 165 150 82 q 56 349 56 247 q 103 532 56 450 q 231 662 150 614 q 411 710 313 710 q 590 661 510 710 q 714 531 669 613 q 835 658 758 610 q 1008 707 913 707 q 1174 659 1100 707 q 1292 530 1249 611 q 1336 349 1336 449 l 1336 317 l 767 317 q 810 194 775 249 q 903 109 846 140 q 1028 78 960 78 q 1133 94 1082 78 q 1219 142 1183 111 l 1283 74 q 1161 9 1225 31 q 1024 -12 1097 -12 q 840 37 922 -12 q 714 167 758 86 q 590 35 669 85 q 411 -14 510 -14 m 411 78 q 540 114 482 78 q 631 212 597 150 q 664 349 664 274 q 631 485 664 425 q 540 582 597 546 q 411 618 482 618 q 283 582 340 618 q 191 485 225 546 q 157 349 157 425 q 191 212 157 274 q 283 114 225 150 q 411 78 340 78 m 769 399 l 1235 399 q 1192 510 1225 461 q 1111 588 1160 560 q 1004 617 1063 617 q 894 589 944 617 q 812 512 844 561 q 769 399 779 463 z "},"p":{"ha":819,"x_min":88,"x_max":764,"o":"m 88 -283 l 88 696 l 189 696 l 189 621 q 414 707 279 707 q 592 659 513 707 q 717 531 671 611 q 764 349 764 450 q 717 166 764 247 q 592 37 671 85 q 413 -11 513 -11 q 294 10 351 -11 q 190 69 238 31 l 190 -283 l 88 -283 m 404 79 q 536 115 478 79 q 628 210 594 150 q 663 347 663 271 q 628 485 663 424 q 536 581 594 546 q 404 617 478 617 q 283 591 339 617 q 190 519 226 565 l 190 175 q 283 105 226 131 q 404 79 340 79 z "},"þ":{"ha":821,"x_min":88,"x_max":764,"o":"m 88 -283 l 88 972 l 190 996 l 190 622 q 414 707 279 707 q 592 659 513 707 q 717 531 671 611 q 764 349 764 450 q 717 166 764 247 q 592 37 671 85 q 413 -11 513 -11 q 294 10 351 -11 q 190 69 238 31 l 190 -283 l 88 -283 m 404 617 q 283 591 339 617 q 190 519 226 565 l 190 175 q 283 105 226 131 q 404 79 340 79 q 536 115 478 79 q 628 210 594 150 q 663 347 663 271 q 628 485 663 424 q 536 581 594 546 q 404 617 478 617 z "},"q":{"ha":819,"x_min":56,"x_max":732,"o":"m 629 -283 l 629 72 q 406 -11 538 -11 q 228 37 308 -11 q 102 166 149 85 q 56 349 56 247 q 102 531 56 450 q 228 659 149 611 q 407 707 308 707 q 527 686 469 707 q 631 628 585 665 l 631 696 l 732 696 l 732 -283 l 629 -283 m 415 79 q 537 105 481 79 q 629 176 593 131 l 629 521 q 537 591 593 565 q 415 617 481 617 q 284 582 343 617 q 191 487 225 547 q 157 350 157 426 q 191 213 157 274 q 284 115 225 151 q 415 79 343 79 z "},"r":{"ha":481,"x_min":88,"x_max":450,"o":"m 88 0 l 88 696 l 190 696 l 190 597 q 272 681 222 651 q 385 711 321 711 q 450 701 421 711 l 450 607 q 414 617 432 614 q 378 619 396 619 q 266 583 314 619 q 190 476 218 546 l 190 0 l 88 0 z "},"ŕ":{"ha":481,"x_min":88,"x_max":450,"o":"m 88 0 l 88 696 l 190 696 l 190 597 q 272 681 222 651 q 385 711 321 711 q 450 701 421 711 l 450 607 q 414 617 432 614 q 378 619 396 619 q 266 583 314 619 q 190 476 218 546 l 190 0 l 88 0 m 163 833 l 293 994 l 425 994 l 253 833 l 163 833 z "},"ř":{"ha":481,"x_min":51,"x_max":451,"o":"m 88 0 l 88 696 l 190 696 l 190 597 q 272 681 222 651 q 385 711 321 711 q 450 701 421 711 l 450 607 q 414 617 432 614 q 378 619 396 619 q 266 583 314 619 q 190 476 218 546 l 190 0 l 88 0 m 138 997 l 251 888 l 365 997 l 451 997 l 307 831 l 196 831 l 51 997 l 138 997 z "},"ŗ":{"ha":481,"x_min":31,"x_max":450,"o":"m 88 0 l 88 696 l 190 696 l 190 597 q 272 681 222 651 q 385 711 321 711 q 450 701 421 711 l 450 607 q 414 617 432 614 q 378 619 396 619 q 266 583 314 619 q 190 476 218 546 l 190 0 l 88 0 m 31 -367 l 88 -118 l 190 -118 l 107 -367 l 31 -367 z "},"s":{"ha":619,"x_min":17,"x_max":592,"o":"m 310 -14 q 148 15 224 -14 q 17 94 72 43 l 79 161 q 186 92 128 117 q 306 68 244 68 q 442 103 389 68 q 494 193 494 138 q 463 265 494 239 q 365 300 432 290 l 244 317 q 90 379 140 332 q 39 507 39 426 q 72 611 39 565 q 165 683 106 657 q 300 710 224 710 q 443 688 376 710 q 574 618 510 665 l 519 549 q 406 608 461 589 q 294 626 351 626 q 178 594 222 626 q 133 511 133 563 q 164 440 133 464 q 263 406 194 415 l 383 389 q 540 328 488 375 q 592 199 592 281 q 554 90 592 139 q 453 14 517 42 q 310 -14 390 -14 z "},"ś":{"ha":619,"x_min":17,"x_max":592,"o":"m 310 -14 q 148 15 224 -14 q 17 94 72 43 l 79 161 q 186 92 128 117 q 306 68 244 68 q 442 103 389 68 q 494 193 494 138 q 463 265 494 239 q 365 300 432 290 l 244 317 q 90 379 140 332 q 39 507 39 426 q 72 611 39 565 q 165 683 106 657 q 300 710 224 710 q 443 688 376 710 q 574 618 510 665 l 519 549 q 406 608 461 589 q 294 626 351 626 q 178 594 222 626 q 133 511 133 563 q 164 440 133 464 q 263 406 194 415 l 383 389 q 540 328 488 375 q 592 199 592 281 q 554 90 592 139 q 453 14 517 42 q 310 -14 390 -14 m 219 833 l 350 994 l 482 994 l 310 833 l 219 833 z "},"š":{"ha":619,"x_min":17,"x_max":592,"o":"m 310 -14 q 148 15 224 -14 q 17 94 72 43 l 79 161 q 186 92 128 117 q 306 68 244 68 q 442 103 389 68 q 494 193 494 138 q 463 265 494 239 q 365 300 432 290 l 244 317 q 90 379 140 332 q 39 507 39 426 q 72 611 39 565 q 165 683 106 657 q 300 710 224 710 q 443 688 376 710 q 574 618 510 665 l 519 549 q 406 608 461 589 q 294 626 351 626 q 178 594 222 626 q 133 511 133 563 q 164 440 133 464 q 263 406 194 415 l 383 389 q 540 328 488 375 q 592 199 592 281 q 554 90 592 139 q 453 14 517 42 q 310 -14 390 -14 m 194 997 l 308 888 l 422 997 l 508 997 l 364 831 l 253 831 l 108 997 l 194 997 z "},"ş":{"ha":619,"x_min":17,"x_max":592,"o":"m 293 -317 q 136 -260 197 -317 l 178 -215 q 293 -260 231 -260 q 358 -241 335 -260 q 382 -192 382 -222 q 356 -144 382 -161 q 286 -126 331 -126 l 246 -126 l 279 -11 q 135 21 203 -7 q 17 96 67 49 l 79 163 q 186 94 128 118 q 306 69 244 69 q 442 104 389 69 q 494 194 494 139 q 463 265 494 239 q 365 300 432 290 l 244 317 q 90 378 140 332 q 39 504 39 425 q 72 608 39 563 q 165 681 106 654 q 300 707 224 707 q 443 685 376 707 q 574 615 510 663 l 519 546 q 406 605 461 586 q 294 624 351 624 q 178 592 222 624 q 133 508 133 560 q 164 440 133 464 q 263 406 194 417 l 383 389 q 540 328 488 375 q 592 200 592 281 q 558 97 592 143 q 468 23 525 51 q 339 -11 411 -6 l 321 -76 q 417 -110 382 -79 q 453 -190 453 -140 q 408 -281 453 -246 q 293 -317 363 -317 z "},"ŝ":{"ha":619,"x_min":17,"x_max":592,"o":"m 310 -14 q 148 15 224 -14 q 17 94 72 43 l 79 161 q 186 92 128 117 q 306 68 244 68 q 442 103 389 68 q 494 193 494 138 q 463 265 494 239 q 365 300 432 290 l 244 317 q 90 379 140 332 q 39 507 39 426 q 72 611 39 565 q 165 683 106 657 q 300 710 224 710 q 443 688 376 710 q 574 618 510 665 l 519 549 q 406 608 461 589 q 294 626 351 626 q 178 594 222 626 q 133 511 133 563 q 164 440 133 464 q 263 406 194 415 l 383 389 q 540 328 488 375 q 592 199 592 281 q 554 90 592 139 q 453 14 517 42 q 310 -14 390 -14 m 424 828 l 307 939 l 192 828 l 108 828 l 253 996 l 364 996 l 508 828 l 424 828 z "},"ș":{"ha":619,"x_min":17,"x_max":592,"o":"m 310 -14 q 148 15 224 -14 q 17 94 72 43 l 79 161 q 186 92 128 117 q 306 68 244 68 q 442 103 389 68 q 494 193 494 138 q 463 265 494 239 q 365 300 432 290 l 244 317 q 90 379 140 332 q 39 507 39 426 q 72 611 39 565 q 165 683 106 657 q 300 710 224 710 q 443 688 376 710 q 574 618 510 665 l 519 549 q 406 608 461 589 q 294 626 351 626 q 178 594 222 626 q 133 511 133 563 q 164 440 133 464 q 263 406 194 415 l 383 389 q 540 328 488 375 q 592 199 592 281 q 554 90 592 139 q 453 14 517 42 q 310 -14 390 -14 m 203 -367 l 260 -118 l 363 -118 l 279 -367 l 203 -367 z "},"ß":{"ha":872,"x_min":88,"x_max":842,"o":"m 589 -15 q 317 97 432 -15 l 379 157 q 588 64 471 64 q 703 94 660 64 q 746 172 746 124 q 720 247 746 219 q 631 296 694 275 l 519 332 q 402 392 436 360 q 368 476 368 425 q 395 556 368 525 q 463 608 422 586 q 543 649 503 629 q 610 697 583 669 q 638 765 638 724 q 578 864 638 826 q 426 901 519 901 q 250 839 311 901 q 189 658 189 776 l 189 0 l 88 0 l 88 656 q 176 900 88 813 q 424 988 265 988 q 590 961 519 988 q 699 887 660 935 q 738 774 738 839 q 710 680 738 717 q 643 619 683 643 q 563 576 603 594 q 495 538 522 558 q 468 489 468 518 q 488 446 468 463 q 563 410 507 429 l 669 374 q 801 298 761 343 q 842 182 842 253 q 772 39 842 93 q 589 -15 703 -15 z "},"t":{"ha":507,"x_min":24,"x_max":485,"o":"m 361 -14 q 222 29 271 -14 q 174 154 174 72 l 174 608 l 24 608 l 24 696 l 174 696 l 174 872 l 275 899 l 275 696 l 485 696 l 485 608 l 275 608 l 275 181 q 300 101 275 125 q 382 76 325 76 q 434 81 411 76 q 483 94 457 85 l 483 4 q 424 -10 457 -6 q 361 -14 392 -14 z "},"ŧ":{"ha":507,"x_min":24,"x_max":489,"o":"m 361 -14 q 222 29 271 -14 q 174 154 174 72 l 174 365 l 24 365 l 24 447 l 174 447 l 174 608 l 24 608 l 24 696 l 174 696 l 174 872 l 275 899 l 275 696 l 485 696 l 485 608 l 275 608 l 275 447 l 489 447 l 489 365 l 275 365 l 275 181 q 300 101 275 125 q 382 76 325 76 q 434 81 411 76 q 483 94 457 85 l 483 4 q 424 -10 457 -6 q 361 -14 392 -14 z "},"ť":{"ha":507,"x_min":24,"x_max":497,"o":"m 361 -14 q 222 29 271 -14 q 174 154 174 72 l 174 608 l 24 608 l 24 696 l 174 696 l 174 872 l 275 899 l 275 696 l 485 696 l 485 608 l 275 608 l 275 181 q 300 101 275 125 q 382 76 325 76 q 434 81 411 76 q 483 94 457 85 l 483 4 q 424 -10 457 -6 q 361 -14 392 -14 m 385 806 l 392 1072 l 497 1088 l 463 806 l 385 806 z "},"ţ":{"ha":507,"x_min":24,"x_max":485,"o":"m 300 -317 q 143 -260 204 -317 l 185 -215 q 300 -260 238 -260 q 365 -241 342 -260 q 389 -192 389 -222 q 363 -144 389 -161 q 293 -126 338 -126 l 253 -126 l 288 -4 q 174 156 174 28 l 174 608 l 24 608 l 24 696 l 174 696 l 174 872 l 275 899 l 275 696 l 485 696 l 485 608 l 275 608 l 275 182 q 300 102 275 126 q 382 78 325 78 q 434 82 411 78 q 483 96 457 86 l 483 6 q 424 -8 457 -4 q 361 -12 392 -12 q 353 -12 357 -12 q 346 -12 350 -12 l 328 -76 q 424 -110 389 -79 q 460 -190 460 -140 q 415 -281 460 -246 q 300 -317 369 -317 z "},"ț":{"ha":507,"x_min":24,"x_max":485,"o":"m 361 -14 q 222 29 271 -14 q 174 154 174 72 l 174 608 l 24 608 l 24 696 l 174 696 l 174 872 l 275 899 l 275 696 l 485 696 l 485 608 l 275 608 l 275 181 q 300 101 275 125 q 382 76 325 76 q 434 81 411 76 q 483 94 457 85 l 483 4 q 424 -10 457 -6 q 361 -14 392 -14 m 218 -367 l 275 -118 l 378 -118 l 294 -367 l 218 -367 z "},"u":{"ha":763,"x_min":85,"x_max":675,"o":"m 354 -14 q 214 20 275 -14 q 119 115 153 54 q 85 256 85 175 l 85 696 l 186 696 l 186 276 q 239 130 186 183 q 381 76 292 76 q 492 105 443 76 q 572 185 542 133 l 572 696 l 675 696 l 675 0 l 572 0 l 572 81 q 354 -14 490 -14 z "},"ú":{"ha":763,"x_min":85,"x_max":675,"o":"m 354 -14 q 214 20 275 -14 q 119 115 153 54 q 85 256 85 175 l 85 696 l 186 696 l 186 276 q 239 130 186 183 q 381 76 292 76 q 492 105 443 76 q 572 185 542 133 l 572 696 l 675 696 l 675 0 l 572 0 l 572 81 q 354 -14 490 -14 m 292 833 l 422 994 l 554 994 l 382 833 l 292 833 z "},"ŭ":{"ha":763,"x_min":85,"x_max":675,"o":"m 354 -14 q 214 20 275 -14 q 119 115 153 54 q 85 256 85 175 l 85 696 l 186 696 l 186 276 q 239 130 186 183 q 381 76 292 76 q 492 105 443 76 q 572 185 542 133 l 572 696 l 675 696 l 675 0 l 572 0 l 572 81 q 354 -14 490 -14 m 381 822 q 241 867 297 822 q 167 993 185 913 l 239 1011 q 381 890 268 890 q 470 921 433 890 q 522 1011 507 951 l 594 993 q 519 867 576 913 q 381 822 463 822 z "},"û":{"ha":763,"x_min":85,"x_max":675,"o":"m 354 -14 q 214 20 275 -14 q 119 115 153 54 q 85 256 85 175 l 85 696 l 186 696 l 186 276 q 239 130 186 183 q 381 76 292 76 q 492 105 443 76 q 572 185 542 133 l 572 696 l 675 696 l 675 0 l 572 0 l 572 81 q 354 -14 490 -14 m 496 828 l 379 939 l 264 828 l 181 828 l 325 996 l 436 996 l 581 828 l 496 828 z "},"ü":{"ha":763,"x_min":85,"x_max":675,"o":"m 354 -14 q 214 20 275 -14 q 119 115 153 54 q 85 256 85 175 l 85 696 l 186 696 l 186 276 q 239 130 186 183 q 381 76 292 76 q 492 105 443 76 q 572 185 542 133 l 572 696 l 675 696 l 675 0 l 572 0 l 572 81 q 354 -14 490 -14 m 260 849 q 210 868 231 849 q 190 915 190 888 q 210 963 190 943 q 260 982 231 982 q 309 963 289 982 q 329 915 329 943 q 309 868 329 888 q 260 849 289 849 m 501 849 q 452 868 472 849 q 432 915 432 888 q 452 963 432 943 q 501 982 472 982 q 551 963 531 982 q 571 915 571 943 q 551 868 571 888 q 501 849 531 849 z "},"ù":{"ha":763,"x_min":85,"x_max":675,"o":"m 354 -14 q 214 20 275 -14 q 119 115 153 54 q 85 256 85 175 l 85 696 l 186 696 l 186 276 q 239 130 186 183 q 381 76 292 76 q 492 105 443 76 q 572 185 542 133 l 572 696 l 675 696 l 675 0 l 572 0 l 572 81 q 354 -14 490 -14 m 367 833 l 196 994 l 329 994 l 457 833 l 367 833 z "},"ű":{"ha":763,"x_min":85,"x_max":713,"o":"m 354 -14 q 214 20 275 -14 q 119 115 153 54 q 85 256 85 175 l 85 696 l 186 696 l 186 276 q 239 130 186 183 q 381 76 292 76 q 492 105 443 76 q 572 185 542 133 l 572 696 l 675 696 l 675 0 l 572 0 l 572 81 q 354 -14 490 -14 m 218 838 l 363 994 l 482 994 l 306 838 l 218 838 m 447 838 l 592 994 l 713 994 l 532 838 l 447 838 z "},"ū":{"ha":763,"x_min":85,"x_max":675,"o":"m 354 -14 q 214 20 275 -14 q 119 115 153 54 q 85 256 85 175 l 85 696 l 186 696 l 186 276 q 239 130 186 183 q 381 76 292 76 q 492 105 443 76 q 572 185 542 133 l 572 696 l 675 696 l 675 0 l 572 0 l 572 81 q 354 -14 490 -14 m 183 863 l 183 936 l 578 936 l 578 863 l 183 863 z "},"ų":{"ha":763,"x_min":85,"x_max":697,"o":"m 594 -307 q 496 -274 533 -307 q 458 -187 458 -242 q 491 -94 458 -139 q 596 0 524 -50 l 572 0 l 572 81 q 354 -14 490 -14 q 214 20 275 -14 q 119 115 153 54 q 85 256 85 175 l 85 696 l 186 696 l 186 276 q 239 130 186 183 q 381 76 292 76 q 492 105 443 76 q 572 185 542 133 l 572 696 l 675 696 l 675 0 q 564 -89 599 -47 q 529 -171 529 -131 q 550 -224 529 -206 q 610 -243 571 -243 q 645 -238 628 -243 q 676 -224 663 -233 l 697 -278 q 649 -299 675 -292 q 594 -307 624 -307 z "},"ů":{"ha":763,"x_min":85,"x_max":675,"o":"m 354 -14 q 214 20 275 -14 q 119 115 153 54 q 85 256 85 175 l 85 696 l 186 696 l 186 276 q 239 130 186 183 q 381 76 292 76 q 492 105 443 76 q 572 185 542 133 l 572 696 l 675 696 l 675 0 l 572 0 l 572 81 q 354 -14 490 -14 m 381 810 q 302 831 338 810 q 246 887 267 851 q 225 964 225 922 q 246 1042 225 1007 q 302 1097 267 1076 q 381 1118 338 1118 q 459 1097 424 1118 q 515 1042 494 1076 q 536 964 536 1007 q 515 887 536 922 q 459 831 494 851 q 381 810 424 810 m 381 867 q 449 895 421 867 q 478 964 478 924 q 449 1033 478 1004 q 381 1061 421 1061 q 312 1033 340 1061 q 283 964 283 1004 q 312 895 283 924 q 381 867 340 867 z "},"ũ":{"ha":763,"x_min":85,"x_max":675,"o":"m 354 -14 q 214 20 275 -14 q 119 115 153 54 q 85 256 85 175 l 85 696 l 186 696 l 186 276 q 239 130 186 183 q 381 76 292 76 q 492 105 443 76 q 572 185 542 133 l 572 696 l 675 696 l 675 0 l 572 0 l 572 81 q 354 -14 490 -14 m 219 826 l 147 840 q 278 979 178 979 q 351 960 315 979 q 418 922 386 942 q 479 903 450 903 q 517 921 503 903 q 542 982 532 939 l 613 968 q 565 864 599 899 q 482 829 532 829 q 410 849 446 829 q 342 887 375 868 q 281 906 310 906 q 242 888 256 906 q 219 826 228 869 z "},"v":{"ha":713,"x_min":7,"x_max":706,"o":"m 308 0 l 7 696 l 121 696 l 358 133 l 596 696 l 706 696 l 406 0 l 308 0 z "},"w":{"ha":976,"x_min":19,"x_max":957,"o":"m 215 0 l 19 696 l 121 696 l 271 140 l 444 696 l 536 696 l 708 140 l 860 696 l 957 696 l 760 0 l 661 0 l 489 557 l 315 0 l 215 0 z "},"ẃ":{"ha":976,"x_min":19,"x_max":957,"o":"m 215 0 l 19 696 l 121 696 l 271 140 l 444 696 l 536 696 l 708 140 l 860 696 l 957 696 l 760 0 l 661 0 l 489 557 l 315 0 l 215 0 m 400 833 l 531 994 l 663 994 l 490 833 l 400 833 z "},"ŵ":{"ha":976,"x_min":19,"x_max":957,"o":"m 215 0 l 19 696 l 121 696 l 271 140 l 444 696 l 536 696 l 708 140 l 860 696 l 957 696 l 760 0 l 661 0 l 489 557 l 315 0 l 215 0 m 604 828 l 488 939 l 372 828 l 289 828 l 433 996 l 544 996 l 689 828 l 604 828 z "},"ẅ":{"ha":976,"x_min":19,"x_max":957,"o":"m 215 0 l 19 696 l 121 696 l 271 140 l 444 696 l 536 696 l 708 140 l 860 696 l 957 696 l 760 0 l 661 0 l 489 557 l 315 0 l 215 0 m 368 849 q 319 868 339 849 q 299 915 299 888 q 319 963 299 943 q 368 982 339 982 q 417 963 397 982 q 438 915 438 943 q 417 868 438 888 q 368 849 397 849 m 610 849 q 560 868 581 849 q 540 915 540 888 q 560 963 540 943 q 610 982 581 982 q 659 963 639 982 q 679 915 679 943 q 659 868 679 888 q 610 849 639 849 z "},"ẁ":{"ha":976,"x_min":19,"x_max":957,"o":"m 215 0 l 19 696 l 121 696 l 271 140 l 444 696 l 536 696 l 708 140 l 860 696 l 957 696 l 760 0 l 661 0 l 489 557 l 315 0 l 215 0 m 475 833 l 304 994 l 438 994 l 565 833 l 475 833 z "},"x":{"ha":682,"x_min":7,"x_max":674,"o":"m 7 0 l 281 358 l 21 696 l 143 696 l 340 435 l 538 696 l 656 696 l 399 360 l 674 0 l 551 0 l 339 283 l 124 0 l 7 0 z "},"y":{"ha":708,"x_min":7,"x_max":700,"o":"m 117 -297 q 80 -295 97 -297 q 51 -290 63 -293 l 51 -197 q 110 -203 75 -203 q 249 -94 201 -203 l 290 1 l 7 696 l 121 696 l 346 125 l 589 696 l 700 696 l 353 -108 q 290 -217 324 -175 q 215 -278 257 -258 q 117 -297 172 -297 z "},"ý":{"ha":708,"x_min":7,"x_max":700,"o":"m 117 -297 q 80 -295 97 -297 q 51 -290 63 -293 l 51 -197 q 110 -203 75 -203 q 249 -94 201 -203 l 290 1 l 7 696 l 121 696 l 346 125 l 589 696 l 700 696 l 353 -108 q 290 -217 324 -175 q 215 -278 257 -258 q 117 -297 172 -297 m 258 833 l 389 994 l 521 994 l 349 833 l 258 833 z "},"ŷ":{"ha":708,"x_min":7,"x_max":700,"o":"m 117 -297 q 80 -295 97 -297 q 51 -290 63 -293 l 51 -197 q 110 -203 75 -203 q 249 -94 201 -203 l 290 1 l 7 696 l 121 696 l 346 125 l 589 696 l 700 696 l 353 -108 q 290 -217 324 -175 q 215 -278 257 -258 q 117 -297 172 -297 m 463 828 l 346 939 l 231 828 l 147 828 l 292 996 l 403 996 l 547 828 l 463 828 z "},"ÿ":{"ha":708,"x_min":7,"x_max":700,"o":"m 117 -297 q 80 -295 97 -297 q 51 -290 63 -293 l 51 -197 q 110 -203 75 -203 q 249 -94 201 -203 l 290 1 l 7 696 l 121 696 l 346 125 l 589 696 l 700 696 l 353 -108 q 290 -217 324 -175 q 215 -278 257 -258 q 117 -297 172 -297 m 226 849 q 177 868 197 849 q 157 915 157 888 q 177 963 157 943 q 226 982 197 982 q 276 963 256 982 q 296 915 296 943 q 276 868 296 888 q 226 849 256 849 m 468 849 q 419 868 439 849 q 399 915 399 888 q 419 963 399 943 q 468 982 439 982 q 517 963 497 982 q 538 915 538 943 q 517 868 538 888 q 468 849 497 849 z "},"ỳ":{"ha":708,"x_min":7,"x_max":700,"o":"m 117 -297 q 80 -295 97 -297 q 51 -290 63 -293 l 51 -197 q 110 -203 75 -203 q 249 -94 201 -203 l 290 1 l 7 696 l 121 696 l 346 125 l 589 696 l 700 696 l 353 -108 q 290 -217 324 -175 q 215 -278 257 -258 q 117 -297 172 -297 m 333 833 l 163 994 l 296 994 l 424 833 l 333 833 z "},"z":{"ha":643,"x_min":43,"x_max":592,"o":"m 43 0 l 43 81 l 463 604 l 47 604 l 47 696 l 588 696 l 588 617 l 167 92 l 592 92 l 592 0 l 43 0 z "},"ź":{"ha":643,"x_min":43,"x_max":592,"o":"m 43 0 l 43 81 l 463 604 l 47 604 l 47 696 l 588 696 l 588 617 l 167 92 l 592 92 l 592 0 l 43 0 m 228 833 l 358 994 l 490 994 l 318 833 l 228 833 z "},"ž":{"ha":643,"x_min":43,"x_max":592,"o":"m 43 0 l 43 81 l 463 604 l 47 604 l 47 696 l 588 696 l 588 617 l 167 92 l 592 92 l 592 0 l 43 0 m 203 997 l 317 888 l 431 997 l 517 997 l 372 831 l 261 831 l 117 997 l 203 997 z "},"ż":{"ha":643,"x_min":43,"x_max":592,"o":"m 43 0 l 43 81 l 463 604 l 47 604 l 47 696 l 588 696 l 588 617 l 167 92 l 592 92 l 592 0 l 43 0 m 317 836 q 269 856 289 836 q 249 904 249 876 q 269 952 249 932 q 317 972 289 972 q 365 952 344 972 q 385 904 385 932 q 365 856 385 876 q 317 836 344 836 z "},"ﬁ":{"ha":797,"x_min":24,"x_max":728,"o":"m 188 0 l 188 608 l 24 608 l 24 696 l 188 696 l 188 828 q 243 985 188 931 q 403 1039 299 1039 q 453 1036 431 1039 q 496 1026 475 1033 l 496 935 q 453 945 472 942 q 410 949 433 949 q 319 919 349 949 q 289 825 289 889 l 289 696 l 496 696 l 496 608 l 289 608 l 289 0 l 188 0 m 607 0 l 607 696 l 710 696 l 710 0 l 607 0 m 658 829 q 610 850 631 829 q 589 899 589 871 q 610 948 589 928 q 658 968 631 968 q 708 948 688 968 q 728 899 728 928 q 708 850 728 871 q 658 829 688 829 z "},"ﬂ":{"ha":797,"x_min":24,"x_max":710,"o":"m 188 0 l 188 608 l 24 608 l 24 696 l 188 696 l 188 828 q 243 985 188 931 q 403 1039 299 1039 q 453 1036 431 1039 q 496 1026 475 1033 l 496 935 q 453 945 472 942 q 410 949 433 949 q 319 919 349 949 q 289 825 289 889 l 289 696 l 496 696 l 496 608 l 289 608 l 289 0 l 188 0 m 607 0 l 607 972 l 710 996 l 710 0 l 607 0 z "},"ª":{"ha":567,"x_min":46,"x_max":492,"o":"m 240 443 q 100 487 154 443 q 46 601 46 531 q 103 718 46 675 q 258 761 161 761 q 336 753 299 761 q 407 729 374 744 l 407 793 q 272 914 407 914 q 196 903 235 914 q 108 869 157 893 l 76 935 q 183 975 133 963 q 282 988 233 988 q 438 940 383 988 q 492 803 492 892 l 492 453 l 407 453 l 407 501 q 240 443 336 443 m 257 510 q 339 524 301 510 q 407 564 376 538 l 407 663 q 341 691 376 682 q 261 700 306 700 q 165 674 201 700 q 129 604 129 649 q 165 535 129 561 q 257 510 200 510 z "},"º":{"ha":644,"x_min":53,"x_max":592,"o":"m 322 440 q 186 477 247 440 q 89 576 125 514 q 53 714 53 638 q 89 852 53 790 q 186 951 125 914 q 322 988 247 988 q 458 951 397 988 q 556 852 519 914 q 592 714 592 790 q 556 576 592 638 q 458 477 519 514 q 322 440 397 440 m 322 517 q 415 543 374 517 q 481 614 457 569 q 506 714 506 658 q 481 814 506 769 q 415 885 457 858 q 322 911 374 911 q 229 885 271 911 q 163 814 188 858 q 139 714 139 769 q 163 614 139 658 q 229 543 188 569 q 322 517 271 517 z "}," ":{"ha":299,"x_min":0,"x_max":0,"o":""}," ":{"ha":299,"x_min":0,"x_max":0,"o":""}," ":{"ha":694,"x_min":0,"x_max":0,"o":""}," ":{"ha":1389,"x_min":0,"x_max":0,"o":""}," ":{"ha":243,"x_min":0,"x_max":0,"o":""}," ":{"ha":139,"x_min":0,"x_max":0,"o":""},"​":{"ha":0,"x_min":0,"x_max":0,"o":""},"﻿":{"ha":0,"x_min":0,"x_max":0,"o":""},"\r":{"ha":299,"x_min":0,"x_max":0,"o":""},".":{"ha":347,"x_min":103,"x_max":244,"o":"m 174 -8 q 124 13 144 -8 q 103 63 103 33 q 124 113 103 92 q 174 133 144 133 q 224 113 203 133 q 244 63 244 92 q 224 13 244 33 q 174 -8 203 -8 z "},",":{"ha":347,"x_min":61,"x_max":253,"o":"m 61 -190 l 142 103 l 253 103 l 142 -190 l 61 -190 z "},":":{"ha":347,"x_min":103,"x_max":244,"o":"m 174 -8 q 124 13 144 -8 q 103 63 103 33 q 124 113 103 92 q 174 133 144 133 q 224 113 203 133 q 244 63 244 92 q 224 13 244 33 q 174 -8 203 -8 m 174 569 q 124 590 144 569 q 103 640 103 611 q 124 690 103 669 q 174 711 144 711 q 224 690 203 711 q 244 640 244 669 q 224 590 244 611 q 174 569 203 569 z "},";":{"ha":347,"x_min":51,"x_max":256,"o":"m 185 569 q 135 590 156 569 q 114 640 114 611 q 135 690 114 669 q 185 711 156 711 q 235 690 214 711 q 256 640 256 669 q 235 590 256 611 q 185 569 214 569 m 51 -190 l 132 103 l 243 103 l 132 -190 l 51 -190 z "},"…":{"ha":888,"x_min":103,"x_max":785,"o":"m 174 -8 q 124 13 144 -8 q 103 63 103 33 q 124 113 103 92 q 174 133 144 133 q 224 113 203 133 q 244 63 244 92 q 224 13 244 33 q 174 -8 203 -8 m 444 -8 q 394 13 415 -8 q 374 63 374 33 q 394 113 374 92 q 444 133 415 133 q 494 113 474 133 q 515 63 515 92 q 494 13 515 33 q 444 -8 474 -8 m 714 -8 q 664 13 685 -8 q 643 63 643 33 q 664 113 643 92 q 714 133 685 133 q 764 113 743 133 q 785 63 785 92 q 764 13 785 33 q 714 -8 743 -8 z "},"!":{"ha":275,"x_min":67,"x_max":208,"o":"m 96 269 l 83 979 l 190 979 l 178 269 l 96 269 m 138 -8 q 88 13 108 -8 q 67 63 67 33 q 88 113 67 92 q 138 133 108 133 q 188 113 167 133 q 208 63 208 92 q 188 13 208 33 q 138 -8 167 -8 z "},"¡":{"ha":275,"x_min":67,"x_max":208,"o":"m 179 421 l 192 -289 l 85 -289 l 97 421 l 179 421 m 138 699 q 188 678 167 699 q 208 628 208 657 q 188 578 208 599 q 138 557 167 557 q 88 578 108 557 q 67 628 67 599 q 88 678 67 657 q 138 699 108 699 z "},"?":{"ha":703,"x_min":28,"x_max":647,"o":"m 261 276 q 268 387 258 340 q 304 470 278 433 q 375 539 331 507 l 436 582 q 522 663 497 626 q 546 746 546 699 q 519 822 546 789 q 447 876 492 856 q 344 896 401 896 q 216 864 276 896 q 108 771 156 832 l 28 824 q 119 913 68 876 q 228 969 169 950 q 350 988 286 988 q 502 956 435 988 q 608 871 569 925 q 647 747 647 817 q 633 662 647 700 q 583 588 618 624 q 485 508 547 551 l 438 475 q 365 393 386 440 q 350 276 344 346 l 261 276 m 306 -8 q 256 13 276 -8 q 235 63 235 33 q 256 113 235 92 q 306 133 276 133 q 356 113 335 133 q 376 63 376 92 q 356 13 376 33 q 306 -8 335 -8 z "},"¿":{"ha":703,"x_min":56,"x_max":675,"o":"m 442 414 q 435 304 446 351 q 399 221 425 257 q 328 151 374 185 l 267 108 q 182 28 207 65 q 157 -56 157 -8 q 184 -131 157 -97 q 257 -185 211 -165 q 358 -206 303 -206 q 488 -174 428 -206 q 594 -81 547 -142 l 675 -133 q 584 -223 635 -186 q 475 -278 533 -260 q 353 -297 417 -297 q 201 -266 268 -297 q 94 -180 133 -235 q 56 -57 56 -125 q 70 29 56 -8 q 121 103 85 67 q 218 182 157 140 l 265 215 q 338 298 317 251 q 353 414 358 344 l 442 414 m 397 699 q 447 678 426 699 q 468 628 468 657 q 447 578 468 599 q 397 557 426 557 q 347 578 368 557 q 326 628 326 599 q 347 678 326 657 q 397 699 368 699 z "},"·":{"ha":347,"x_min":103,"x_max":244,"o":"m 174 321 q 124 342 144 321 q 103 392 103 363 q 124 442 103 421 q 174 463 144 463 q 224 442 203 463 q 244 392 244 421 q 224 342 244 363 q 174 321 203 321 z "},"•":{"ha":456,"x_min":88,"x_max":368,"o":"m 226 350 q 157 369 189 350 q 106 419 125 388 q 88 489 88 451 q 106 560 88 528 q 157 611 125 592 q 226 631 189 631 q 297 611 265 631 q 349 560 329 592 q 368 489 368 528 q 349 419 368 451 q 299 369 331 388 q 226 350 267 350 z "},"*":{"ha":619,"x_min":69,"x_max":551,"o":"m 272 474 l 275 665 l 110 564 l 69 626 l 242 728 l 75 828 l 115 889 l 274 790 l 272 972 l 347 972 l 346 792 l 503 889 l 544 828 l 378 728 l 551 626 l 508 564 l 344 665 l 347 474 l 272 474 z "},"#":{"ha":961,"x_min":42,"x_max":919,"o":"m 110 0 l 197 304 l 42 304 l 42 385 l 219 385 l 278 588 l 111 588 l 111 668 l 300 668 l 388 972 l 482 972 l 394 668 l 669 668 l 757 972 l 851 972 l 764 668 l 919 668 l 919 588 l 742 588 l 683 385 l 850 385 l 850 304 l 661 304 l 574 0 l 479 0 l 567 304 l 292 304 l 204 0 l 110 0 m 314 385 l 589 385 l 647 588 l 372 588 l 314 385 z "},"/":{"ha":635,"x_min":-93,"x_max":596,"o":"m -93 -283 l 492 972 l 596 972 l 10 -283 l -93 -283 z "},"\\":{"ha":642,"x_min":42,"x_max":735,"o":"m 626 -283 l 42 972 l 149 972 l 735 -283 l 626 -283 z "},"-":{"ha":621,"x_min":68,"x_max":553,"o":"m 68 344 l 68 436 l 553 436 l 553 344 l 68 344 z "},"–":{"ha":760,"x_min":68,"x_max":692,"o":"m 68 344 l 68 436 l 692 436 l 692 344 l 68 344 z "},"—":{"ha":968,"x_min":68,"x_max":900,"o":"m 68 344 l 68 436 l 900 436 l 900 344 l 68 344 z "},"―":{"ha":1315,"x_min":68,"x_max":1247,"o":"m 68 344 l 68 436 l 1247 436 l 1247 344 l 68 344 z "},"_":{"ha":669,"x_min":-1,"x_max":671,"o":"m -1 -190 l -1 -111 l 671 -111 l 671 -190 l -1 -190 z "},"(":{"ha":540,"x_min":89,"x_max":489,"o":"m 435 -296 q 178 -31 267 -196 q 89 346 89 133 q 178 723 89 558 q 435 986 267 888 l 489 917 q 266 683 344 832 q 188 346 188 535 q 266 8 188 157 q 489 -225 344 -142 l 435 -296 z "},")":{"ha":540,"x_min":51,"x_max":451,"o":"m 106 994 q 363 730 274 894 q 451 353 451 565 q 363 -24 451 140 q 106 -287 274 -189 l 51 -218 q 274 15 196 -133 q 353 353 353 164 q 274 692 353 543 q 51 924 196 840 l 106 994 z "},"{":{"ha":531,"x_min":39,"x_max":475,"o":"m 364 -297 q 233 -260 283 -297 q 172 -161 183 -224 q 192 -22 160 -99 l 250 118 q 253 249 282 196 q 149 303 225 303 l 39 303 l 39 388 l 149 388 q 253 442 225 388 q 250 574 282 497 l 192 711 q 172 851 160 789 q 233 951 183 914 q 364 988 283 988 q 418 983 392 988 q 475 967 444 978 l 454 889 q 410 901 431 897 q 368 904 390 904 q 276 857 300 904 q 281 736 251 810 l 347 568 q 346 429 378 492 q 238 346 314 367 q 346 260 315 324 q 347 124 376 197 l 281 -46 q 276 -166 251 -118 q 368 -214 300 -214 q 410 -210 390 -214 q 454 -199 431 -207 l 475 -276 q 418 -292 444 -287 q 364 -297 392 -297 z "},"}":{"ha":531,"x_min":56,"x_max":492,"o":"m 167 988 q 298 951 249 988 q 359 852 347 914 q 339 713 371 790 l 281 572 q 277 442 249 496 q 382 388 306 388 l 492 388 l 492 303 l 382 303 q 277 249 306 303 q 281 117 249 194 l 339 -21 q 360 -160 372 -97 q 298 -260 347 -224 q 167 -297 249 -297 q 113 -292 139 -297 q 56 -276 86 -287 l 76 -199 q 120 -210 100 -207 q 163 -214 140 -214 q 255 -166 231 -214 q 250 -46 279 -118 l 183 122 q 185 261 153 199 q 293 344 217 324 q 185 431 217 368 q 183 567 154 493 l 250 736 q 255 857 279 810 q 163 904 231 904 q 120 901 140 904 q 76 889 100 897 l 56 967 q 113 983 86 978 q 167 988 139 988 z "},"[":{"ha":482,"x_min":79,"x_max":429,"o":"m 79 -287 l 79 972 l 429 972 l 429 889 l 178 889 l 178 -204 l 429 -204 l 429 -287 l 79 -287 z "},"]":{"ha":482,"x_min":53,"x_max":403,"o":"m 403 972 l 403 -287 l 53 -287 l 53 -204 l 304 -204 l 304 889 l 53 889 l 53 972 l 403 972 z "},"‚":{"ha":347,"x_min":61,"x_max":253,"o":"m 61 -190 l 142 103 l 253 103 l 142 -190 l 61 -190 z "},"„":{"ha":536,"x_min":61,"x_max":442,"o":"m 250 -190 l 331 103 l 442 103 l 331 -190 l 250 -190 m 61 -190 l 142 103 l 253 103 l 142 -190 l 61 -190 z "},"“":{"ha":536,"x_min":88,"x_max":468,"o":"m 279 999 l 199 706 l 88 706 l 199 999 l 279 999 m 468 999 l 388 706 l 276 706 l 388 999 l 468 999 z "},"”":{"ha":536,"x_min":88,"x_max":468,"o":"m 276 706 l 357 999 l 468 999 l 357 706 l 276 706 m 88 706 l 168 999 l 279 999 l 168 706 l 88 706 z "},"‘":{"ha":347,"x_min":88,"x_max":279,"o":"m 279 999 l 199 706 l 88 706 l 199 999 l 279 999 z "},"’":{"ha":347,"x_min":88,"x_max":279,"o":"m 88 706 l 168 999 l 279 999 l 168 706 l 88 706 z "},"«":{"ha":831,"x_min":43,"x_max":771,"o":"m 368 0 l 43 349 l 368 696 l 478 696 l 161 351 l 482 0 l 368 0 m 657 0 l 332 349 l 657 696 l 767 696 l 450 351 l 771 0 l 657 0 z "},"»":{"ha":831,"x_min":58,"x_max":788,"o":"m 463 696 l 788 347 l 463 0 l 353 0 l 669 344 l 349 696 l 463 696 m 172 696 l 497 347 l 172 0 l 63 0 l 379 344 l 58 696 l 172 696 z "},"‹":{"ha":540,"x_min":43,"x_max":482,"o":"m 368 0 l 43 349 l 368 696 l 478 696 l 161 351 l 482 0 l 368 0 z "},"›":{"ha":540,"x_min":58,"x_max":497,"o":"m 172 696 l 497 347 l 172 0 l 63 0 l 379 344 l 58 696 l 172 696 z "},"\"":{"ha":442,"x_min":81,"x_max":363,"o":"m 96 690 l 81 974 l 185 974 l 169 690 l 96 690 m 274 690 l 258 974 l 363 974 l 347 690 l 274 690 z "},"'":{"ha":265,"x_min":81,"x_max":185,"o":"m 96 690 l 81 974 l 185 974 l 169 690 l 96 690 z "},"@":{"ha":1078,"x_min":61,"x_max":1018,"o":"m 560 -200 q 362 -163 453 -200 q 203 -60 271 -126 q 99 94 136 6 q 61 288 61 183 q 99 490 61 397 q 203 653 136 583 q 360 761 269 722 q 556 800 450 800 q 738 767 654 800 q 885 677 822 735 q 983 542 947 619 q 1018 374 1018 464 q 986 222 1018 289 q 899 115 954 154 q 772 76 843 76 q 643 133 682 76 q 571 87 608 103 q 496 71 533 71 q 394 99 439 71 q 323 174 349 126 q 297 281 297 221 q 328 404 297 349 q 413 493 360 460 q 532 526 467 526 q 672 472 618 526 l 679 508 l 757 508 l 703 242 q 713 165 693 192 q 781 138 733 138 q 868 168 829 138 q 929 252 907 199 q 951 371 951 306 q 899 560 951 476 q 756 691 846 643 q 553 739 667 739 q 387 705 464 739 q 251 610 310 671 q 161 467 193 549 q 129 290 129 385 q 185 70 129 167 q 340 -82 242 -26 q 564 -137 439 -137 q 800 -81 694 -137 l 825 -137 q 698 -184 765 -168 q 560 -200 631 -200 m 513 136 q 625 185 576 136 q 624 215 624 200 q 628 249 624 231 l 657 396 q 604 443 638 426 q 531 460 571 460 q 452 436 488 460 q 395 373 417 413 q 374 286 374 333 q 413 178 374 219 q 513 136 451 136 z "},"&":{"ha":907,"x_min":36,"x_max":897,"o":"m 357 -15 q 189 19 261 -15 q 76 117 117 54 q 36 261 36 179 q 56 366 36 319 q 124 454 76 413 q 251 540 171 496 q 183 652 203 601 q 163 758 163 703 q 193 876 163 824 q 277 958 224 928 q 397 988 331 988 q 510 962 461 988 q 588 891 560 936 q 617 786 617 846 q 579 664 617 718 q 461 563 542 610 l 392 521 q 517 390 449 457 q 656 258 585 324 q 713 381 690 314 q 750 519 736 447 l 844 504 q 797 338 826 415 q 725 196 768 261 q 814 122 769 157 q 897 56 858 86 l 835 -18 q 753 47 796 13 q 668 117 711 81 q 528 19 608 53 q 357 -15 449 -15 m 338 585 l 417 631 q 494 699 468 661 q 519 783 519 736 q 483 869 519 835 q 394 904 447 904 q 298 864 336 904 q 260 760 260 824 q 277 677 260 717 q 338 585 294 638 m 363 72 q 492 99 432 72 q 600 178 553 126 q 443 327 519 251 q 306 474 367 403 q 202 407 240 439 q 149 341 164 375 q 133 264 133 307 q 197 125 133 178 q 363 72 260 72 z "},"¶":{"ha":904,"x_min":53,"x_max":797,"o":"m 442 0 l 442 401 l 360 401 q 200 438 269 401 q 92 538 131 474 q 53 686 53 603 q 92 836 53 772 q 199 936 131 900 q 358 972 268 972 l 797 972 l 797 0 l 701 0 l 701 401 l 536 401 l 536 0 l 442 0 m 536 489 l 701 489 l 701 885 l 536 885 l 536 489 m 360 489 l 442 489 l 442 885 l 360 885 q 209 831 267 885 q 151 688 151 776 q 209 543 151 597 q 360 489 267 489 z "},"§":{"ha":786,"x_min":82,"x_max":704,"o":"m 389 -69 q 265 -52 329 -69 q 140 -3 201 -35 l 181 71 q 389 7 301 7 q 495 36 457 7 q 533 117 533 65 q 508 184 533 157 q 428 229 483 211 l 275 279 q 126 359 169 314 q 82 479 82 404 q 121 591 82 544 q 226 656 160 638 q 157 796 157 708 q 223 934 157 882 q 397 986 289 986 q 521 968 457 986 q 646 918 585 950 l 604 844 q 396 910 489 910 q 290 881 328 910 q 251 800 251 851 q 277 733 251 760 q 358 688 303 706 l 510 638 q 660 558 617 603 q 704 436 704 513 q 665 326 704 372 q 558 260 626 279 q 628 119 628 207 q 562 -17 628 35 q 389 -69 496 -69 m 472 304 q 576 344 538 311 q 614 429 614 378 q 584 503 614 474 q 488 554 554 532 l 328 606 q 320 608 324 607 q 314 611 317 610 q 209 571 247 604 q 171 486 171 538 q 201 414 171 443 q 297 361 231 385 l 457 310 q 465 308 461 308 q 472 304 468 307 z "},"©":{"ha":1117,"x_min":61,"x_max":1056,"o":"m 574 231 q 446 265 503 231 q 356 357 389 299 q 322 486 322 415 q 356 616 322 558 q 446 708 389 674 q 574 743 503 743 q 680 722 629 743 q 768 663 731 701 l 718 607 q 651 655 689 639 q 575 671 614 671 q 487 647 526 671 q 424 581 447 622 q 401 486 401 539 q 424 393 401 435 q 487 327 447 351 q 575 303 526 303 q 651 318 615 303 q 717 364 686 333 l 767 310 q 678 251 728 271 q 574 231 629 231 m 558 -15 q 363 23 453 -15 q 204 130 272 61 q 99 290 136 199 q 61 486 61 381 q 99 683 61 592 q 204 842 136 774 q 363 949 272 911 q 558 988 453 988 q 754 949 664 988 q 913 843 844 911 q 1018 684 981 775 q 1056 486 1056 593 q 1018 289 1056 381 q 913 129 981 197 q 754 23 844 61 q 558 -15 664 -15 m 558 44 q 728 78 649 44 q 866 173 807 113 q 958 314 925 233 q 992 486 992 394 q 958 658 992 578 q 866 799 925 739 q 728 894 807 860 q 558 928 649 928 q 390 894 468 928 q 253 799 313 860 q 161 658 194 739 q 128 486 128 578 q 161 314 128 394 q 253 173 194 233 q 390 78 313 113 q 558 44 468 44 z "},"®":{"ha":679,"x_min":63,"x_max":617,"o":"m 339 432 q 199 469 261 432 q 99 569 136 506 q 63 711 63 633 q 99 853 63 790 q 199 953 136 917 q 339 990 261 990 q 480 953 417 990 q 580 853 543 917 q 617 711 617 790 q 580 569 617 633 q 480 469 543 506 q 339 432 417 432 m 339 479 q 456 509 406 479 q 536 592 507 539 q 565 711 565 644 q 536 831 565 778 q 456 913 507 883 q 339 943 406 943 q 224 913 275 943 q 143 831 172 883 q 114 711 114 778 q 143 593 114 646 q 224 510 172 540 q 339 479 275 479 m 247 582 l 247 843 l 350 843 q 415 822 392 843 q 439 764 439 801 q 426 721 439 740 q 390 690 413 701 l 454 582 l 403 582 l 344 681 l 294 681 l 294 582 l 247 582 m 344 804 l 294 804 l 294 717 l 343 717 q 392 761 392 717 q 380 793 392 782 q 344 804 368 804 z "},"™":{"ha":938,"x_min":46,"x_max":847,"o":"m 450 585 l 450 972 l 526 972 l 649 721 l 771 972 l 847 972 l 847 585 l 789 585 l 792 897 l 649 611 l 507 893 l 508 585 l 450 585 m 183 585 l 183 919 l 46 919 l 46 972 l 381 972 l 381 919 l 243 919 l 243 585 l 183 585 z "},"°":{"ha":561,"x_min":82,"x_max":479,"o":"m 281 588 q 181 615 226 588 q 109 688 136 642 q 82 788 82 733 q 109 888 82 843 q 181 960 136 933 q 281 988 226 988 q 381 960 336 988 q 452 888 425 933 q 479 788 479 843 q 452 688 479 733 q 381 615 425 642 q 281 588 336 588 m 281 656 q 372 694 333 656 q 410 788 410 733 q 372 881 410 842 q 281 919 333 919 q 190 881 228 919 q 151 788 151 842 q 190 694 151 733 q 281 656 228 656 z "},"′":{"ha":347,"x_min":88,"x_max":279,"o":"m 88 706 l 168 999 l 279 999 l 168 706 l 88 706 z "},"″":{"ha":536,"x_min":88,"x_max":468,"o":"m 276 706 l 357 999 l 468 999 l 357 706 l 276 706 m 88 706 l 168 999 l 279 999 l 168 706 l 88 706 z "},"|":{"ha":381,"x_min":143,"x_max":238,"o":"m 143 -283 l 143 972 l 238 972 l 238 -283 l 143 -283 z "},"¦":{"ha":381,"x_min":143,"x_max":238,"o":"m 143 400 l 143 972 l 238 972 l 238 400 l 143 400 m 143 -283 l 143 289 l 238 289 l 238 -283 l 143 -283 z "},"†":{"ha":590,"x_min":75,"x_max":517,"o":"m 250 0 l 250 614 l 75 614 l 75 697 l 250 697 l 250 972 l 342 972 l 342 697 l 517 697 l 517 614 l 342 614 l 342 0 l 250 0 z "},"‡":{"ha":590,"x_min":75,"x_max":517,"o":"m 250 0 l 250 275 l 75 275 l 75 358 l 250 358 l 250 614 l 75 614 l 75 697 l 250 697 l 250 972 l 342 972 l 342 697 l 517 697 l 517 614 l 342 614 l 342 358 l 517 358 l 517 275 l 342 275 l 342 0 l 250 0 z "},"�":{"ha":833,"x_min":143,"x_max":690,"o":"m 143 -139 l 143 1042 l 690 1042 l 690 -139 l 143 -139 z "},"¢":{"ha":715,"x_min":56,"x_max":682,"o":"m 365 -164 l 365 -10 q 208 51 278 1 q 97 178 138 100 q 56 349 56 256 q 97 519 56 442 q 208 646 138 596 q 365 707 278 696 l 365 846 l 436 846 l 436 708 q 569 676 506 704 q 682 600 633 649 l 617 525 q 533 587 579 564 q 436 614 486 610 l 436 82 q 531 108 485 86 q 615 168 576 129 l 679 99 q 567 22 629 51 q 436 -11 504 -7 l 436 -164 l 365 -164 m 157 349 q 184 226 157 282 q 258 133 211 169 q 365 85 306 96 l 365 611 q 258 563 306 600 q 184 470 211 525 q 157 349 157 415 z "},"¤":{"ha":947,"x_min":64,"x_max":883,"o":"m 118 89 l 64 144 l 193 275 q 138 379 158 321 q 118 501 118 438 q 138 624 118 567 q 194 726 158 681 l 64 858 l 119 915 l 250 783 q 353 842 296 821 q 474 863 410 863 q 594 842 538 863 q 697 783 651 821 l 828 915 l 882 860 l 750 728 q 807 624 786 682 q 828 501 828 567 q 808 380 828 438 q 753 276 789 322 l 883 144 l 828 88 l 697 218 q 594 160 651 181 q 474 139 538 139 q 351 160 410 139 q 247 219 293 182 l 118 89 m 474 232 q 602 268 544 232 q 694 365 660 304 q 728 501 728 426 q 694 638 728 578 q 602 735 660 699 q 474 771 544 771 q 345 735 403 771 q 253 638 288 699 q 219 501 219 578 q 253 365 219 426 q 345 268 288 304 q 474 232 403 232 z "},"$":{"ha":788,"x_min":31,"x_max":746,"o":"m 356 -93 l 356 29 q 176 77 260 38 q 31 185 93 117 l 94 253 q 356 113 206 133 l 356 454 l 307 464 q 110 548 168 494 q 51 700 51 601 q 90 829 51 774 q 198 916 129 885 q 356 947 267 947 l 356 1065 l 426 1065 l 426 944 q 584 905 507 935 q 728 826 661 875 l 675 749 q 549 819 611 793 q 426 856 488 846 l 426 535 l 474 525 q 685 438 624 492 q 746 285 746 383 q 706 154 746 211 q 593 64 665 97 q 426 26 521 31 l 426 -93 l 356 -93 m 356 549 l 356 861 q 205 818 263 860 q 147 708 147 776 q 165 636 147 665 q 222 588 182 607 q 333 553 263 568 l 356 549 m 426 110 q 585 162 524 115 q 647 281 647 208 q 629 352 647 324 q 568 401 611 381 q 447 436 525 421 l 426 440 l 426 110 z "},"€":{"ha":1076,"x_min":46,"x_max":1014,"o":"m 643 -15 q 433 32 528 -15 q 276 163 339 79 q 188 360 213 247 l 46 360 l 46 431 l 178 431 q 176 458 176 444 q 175 486 175 472 q 176 517 175 501 q 178 546 176 532 l 46 546 l 46 615 l 189 615 q 278 811 214 728 q 437 941 342 894 q 647 988 532 988 q 856 944 763 988 q 1014 814 950 900 l 940 757 q 813 863 889 826 q 644 899 738 899 q 483 864 556 899 q 362 766 411 829 q 290 615 313 703 l 683 615 l 658 546 l 278 546 q 276 517 276 532 q 275 486 275 501 q 276 458 275 472 q 278 431 276 444 l 618 431 l 593 360 l 290 360 q 360 209 311 274 q 482 110 410 144 q 643 75 554 75 q 812 112 733 75 q 939 217 890 149 l 1010 161 q 851 31 946 76 q 643 -15 756 -15 z "},"£":{"ha":854,"x_min":11,"x_max":839,"o":"m 635 -28 q 597 -26 617 -28 q 556 -19 576 -24 l 279 38 q 251 42 265 40 q 225 43 238 43 q 143 20 176 43 q 86 -51 110 -3 l 11 -1 q 92 94 46 61 q 200 131 139 126 q 236 218 236 158 q 235 230 236 222 q 232 258 235 238 q 222 319 229 278 q 201 433 214 361 l 56 433 l 56 513 l 188 513 q 171 610 176 575 q 164 663 165 644 q 163 693 163 681 q 199 849 163 783 q 301 951 235 915 q 461 988 368 988 q 665 926 585 988 q 772 746 744 865 l 683 719 q 606 853 663 807 q 461 900 549 900 q 313 847 364 900 q 261 697 261 793 q 263 670 261 686 q 270 618 264 654 q 288 513 276 582 l 579 513 l 579 433 l 301 433 q 319 333 313 371 q 328 276 325 296 q 333 247 332 256 q 333 232 333 238 q 297 124 333 164 l 574 68 q 603 63 589 65 q 632 61 618 61 q 763 144 718 61 l 839 96 q 635 -28 767 -28 z "},"¥":{"ha":890,"x_min":11,"x_max":879,"o":"m 392 0 l 392 186 l 132 186 l 132 261 l 392 261 l 392 365 l 132 365 l 132 440 l 363 440 l 11 972 l 136 972 l 449 490 l 758 972 l 879 972 l 531 440 l 758 440 l 758 365 l 499 365 l 499 261 l 758 261 l 758 186 l 499 186 l 499 0 l 392 0 z "},"∕":{"ha":803,"x_min":42,"x_max":674,"o":"m 42 0 l 588 972 l 674 972 l 128 0 l 42 0 z "},"+":{"ha":833,"x_min":142,"x_max":692,"o":"m 374 201 l 374 453 l 142 453 l 142 536 l 374 536 l 374 788 l 460 788 l 460 536 l 692 536 l 692 453 l 460 453 l 460 201 l 374 201 z "},"−":{"ha":833,"x_min":142,"x_max":692,"o":"m 142 456 l 142 539 l 692 539 l 692 456 l 142 456 z "},"×":{"ha":833,"x_min":158,"x_max":675,"o":"m 211 225 l 160 281 l 363 497 l 158 717 l 211 774 l 417 556 l 621 774 l 675 718 l 469 500 l 675 281 l 619 224 l 415 442 l 211 225 z "},"÷":{"ha":833,"x_min":142,"x_max":692,"o":"m 417 679 q 365 701 386 679 q 343 753 343 722 q 365 805 343 783 q 417 826 386 826 q 469 805 447 826 q 490 753 490 783 q 469 701 490 722 q 417 679 447 679 m 417 168 q 365 190 386 168 q 343 242 343 211 q 365 294 343 272 q 417 315 386 315 q 469 294 447 315 q 490 242 490 272 q 469 190 490 211 q 417 168 447 168 m 142 456 l 142 539 l 692 539 l 692 456 l 142 456 z "},"=":{"ha":833,"x_min":142,"x_max":692,"o":"m 142 340 l 142 424 l 692 424 l 692 340 l 142 340 m 142 567 l 142 650 l 692 650 l 692 567 l 142 567 z "},"≠":{"ha":833,"x_min":142,"x_max":692,"o":"m 154 171 l 271 340 l 142 340 l 142 424 l 328 424 l 426 567 l 142 567 l 142 650 l 483 650 l 599 818 l 679 818 l 564 650 l 692 650 l 692 567 l 507 567 l 408 424 l 692 424 l 692 340 l 351 340 l 235 171 l 154 171 z "},">":{"ha":833,"x_min":193,"x_max":685,"o":"m 246 825 l 685 483 l 244 143 l 193 208 l 556 482 l 193 758 l 246 825 z "},"<":{"ha":833,"x_min":149,"x_max":640,"o":"m 588 143 l 149 485 l 589 825 l 640 760 l 278 486 l 640 210 l 588 143 z "},"±":{"ha":833,"x_min":142,"x_max":692,"o":"m 142 -1 l 142 82 l 692 82 l 692 -1 l 142 -1 m 374 240 l 374 485 l 142 485 l 142 568 l 374 568 l 374 813 l 460 813 l 460 568 l 692 568 l 692 485 l 460 485 l 460 240 l 374 240 z "},"~":{"ha":803,"x_min":56,"x_max":747,"o":"m 135 418 l 56 428 q 114 578 68 525 q 232 631 160 631 q 291 622 260 631 q 361 590 322 613 l 472 535 q 526 511 506 518 q 565 504 547 504 q 669 631 651 504 l 747 621 q 690 471 736 524 q 571 418 643 418 q 513 427 544 418 q 442 457 482 436 l 331 513 q 275 538 294 532 q 238 544 256 544 q 135 418 153 544 z "},"¬":{"ha":810,"x_min":93,"x_max":728,"o":"m 642 0 l 642 353 l 93 353 l 93 436 l 728 436 l 728 0 l 642 0 z "},"^":{"ha":744,"x_min":68,"x_max":678,"o":"m 68 486 l 328 972 l 418 972 l 678 486 l 582 486 l 372 882 l 163 486 l 68 486 z "},"µ":{"ha":765,"x_min":88,"x_max":678,"o":"m 88 -283 l 88 696 l 189 696 l 189 276 q 242 130 189 183 q 383 76 294 76 q 495 105 446 76 q 575 185 544 133 l 575 696 l 678 696 l 678 0 l 575 0 l 575 81 q 480 10 535 33 q 357 -14 425 -14 q 265 -1 308 -14 q 189 38 222 13 l 189 -283 l 88 -283 z "},"%":{"ha":1026,"x_min":38,"x_max":992,"o":"m 244 479 q 94 549 151 479 q 38 729 38 618 q 94 910 38 840 q 244 979 151 979 q 392 910 335 979 q 450 729 449 840 q 392 549 449 618 q 244 479 335 479 m 244 543 q 342 594 306 543 q 379 729 379 644 q 342 866 379 815 q 244 917 306 917 q 146 866 182 917 q 108 729 110 815 q 146 594 110 644 q 244 543 182 543 m 197 0 l 743 972 l 829 972 l 282 0 l 197 0 m 786 -7 q 636 63 693 -7 q 579 243 579 132 q 636 424 579 354 q 786 493 693 493 q 933 424 876 493 q 992 243 990 354 q 933 63 990 132 q 786 -7 876 -7 m 786 57 q 884 108 847 57 q 921 243 921 158 q 884 380 921 329 q 786 431 847 431 q 688 380 724 431 q 650 243 651 329 q 688 108 651 158 q 786 57 724 57 z "},"‰":{"ha":1506,"x_min":38,"x_max":1469,"o":"m 244 479 q 94 549 151 479 q 38 729 38 618 q 94 910 38 840 q 244 979 151 979 q 392 910 335 979 q 450 729 449 840 q 392 549 449 618 q 244 479 335 479 m 244 543 q 342 594 306 543 q 379 729 379 644 q 342 866 379 815 q 244 917 306 917 q 146 866 182 917 q 108 729 110 815 q 146 594 110 644 q 244 543 182 543 m 197 0 l 743 972 l 829 972 l 282 0 l 197 0 m 786 -7 q 636 63 693 -7 q 579 243 579 132 q 636 424 579 354 q 786 493 693 493 q 933 424 876 493 q 992 243 990 354 q 933 63 990 132 q 786 -7 876 -7 m 786 57 q 884 108 847 57 q 921 243 921 158 q 884 380 921 329 q 786 431 847 431 q 688 380 724 431 q 650 243 651 329 q 688 108 651 158 q 786 57 724 57 m 1264 -7 q 1114 63 1171 -7 q 1057 243 1057 132 q 1114 424 1057 354 q 1264 493 1171 493 q 1411 424 1354 493 q 1469 243 1468 354 q 1411 63 1468 132 q 1264 -7 1354 -7 m 1264 57 q 1362 108 1325 57 q 1399 243 1399 158 q 1362 380 1399 329 q 1264 431 1325 431 q 1165 380 1201 431 q 1128 243 1129 329 q 1165 108 1129 158 q 1264 57 1201 57 z "},"↑":{"ha":701,"x_min":7,"x_max":689,"o":"m 300 0 l 300 846 l 74 547 l 7 600 l 349 1042 l 689 600 l 624 549 l 394 853 l 394 0 l 300 0 z "},"↓":{"ha":701,"x_min":7,"x_max":689,"o":"m 396 972 l 396 126 l 622 425 l 689 372 l 347 -69 l 7 372 l 72 424 l 301 119 l 301 972 l 396 972 z "},"̈":{"ha":0,"x_min":226,"x_max":607,"o":"m 296 849 q 247 868 267 849 q 226 915 226 888 q 247 963 226 943 q 296 982 267 982 q 345 963 325 982 q 365 915 365 943 q 345 868 365 888 q 296 849 325 849 m 538 849 q 488 868 508 849 q 468 915 468 888 q 488 963 468 943 q 538 982 508 982 q 587 963 567 982 q 607 915 607 943 q 587 868 607 888 q 538 849 567 849 z "},"̇":{"ha":0,"x_min":349,"x_max":485,"o":"m 417 836 q 369 856 389 836 q 349 904 349 876 q 369 952 349 932 q 417 972 389 972 q 465 952 444 972 q 485 904 485 932 q 465 856 485 876 q 417 836 444 836 z "},"̀":{"ha":0,"x_min":232,"x_max":493,"o":"m 403 833 l 232 994 l 365 994 l 493 833 l 403 833 z "},"́":{"ha":0,"x_min":328,"x_max":590,"o":"m 328 833 l 458 994 l 590 994 l 418 833 l 328 833 z "},"̋":{"ha":0,"x_min":254,"x_max":749,"o":"m 254 838 l 399 994 l 518 994 l 342 838 l 254 838 m 483 838 l 628 994 l 749 994 l 568 838 l 483 838 z "},"̂":{"ha":0,"x_min":217,"x_max":617,"o":"m 532 828 l 415 939 l 300 828 l 217 828 l 361 996 l 472 996 l 617 828 l 532 828 z "},"̌":{"ha":0,"x_min":217,"x_max":617,"o":"m 303 997 l 417 888 l 531 997 l 617 997 l 472 831 l 361 831 l 217 997 l 303 997 z "},"̆":{"ha":0,"x_min":203,"x_max":631,"o":"m 417 822 q 277 867 333 822 q 203 993 221 913 l 275 1011 q 417 890 304 890 q 506 921 469 890 q 558 1011 543 951 l 631 993 q 556 867 613 913 q 417 822 499 822 z "},"̊":{"ha":0,"x_min":261,"x_max":572,"o":"m 417 810 q 338 831 374 810 q 282 887 303 851 q 261 964 261 922 q 282 1042 261 1007 q 338 1097 303 1076 q 417 1118 374 1118 q 495 1097 460 1118 q 551 1042 531 1076 q 572 964 572 1007 q 551 887 572 922 q 495 831 531 851 q 417 810 460 810 m 417 867 q 485 895 457 867 q 514 964 514 924 q 485 1033 514 1004 q 417 1061 457 1061 q 348 1033 376 1061 q 319 964 319 1004 q 348 895 319 924 q 417 867 376 867 z "},"̃":{"ha":0,"x_min":183,"x_max":649,"o":"m 256 825 l 183 839 q 314 978 214 978 q 387 959 351 978 q 454 921 422 940 q 515 901 486 901 q 553 919 539 901 q 578 981 568 938 l 649 967 q 601 863 635 897 q 518 828 568 828 q 447 847 482 828 q 378 885 411 867 q 317 904 346 904 q 278 886 292 904 q 256 825 264 868 z "},"̄":{"ha":0,"x_min":219,"x_max":614,"o":"m 219 863 l 219 936 l 614 936 l 614 863 l 219 863 z "},"̒":{"ha":0,"x_min":88,"x_max":279,"o":"m 279 999 l 199 706 l 88 706 l 199 999 l 279 999 z "},"̦":{"ha":0,"x_min":308,"x_max":468,"o":"m 308 -367 l 365 -118 l 468 -118 l 385 -367 l 308 -367 z "},"̧":{"ha":0,"x_min":232,"x_max":549,"o":"m 389 -317 q 232 -260 293 -317 l 274 -215 q 389 -260 326 -260 q 454 -241 431 -260 q 478 -192 478 -222 q 452 -144 478 -161 q 382 -126 426 -126 l 342 -126 l 378 0 l 438 0 l 417 -76 q 513 -110 478 -79 q 549 -190 549 -140 q 503 -281 549 -246 q 389 -317 458 -317 z "},"̨":{"ha":0,"x_min":272,"x_max":511,"o":"m 408 -307 q 310 -274 347 -307 q 272 -187 272 -242 q 313 -85 272 -133 q 443 22 353 -36 l 490 0 q 378 -89 414 -47 q 343 -171 343 -131 q 364 -224 343 -206 q 424 -243 385 -243 q 459 -238 442 -243 q 490 -224 476 -233 l 511 -278 q 463 -299 489 -292 q 408 -307 438 -307 z "},"¨":{"ha":833,"x_min":226,"x_max":607,"o":"m 296 849 q 247 868 267 849 q 226 915 226 888 q 247 963 226 943 q 296 982 267 982 q 345 963 325 982 q 365 915 365 943 q 345 868 365 888 q 296 849 325 849 m 538 849 q 488 868 508 849 q 468 915 468 888 q 488 963 468 943 q 538 982 508 982 q 587 963 567 982 q 607 915 607 943 q 587 868 607 888 q 538 849 567 849 z "},"˙":{"ha":833,"x_min":349,"x_max":485,"o":"m 417 836 q 369 856 389 836 q 349 904 349 876 q 369 952 349 932 q 417 972 389 972 q 465 952 444 972 q 485 904 485 932 q 465 856 485 876 q 417 836 444 836 z "},"`":{"ha":833,"x_min":232,"x_max":493,"o":"m 403 833 l 232 994 l 365 994 l 493 833 l 403 833 z "},"´":{"ha":833,"x_min":328,"x_max":590,"o":"m 328 833 l 458 994 l 590 994 l 418 833 l 328 833 z "},"˝":{"ha":833,"x_min":254,"x_max":749,"o":"m 254 838 l 399 994 l 518 994 l 342 838 l 254 838 m 483 838 l 628 994 l 749 994 l 568 838 l 483 838 z "},"ˆ":{"ha":833,"x_min":217,"x_max":617,"o":"m 532 828 l 415 939 l 300 828 l 217 828 l 361 996 l 472 996 l 617 828 l 532 828 z "},"ˇ":{"ha":833,"x_min":217,"x_max":617,"o":"m 303 997 l 417 888 l 531 997 l 617 997 l 472 831 l 361 831 l 217 997 l 303 997 z "},"˘":{"ha":833,"x_min":203,"x_max":631,"o":"m 417 822 q 277 867 333 822 q 203 993 221 913 l 275 1011 q 417 890 304 890 q 506 921 469 890 q 558 1011 543 951 l 631 993 q 556 867 613 913 q 417 822 499 822 z "},"˚":{"ha":833,"x_min":261,"x_max":572,"o":"m 417 810 q 338 831 374 810 q 282 887 303 851 q 261 964 261 922 q 282 1042 261 1007 q 338 1097 303 1076 q 417 1118 374 1118 q 495 1097 460 1118 q 551 1042 531 1076 q 572 964 572 1007 q 551 887 572 922 q 495 831 531 851 q 417 810 460 810 m 417 867 q 485 895 457 867 q 514 964 514 924 q 485 1033 514 1004 q 417 1061 457 1061 q 348 1033 376 1061 q 319 964 319 1004 q 348 895 319 924 q 417 867 376 867 z "},"˜":{"ha":833,"x_min":183,"x_max":649,"o":"m 256 825 l 183 839 q 314 978 214 978 q 387 959 351 978 q 454 921 422 940 q 515 901 486 901 q 553 919 539 901 q 578 981 568 938 l 649 967 q 601 863 635 897 q 518 828 568 828 q 447 847 482 828 q 378 885 411 867 q 317 904 346 904 q 278 886 292 904 q 256 825 264 868 z "},"¯":{"ha":833,"x_min":219,"x_max":614,"o":"m 219 863 l 219 936 l 614 936 l 614 863 l 219 863 z "},"¸":{"ha":833,"x_min":232,"x_max":549,"o":"m 389 -317 q 232 -260 293 -317 l 274 -215 q 389 -260 326 -260 q 454 -241 431 -260 q 478 -192 478 -222 q 452 -144 478 -161 q 382 -126 426 -126 l 342 -126 l 378 0 l 438 0 l 417 -76 q 513 -110 478 -79 q 549 -190 549 -140 q 503 -281 549 -246 q 389 -317 458 -317 z "},"˛":{"ha":833,"x_min":272,"x_max":511,"o":"m 408 -307 q 310 -274 347 -307 q 272 -187 272 -242 q 313 -85 272 -133 q 443 22 353 -36 l 490 0 q 378 -89 414 -47 q 343 -171 343 -131 q 364 -224 343 -206 q 424 -243 385 -243 q 459 -238 442 -243 q 490 -224 476 -233 l 511 -278 q 463 -299 489 -292 q 408 -307 438 -307 z "},"ʼ":{"ha":347,"x_min":88,"x_max":279,"o":"m 88 706 l 168 999 l 279 999 l 168 706 l 88 706 z "},"ʻ":{"ha":347,"x_min":88,"x_max":279,"o":"m 279 999 l 199 706 l 88 706 l 199 999 l 279 999 z "},"⁄":{"ha":803,"x_min":42,"x_max":674,"o":"m 42 0 l 588 972 l 674 972 l 126 0 l 42 0 z "},"½":{"ha":885,"x_min":28,"x_max":856,"o":"m 115 486 l 115 897 l 28 861 l 28 924 l 142 972 l 188 972 l 188 486 l 115 486 m 53 0 l 599 972 l 685 972 l 138 0 l 53 0 m 517 0 l 517 53 l 706 226 q 762 291 746 265 q 778 344 778 317 q 750 406 778 382 q 678 431 722 431 q 613 417 643 431 q 544 371 582 403 l 504 419 q 588 474 544 456 q 679 493 632 493 q 801 453 753 493 q 849 350 849 413 q 828 272 849 307 q 751 185 807 236 l 617 61 l 856 61 l 856 0 l 517 0 z "},"¼":{"ha":838,"x_min":28,"x_max":815,"o":"m 683 0 l 683 122 l 408 122 l 408 181 l 675 486 l 756 486 l 756 183 l 815 183 l 815 122 l 756 122 l 756 0 l 683 0 m 493 183 l 683 183 l 683 401 l 493 183 m 115 486 l 115 897 l 28 861 l 28 924 l 142 972 l 188 972 l 188 486 l 115 486 m 53 1 l 599 974 l 685 974 l 138 1 l 53 1 z "},"¾":{"ha":968,"x_min":25,"x_max":946,"o":"m 814 0 l 814 122 l 539 122 l 539 181 l 806 486 l 886 486 l 886 183 l 946 183 l 946 122 l 886 122 l 886 0 l 814 0 m 624 183 l 814 183 l 814 401 l 624 183 m 210 479 q 108 498 156 479 q 25 551 60 517 l 74 597 q 135 554 104 567 q 210 542 167 542 q 292 565 261 542 q 322 625 322 588 q 292 678 322 658 q 214 699 263 699 l 171 699 l 171 757 l 208 757 q 278 781 250 757 q 306 840 306 806 q 278 895 306 874 q 207 917 250 917 q 140 903 168 917 q 79 858 111 890 l 31 904 q 113 960 67 940 q 210 981 158 981 q 331 942 283 981 q 378 846 379 904 q 358 780 379 810 q 299 733 336 750 q 369 690 343 719 q 396 619 396 660 q 344 519 396 558 q 210 479 292 479 m 183 0 l 729 972 l 815 972 l 268 0 l 183 0 z "},"₀":{"ha":486,"x_min":38,"x_max":450,"o":"m 244 -7 q 94 63 151 -7 q 38 243 38 132 q 94 424 38 354 q 244 493 151 493 q 392 424 335 493 q 450 243 449 354 q 392 63 449 132 q 244 -7 335 -7 m 244 57 q 342 108 306 57 q 379 243 379 158 q 342 380 379 329 q 244 431 306 431 q 146 380 182 431 q 108 243 110 329 q 146 108 110 158 q 244 57 182 57 z "},"₁":{"ha":229,"x_min":28,"x_max":188,"o":"m 115 0 l 115 411 l 28 375 l 28 438 l 142 486 l 188 486 l 188 0 l 115 0 z "},"₂":{"ha":404,"x_min":24,"x_max":375,"o":"m 36 0 l 36 53 l 225 226 q 281 291 265 265 q 297 344 297 317 q 269 406 297 382 q 197 431 242 431 q 132 417 163 431 q 64 371 101 403 l 24 419 q 108 474 64 456 q 199 493 151 493 q 320 453 272 493 q 368 350 368 413 q 347 272 368 307 q 271 185 326 236 l 136 61 l 375 61 l 375 0 l 36 0 z "},"₃":{"ha":435,"x_min":25,"x_max":396,"o":"m 210 -7 q 108 12 156 -7 q 25 65 60 31 l 74 111 q 135 68 104 81 q 210 56 167 56 q 292 78 261 56 q 322 139 322 101 q 292 192 322 172 q 214 213 263 213 l 171 213 l 171 271 l 208 271 q 278 295 250 271 q 306 354 306 319 q 278 409 306 388 q 207 431 250 431 q 140 417 168 431 q 79 372 111 404 l 31 418 q 113 474 67 454 q 210 494 158 494 q 331 456 283 494 q 378 360 379 418 q 358 294 379 324 q 299 247 336 264 q 369 203 343 233 q 396 133 396 174 q 344 33 396 72 q 210 -7 292 -7 z "},"₄":{"ha":458,"x_min":29,"x_max":436,"o":"m 304 0 l 304 122 l 29 122 l 29 181 l 296 486 l 376 486 l 376 183 l 436 183 l 436 122 l 376 122 l 376 0 l 304 0 m 114 183 l 304 183 l 304 401 l 114 183 z "},"₅":{"ha":429,"x_min":28,"x_max":394,"o":"m 204 -7 q 28 58 100 -7 l 72 108 q 136 67 104 79 q 207 54 168 54 q 290 81 258 54 q 321 151 321 108 q 288 219 321 192 q 201 246 254 246 q 152 242 178 246 q 100 226 126 238 l 56 240 l 67 486 l 367 486 l 367 424 l 125 424 l 119 286 q 167 300 143 296 q 215 304 192 304 q 345 263 296 304 q 394 153 394 221 q 342 37 394 81 q 204 -7 289 -7 z "},"₆":{"ha":453,"x_min":38,"x_max":419,"o":"m 243 -7 q 94 58 151 -7 q 38 229 38 124 q 102 420 38 349 q 274 492 167 492 q 340 481 306 492 q 400 453 375 471 l 361 399 q 316 421 340 414 q 267 428 292 428 q 154 379 194 428 q 110 240 114 331 q 174 287 136 269 q 250 304 211 304 q 372 261 324 304 q 419 153 419 218 q 369 39 419 85 q 243 -7 319 -7 m 238 246 q 170 229 203 246 q 114 182 138 213 q 158 90 124 124 q 242 56 192 56 q 317 83 288 56 q 347 151 347 110 q 317 219 347 193 q 238 246 286 246 z "},"₇":{"ha":414,"x_min":22,"x_max":399,"o":"m 78 0 l 317 424 l 22 424 l 22 486 l 399 486 l 399 432 l 163 0 l 78 0 z "},"₈":{"ha":454,"x_min":39,"x_max":414,"o":"m 228 -7 q 92 33 144 -7 q 39 133 39 72 q 65 206 39 174 q 133 253 90 239 q 78 298 99 268 q 57 363 57 328 q 106 457 57 419 q 226 494 154 494 q 349 457 300 494 q 397 363 397 419 q 376 298 397 328 q 321 253 356 268 q 388 206 363 239 q 414 133 414 174 q 362 33 414 72 q 228 -7 310 -7 m 228 282 q 297 303 269 282 q 325 358 325 325 q 297 414 325 392 q 228 436 269 436 q 156 414 185 436 q 128 358 128 392 q 156 303 128 325 q 228 282 185 282 m 228 53 q 310 77 276 53 q 343 138 343 101 q 310 199 343 175 q 228 224 276 224 q 144 199 176 224 q 111 138 111 175 q 144 77 111 101 q 228 53 176 53 z "},"₉":{"ha":453,"x_min":33,"x_max":415,"o":"m 210 492 q 358 426 301 492 q 415 256 415 361 q 351 65 415 138 q 179 -7 286 -7 q 113 3 147 -7 q 53 32 78 14 l 92 86 q 137 65 113 72 q 186 57 161 57 q 299 106 258 57 q 343 244 339 156 q 280 198 317 215 q 203 181 243 181 q 81 224 129 181 q 33 332 33 267 q 83 447 33 401 q 210 492 133 492 m 215 239 q 283 256 251 239 q 339 303 315 272 q 295 395 329 361 q 211 429 261 429 q 135 402 165 429 q 106 333 106 375 q 136 265 106 292 q 215 239 167 239 z "},"⁰":{"ha":486,"x_min":38,"x_max":450,"o":"m 244 479 q 94 549 151 479 q 38 729 38 618 q 94 910 38 840 q 244 979 151 979 q 392 910 335 979 q 450 729 449 840 q 392 549 449 618 q 244 479 335 479 m 244 543 q 342 594 306 543 q 379 729 379 644 q 342 866 379 815 q 244 917 306 917 q 146 866 182 917 q 108 729 110 815 q 146 594 110 644 q 244 543 182 543 z "},"¹":{"ha":229,"x_min":28,"x_max":188,"o":"m 115 486 l 115 897 l 28 861 l 28 924 l 142 972 l 188 972 l 188 486 l 115 486 z "},"²":{"ha":404,"x_min":24,"x_max":375,"o":"m 36 486 l 36 539 l 225 713 q 281 777 265 751 q 297 831 297 803 q 269 892 297 868 q 197 917 242 917 q 132 903 163 917 q 64 857 101 889 l 24 906 q 108 960 64 942 q 199 979 151 979 q 320 939 272 979 q 368 836 368 899 q 347 758 368 793 q 271 671 326 722 l 136 547 l 375 547 l 375 486 l 36 486 z "},"³":{"ha":435,"x_min":25,"x_max":396,"o":"m 210 479 q 108 498 156 479 q 25 551 60 517 l 74 597 q 135 554 104 567 q 210 542 167 542 q 292 565 261 542 q 322 625 322 588 q 292 678 322 658 q 214 699 263 699 l 171 699 l 171 757 l 208 757 q 278 781 250 757 q 306 840 306 806 q 278 895 306 874 q 207 917 250 917 q 140 903 168 917 q 79 858 111 890 l 31 904 q 113 960 67 940 q 210 981 158 981 q 331 942 283 981 q 378 846 379 904 q 358 780 379 810 q 299 733 336 750 q 369 690 343 719 q 396 619 396 660 q 344 519 396 558 q 210 479 292 479 z "},"⁴":{"ha":458,"x_min":29,"x_max":436,"o":"m 304 486 l 304 608 l 29 608 l 29 667 l 296 972 l 376 972 l 376 669 l 436 669 l 436 608 l 376 608 l 376 486 l 304 486 m 114 669 l 304 669 l 304 888 l 114 669 z "},"⁵":{"ha":429,"x_min":28,"x_max":394,"o":"m 204 479 q 28 544 100 479 l 72 594 q 136 553 104 565 q 207 540 168 540 q 290 567 258 540 q 321 638 321 594 q 288 705 321 678 q 201 732 254 732 q 152 728 178 732 q 100 713 126 724 l 56 726 l 67 972 l 367 972 l 367 910 l 125 910 l 119 772 q 167 786 143 782 q 215 790 192 790 q 345 749 296 790 q 394 639 394 707 q 342 523 394 567 q 204 479 289 479 z "},"⁶":{"ha":453,"x_min":38,"x_max":419,"o":"m 243 479 q 94 544 151 479 q 38 715 38 610 q 102 906 38 835 q 274 978 167 978 q 340 967 306 978 q 400 939 375 957 l 361 885 q 316 907 340 900 q 267 914 292 914 q 154 865 194 914 q 110 726 114 817 q 174 773 136 756 q 250 790 211 790 q 372 747 324 790 q 419 639 419 704 q 369 525 419 571 q 243 479 319 479 m 238 732 q 170 715 203 732 q 114 668 138 699 q 158 576 124 610 q 242 542 192 542 q 317 569 288 542 q 347 638 347 596 q 317 706 347 679 q 238 732 286 732 z "},"⁷":{"ha":414,"x_min":22,"x_max":399,"o":"m 78 486 l 317 910 l 22 910 l 22 972 l 399 972 l 399 918 l 163 486 l 78 486 z "},"⁸":{"ha":454,"x_min":39,"x_max":414,"o":"m 228 479 q 92 519 144 479 q 39 619 39 558 q 65 692 39 660 q 133 739 90 725 q 78 784 99 754 q 57 849 57 814 q 106 943 57 906 q 226 981 154 981 q 349 943 300 981 q 397 849 397 906 q 376 784 397 814 q 321 739 356 754 q 388 692 363 725 q 414 619 414 660 q 362 519 414 558 q 228 479 310 479 m 228 768 q 297 790 269 768 q 325 844 325 811 q 297 900 325 878 q 228 922 269 922 q 156 900 185 922 q 128 844 128 878 q 156 790 128 811 q 228 768 185 768 m 228 539 q 310 563 276 539 q 343 624 343 588 q 310 685 343 661 q 228 710 276 710 q 144 685 176 710 q 111 624 111 661 q 144 563 111 588 q 228 539 176 539 z "},"⁹":{"ha":453,"x_min":33,"x_max":415,"o":"m 210 978 q 358 913 301 978 q 415 742 415 847 q 351 551 415 624 q 179 479 286 479 q 113 490 147 479 q 53 518 78 500 l 92 572 q 137 551 113 558 q 186 543 161 543 q 299 592 258 543 q 343 731 339 642 q 280 684 317 701 q 203 667 243 667 q 81 710 129 667 q 33 818 33 753 q 83 933 33 888 q 210 978 133 978 m 215 725 q 283 742 251 725 q 339 789 315 758 q 295 881 329 847 q 211 915 261 915 q 135 888 165 915 q 106 819 106 861 q 136 751 106 778 q 215 725 167 725 z "}}}
